<?xml version="1.0" encoding="utf-8"?><!-- Generator: Adobe Illustrator 25.3.1, SVG Export Plug-In . SVG Version: 6.00 Build 0)  -->
<svg version="1.1" id="Ebene_1" xmlns="http://www.w3.org/2000/svg" x="0px" y="0px"
    viewBox="0 0 663.6 219.8" style="enable-background:new 0 0 663.6 219.8;" xml:space="preserve">
<style type="text/css">
	.st0{fill:#FFB300;}
	.st1{fill:#90A4AE;}
	.st2{fill:#546E7A;}
	.st3{fill:#00E676;}
	.st4{fill:#FFFFFF;fill-opacity:0.2;}
	.st5{fill:#3E2723;fill-opacity:0.2;}
	.st6{opacity:0.45;enable-background:new    ;}
	.st7{enable-background:new    ;}
	.st8{fill:#1D1D1B;}
</style>
    <g id="Ebene_2_1_">
	<g>
		<g>
			<g>
				<path class="st0"
                    d="M19.4,161.7l-4-35.1l-6.1,0.6l4,35.1L19.4,161.7z M41.2,159.1l-4-35.1l-6.1,0.6l4,35.1L41.2,159.1z" />
                <path class="st1" d="M52.6,206.9c-1.9,2.3-3.4,3.8-3.6,4c-5.5,4.4-9.9,5.7-13.5,4c-6.3-3.2-5.9-15-5.7-16.3l4.4,0.2
					c-0.2,3.4,0.4,10.6,3.4,12c1.7,0.8,4.6-0.2,8.5-3.4l0,0c0,0,12.3-12.3,9.7-22c-3-11.6,10.6-28.3,15-34l0.6-0.6l3.6,2.7l-0.6,0.8
					c-13.7,16.9-15.2,25.6-14.2,30C62.3,192.9,56.6,202,52.6,206.9z" />
                <path class="st1"
                    d="M5.9,161.2l1.7,14.4l13.3,8.9l18-1.9l11-11.6l-1.7-14.4L5.9,161.2z" />
                <g>
					<path class="st2" d="M38.6,182.6l-18,1.9l3.8,15.8l14.2-1.7V182.6L38.6,182.6z M51.5,144.5l1.5,13.1l-51.5,5.9L0,150.4
						L51.5,144.5z" />
				</g>
			</g>
            <g>
				<g>
					<path class="st3" d="M91.9,0c-37,0-67,30-67,67c0,50.5,56.4,76.9,63.2,148.9c0.2,2.1,1.9,3.6,4,3.6s3.8-1.5,4-3.6
						c6.8-72,63.2-98.4,63.2-148.9C158.8,29.8,128.8,0,91.9,0z" />
                    <path class="st4" d="M91.9,1.5c36.8,0,66.5,29.6,67,66.1c0-0.2,0-0.4,0-0.6c0-37-30-67-67-67s-67,29.8-67,67c0,0.2,0,0.4,0,0.6
						C25.3,31.1,55.1,1.5,91.9,1.5L91.9,1.5z" />
                    <path class="st5" d="M95.9,214.3c-0.2,2.1-1.9,3.6-4,3.6s-3.8-1.5-4-3.6c-6.5-71.8-62.5-98.2-63-148.1c0,0.4,0,0.6,0,1.1
						c0,50.5,56.4,76.9,63.2,148.9c0.2,2.1,1.9,3.6,4,3.6s3.8-1.5,4-3.6c6.8-72,63.2-98.4,63.2-148.9c0-0.4,0-0.6,0-1.1
						C158.4,116,102.4,142.4,95.9,214.3L95.9,214.3z" />
				</g>
                <path class="st6"
                    d="M76.5,34.3v40.6h11v33.2l25.8-44.4H98.5l14.8-29.6C113.4,34.3,76.5,34.3,76.5,34.3z" />
			</g>
		</g>
        <g class="st7">
			<path class="st8"
                d="M307.9,102.9h-45.4v39.6h52.2v6.9h-60.4V52.3h60.1v6.9h-51.9v36.7h45.4V102.9z" />
            <path class="st8"
                d="M361.2,137.4l0.5,2.1l0.6-2.1l30.5-85.1h9l-36.1,97.1h-7.9l-36.1-97.1h8.9L361.2,137.4z" />
            <path class="st8" d="M427,52.4l35.8,85.7l35.9-85.7h10.9v97.1h-8.2v-42.3l0.7-43.3L466,149.5h-6.3l-36-85.3l0.7,42.7v42.5h-8.2
				V52.3H427V52.4z" />
            <path class="st8" d="M578,149.4c-0.8-2.3-1.3-5.6-1.5-10.1c-2.8,3.6-6.4,6.5-10.7,8.4c-4.3,2-8.9,3-13.8,3
				c-6.9,0-12.5-1.9-16.8-5.8s-6.4-8.8-6.4-14.7c0-7,2.9-12.6,8.8-16.7c5.8-4.1,14-6.1,24.4-6.1h14.5v-8.2c0-5.2-1.6-9.2-4.8-12.2
				s-7.8-4.4-13.9-4.4c-5.6,0-10.2,1.4-13.8,4.3c-3.6,2.8-5.5,6.3-5.5,10.3l-8-0.1c0-5.7,2.7-10.7,8-14.9s11.9-6.3,19.7-6.3
				c8,0,14.4,2,19,6s7,9.6,7.2,16.8v34.1c0,7,0.7,12.2,2.2,15.7v0.8H578V149.4z M552.9,143.7c5.3,0,10.1-1.3,14.3-3.9
				s7.3-6,9.2-10.3v-15.9h-14.3c-8,0.1-14.2,1.5-18.7,4.4c-4.5,2.8-6.7,6.7-6.7,11.6c0,4,1.5,7.4,4.5,10.1S548.1,143.7,552.9,143.7z
				" />
            <path class="st8" d="M663.6,114.1c0,11.2-2.5,20.2-7.5,26.8s-11.6,9.9-20,9.9c-9.9,0-17.4-3.5-22.7-10.4v36.8h-7.9V77.3h7.4
				l0.4,10.2C618.5,79.8,626,76,635.9,76c8.6,0,15.4,3.3,20.3,9.8c4.9,6.5,7.4,15.6,7.4,27.2V114.1z M655.6,112.7
				c0-9.2-1.9-16.5-5.7-21.8s-9-8-15.8-8c-4.9,0-9.1,1.2-12.6,3.5c-3.5,2.4-6.2,5.8-8.1,10.3v34.6c1.9,4.1,4.6,7.3,8.2,9.5
				c3.6,2.2,7.8,3.3,12.6,3.3c6.7,0,11.9-2.7,15.7-8C653.7,130.6,655.6,122.9,655.6,112.7z" />
		</g>
	</g>
</g>
</svg>
