<?xml version="1.0" encoding="utf-8"?><!-- Generator: Adobe Illustrator 23.0.1, SVG Export Plug-In . SVG Version: 6.00 Build 0)  -->
<svg version="1.1" id="Ebene_1" xmlns="http://www.w3.org/2000/svg" x="0px" y="0px"
	viewBox="0 0 75.4 104" style="enable-background:new 0 0 75.4 104;" xml:space="preserve">
<style type="text/css">
	.st0{fill:#FFB300;}
	.st1{fill:#90A4AE;}
	.st2{fill:#546E7A;}
	.st3{fill:#00E676;}
	.st4{fill:#FFFFFF;fill-opacity:0.2;}
	.st5{fill:#3E2723;fill-opacity:0.2;}
	.st6{opacity:0.45;enable-background:new    ;}
</style>
	<g>
	<g>
		<path class="st0"
			d="M9.2,76.5L7.3,59.9l-2.9,0.3l1.9,16.6L9.2,76.5z M19.5,75.3l-1.9-16.6L14.7,59l1.9,16.6L19.5,75.3z" />
		<path class="st1" d="M24.9,97.9c-0.9,1.1-1.6,1.8-1.7,1.9c-2.6,2.1-4.7,2.7-6.4,1.9c-3-1.5-2.8-7.1-2.7-7.7l2.1,0.1
			c-0.1,1.6,0.2,5,1.6,5.7c0.8,0.4,2.2-0.1,4-1.6l0,0c0,0,5.8-5.8,4.6-10.4c-1.4-5.5,5-13.4,7.1-16.1l0.3-0.3l1.7,1.3l-0.3,0.4
			c-6.5,8-7.2,12.1-6.7,14.2C29.5,91.3,26.8,95.6,24.9,97.9z" />
		<path class="st1" d="M2.8,76.3l0.8,6.8l6.3,4.2l8.5-0.9l5.2-5.5l-0.8-6.8L2.8,76.3z" />
		<g>
			<path class="st2"
				d="M18.3,86.4l-8.5,0.9l1.8,7.5l6.7-0.8V86.4L18.3,86.4z M24.4,68.4l0.7,6.2L0.7,77.4L0,71.2L24.4,68.4z" />
		</g>
	</g>
		<g>
		<g>
			<path class="st3" d="M43.5,0C26,0,11.8,14.2,11.8,31.7c0,23.9,26.7,36.4,29.9,70.5c0.1,1,0.9,1.7,1.9,1.7s1.8-0.7,1.9-1.7
				c3.2-34.1,29.9-46.6,29.9-70.5C75.2,14.1,61,0,43.5,0z" />
			<path class="st4" d="M43.5,0.7c17.4,0,31.5,14,31.7,31.3c0-0.1,0-0.2,0-0.3C75.2,14.2,61,0,43.5,0S11.8,14.1,11.8,31.7
				c0,0.1,0,0.2,0,0.3C12,14.7,26.1,0.7,43.5,0.7L43.5,0.7z" />
			<path class="st5" d="M45.4,101.4c-0.1,1-0.9,1.7-1.9,1.7s-1.8-0.7-1.9-1.7c-3.1-34-29.6-46.5-29.8-70.1c0,0.2,0,0.3,0,0.5
				c0,23.9,26.7,36.4,29.9,70.5c0.1,1,0.9,1.7,1.9,1.7s1.8-0.7,1.9-1.7c3.2-34.1,29.9-46.6,29.9-70.5c0-0.2,0-0.3,0-0.5
				C75,54.9,48.5,67.4,45.4,101.4L45.4,101.4z" />
		</g>
			<path class="st6"
				d="M36.2,16.2v19.2h5.2v15.7l12.2-21h-7l7-14C53.7,16.2,36.2,16.2,36.2,16.2z" />
	</g>
</g>
</svg>
