<?xml version="1.0" encoding="utf-8"?><!-- Generator: Adobe Illustrator 23.0.1, SVG Export Plug-In . SVG Version: 6.00 Build 0)  -->
<svg version="1.1" id="Ebene_1" xmlns="http://www.w3.org/2000/svg"
    xmlns:xlink="http://www.w3.org/1999/xlink" x="0px" y="0px" viewBox="0 0 192 192"
    style="enable-background:new 0 0 192 192;" xml:space="preserve">
<style type="text/css">
	.st0{display:none;}
	.st1{display:inline;}
	
		.st2{display:inline;opacity:0.2;clip-path:url(#SVGID_2_);fill:none;stroke:#212121;stroke-width:2;stroke-linejoin:round;stroke-miterlimit:10;}
	
		.st3{display:inline;opacity:0.2;clip-path:url(#SVGID_2_);fill:none;stroke:#FFFFFF;stroke-width:2;stroke-linejoin:round;stroke-miterlimit:10;}
	
		.st4{opacity:0.2;clip-path:url(#SVGID_2_);fill:none;stroke:#212121;stroke-linecap:round;stroke-linejoin:round;stroke-miterlimit:10;}
	
		.st5{opacity:0.2;clip-path:url(#SVGID_2_);fill:none;stroke:#FFFFFF;stroke-linecap:round;stroke-linejoin:round;stroke-miterlimit:10;}
	.st6{display:none;fill:#802C27;}
	.st7{fill:#FFB300;}
	.st8{fill:#90A4AE;}
	.st9{fill:#546E7A;}
	.st10{fill:#00E676;}
	.st11{fill:#FFFFFF;fill-opacity:0.2;}
	.st12{fill:#3E2723;fill-opacity:0.2;}
	.st13{opacity:0.45;}
</style>
    <g class="st0">
	<defs>
		<path id="SVGID_1_" d="M122.5,57.1c-5.8-7.7-15.2-12.4-24.7-12.9H94c-8.1,0.5-15.9,3.9-21.7,9.6c-4.3,4.3-7.4,9.7-8.6,15.7
			c-1.5,7.5-0.1,15.4,3.5,22.1c2.3,4.5,5.2,8.6,8.1,12.8c4.9,6.8,9.8,13.7,13.2,21.3c3.1,6.5,4.9,13.6,5.6,20.8
			c0.4,0.6,1.1,1,1.7,1.5c2.6-1,2-4,2.5-6.2c1.9-12.8,8.7-24.2,16.1-34.6c6.6-9.2,14.1-19,14.4-30.8V74
			C128.5,67.9,126.3,61.9,122.5,57.1z M106.2,74.3l-12.2,21V79.5h-5.2V60.3h17.5l-7,14H106.2z" />
	</defs>
        <clipPath id="SVGID_2_" class="st1">
		<use xlink:href="#SVGID_1_" style="overflow:visible;" />
	</clipPath>
        <path class="st2" d="M106.2,74.3h-7" />
        <path class="st2" d="M106.2,60.3c0,0-17.5,0-17.5,0" />
        <line class="st3" x1="93.9" y1="79.5" x2="88.7" y2="79.5" />
        <path class="st4" d="M94,79v16.2" />
        <line class="st5" x1="106.2" y1="60.3" x2="99.2" y2="74.3" />
        <line class="st5" x1="106.2" y1="74.3" x2="93.9" y2="95.2" />
</g>
    <path class="st6" d="M255-187.1L255-187.1L234.2-208l-5.9,5.9l11.8,11.8c-5.3,2-9,7.1-9,13.1c0,7.7,6.3,14,14,14
	c2,0,3.9-0.4,5.6-1.2v40.4c0,3.1-2.5,5.6-5.6,5.6s-5.6-2.5-5.6-5.6v-25.2c0-6.2-5-11.2-11.2-11.2h-5.6v-39.2c0-6.2-5-11.2-11.2-11.2
	h-33.7c-6.2,0-11.2,5-11.2,11.2v89.7h56.1V-152h8.4v28c0,7.7,6.3,14,14,14s14-6.3,14-14v-53.2C259.1-181.1,257.6-184.6,255-187.1
	 M245.1-171.6c-3.1,0-5.6-2.5-5.6-5.6c0-3.1,2.5-5.6,5.6-5.6s5.6,2.5,5.6,5.6C250.7-174.1,248.2-171.6,245.1-171.6 M189.1-126.8
	V-152h-11.3l22.4-42.1v28h11.2L189.1-126.8z" />
    <g>
	<g>
		<path class="st7"
            d="M67.6,120.6L65.7,104l-2.9,0.3l1.9,16.6L67.6,120.6z M77.9,119.4l-1.9-16.6l-2.9,0.3l1.9,16.6L77.9,119.4z" />
        <path class="st8" d="M83.3,142c-0.9,1.1-1.6,1.8-1.7,1.9c-2.6,2.1-4.7,2.7-6.4,1.9c-3-1.5-2.8-7.1-2.7-7.7l2.1,0.1
			c-0.1,1.6,0.2,5,1.6,5.7c0.8,0.4,2.2-0.1,4-1.6l0,0c0,0,5.8-5.8,4.6-10.4c-1.4-5.5,5-13.4,7.1-16.1l0.3-0.3l1.7,1.3l-0.3,0.4
			c-6.5,8-7.2,12.1-6.7,14.2C87.9,135.4,85.2,139.7,83.3,142z" />
        <path class="st8" d="M61.2,120.4l0.8,6.8l6.3,4.2l8.5-0.9l5.2-5.5l-0.8-6.8L61.2,120.4z" />
        <g>
			<path class="st9" d="M76.7,130.5l-8.5,0.9l1.8,7.5l6.7-0.8L76.7,130.5L76.7,130.5z M82.8,112.5l0.7,6.2l-24.4,2.8l-0.7-6.2
				L82.8,112.5z" />
		</g>
	</g>
        <g>
		<g>
			<path class="st10" d="M101.9,44.1c-17.5,0-31.7,14.2-31.7,31.7c0,23.9,26.7,36.4,29.9,70.5c0.1,1,0.9,1.7,1.9,1.7
				s1.8-0.7,1.9-1.7c3.2-34.1,29.9-46.6,29.9-70.5C133.6,58.2,119.4,44.1,101.9,44.1z" />
            <path class="st11" d="M101.9,44.8c17.4,0,31.5,14,31.7,31.3c0-0.1,0-0.2,0-0.3c0-17.5-14.2-31.7-31.7-31.7S70.2,58.2,70.2,75.8
				c0,0.1,0,0.2,0,0.3C70.4,58.8,84.5,44.8,101.9,44.8L101.9,44.8z" />
            <path class="st12" d="M103.8,145.5c-0.1,1-0.9,1.7-1.9,1.7s-1.8-0.7-1.9-1.7c-3.1-34-29.6-46.5-29.8-70.1c0,0.2,0,0.3,0,0.5
				c0,23.9,26.7,36.4,29.9,70.5c0.1,1,0.9,1.7,1.9,1.7s1.8-0.7,1.9-1.7c3.2-34.1,29.9-46.6,29.9-70.5c0-0.2,0-0.3,0-0.5
				C133.4,99,106.9,111.5,103.8,145.5L103.8,145.5z" />
		</g>
            <path class="st13"
                d="M94.6,60.3v19.2h5.2v15.7l12.2-21h-7l7-14C112.1,60.3,94.6,60.3,94.6,60.3z" />
	</g>
</g>
</svg>
