<?xml version="1.0" encoding="utf-8"?><!-- Generator: Adobe Illustrator 24.3.0, SVG Export Plug-In . SVG Version: 6.00 Build 0)  -->
<svg version="1.1" id="Ebene_1" xmlns="http://www.w3.org/2000/svg" x="0px" y="0px"
	viewBox="0 0 120 120" style="enable-background:new 0 0 120 120;" xml:space="preserve">
<style type="text/css">
	.st0{fill:#FFFFFF;}
</style>
	<g>
	<g>
		<path class="st0"
			d="M27.1,88.3l-2.2-19.2l-3.3,0.3l2.2,19.2L27.1,88.3z M39,86.9l-2.2-19.2l-3.3,0.3l2.2,19.2L39,86.9z" />
		<path class="st0" d="M45.2,113c-1,1.3-1.8,2.1-2,2.2c-3,2.4-5.4,3.1-7.4,2.2c-3.5-1.7-3.2-8.2-3.1-8.9l2.4,0.1
			c-0.1,1.8,0.2,5.8,1.8,6.6c0.9,0.5,2.5-0.1,4.6-1.8l0,0c0,0,6.7-6.7,5.3-12c-1.6-6.4,5.8-15.5,8.2-18.6l0.3-0.3l2,1.5l-0.3,0.5
			c-7.5,9.2-8.3,14-7.7,16.4C50.5,105.4,47.4,110.4,45.2,113z" />
		<path class="st0" d="M19.7,88.1l0.9,7.9l7.3,4.9l9.8-1l6-6.4l-0.9-7.9L19.7,88.1z" />
		<g>
			<path class="st0"
				d="M37.6,99.7l-9.8,1l2.1,8.7l7.7-0.9V99.7L37.6,99.7z M44.6,79l0.8,7.2l-28.2,3.2l-0.8-7.2L44.6,79z" />
		</g>
	</g>
		<path class="st0" d="M66.7,0C46.5,0,30.1,16.4,30.1,36.6c0,27.6,30.8,42,34.5,81.4c0.1,1.2,1,2,2.2,2c1.2,0,2.1-0.8,2.2-2
		c3.7-39.4,34.5-53.8,34.5-81.4C103.3,16.2,86.9,0,66.7,0z M78.4,34.7L64.3,59V40.8h-6V18.7c0,0,20.2,0,20.1-0.1l-8.1,16.2H78.4z" />
</g>
</svg>
