<?xml version="1.0" encoding="utf-8"?><!-- Generator: Adobe Illustrator 23.0.1, SVG Export Plug-In . SVG Version: 6.00 Build 0)  -->
<svg version="1.1" id="Ebene_1" xmlns="http://www.w3.org/2000/svg" x="0px" y="0px"
	viewBox="0 0 360 200" style="enable-background:new 0 0 360 200;" xml:space="preserve">
<style type="text/css">
	.st0{fill:#A5A4AA;}
	.st1{fill:#FFFFFF;}
	.st2{fill:#454B55;}
	.st3{fill:#7CA5C7;}
	.st4{fill:#7CA4C5;}
	.st5{fill:#86CBC4;}
	.st6{fill:#039F96;}
	.st7{fill:#3F4B55;}
	.st8{fill:#444C55;}
	.st9{fill:#E5E5E4;}
	.st10{fill:#98BED8;}
	.st11{fill:#EC6678;}
	.st12{fill:#D95C6C;}
	.st13{fill:#E9EEF4;}
	.st14{fill:#687078;}
	.st15{fill:#EF7879;}
	.st16{opacity:0.2;fill:#020203;enable-background:new    ;}
	.st17{fill:#C1D777;}
	.st18{fill:#C7C7C6;}
	.st19{fill:#93CEBF;}
	.st20{fill:#FFDE78;}
	.st21{fill:#EDA975;}
	.st22{fill:#F5EAA1;}
</style>
	<g>
	<path class="st0" d="M47.7,59.7l3,3l-1.9,1.9l7.6,7.6l3.7-3.7l-7.6-7.6l-1.8,1.8" />
		<path class="st1"
			d="M51.1,130.2L13.4,92.5c-2.1-2.1-2.1-5.4,0-7.5L32,66.3c2-2,5.4-2,7.5,0L77.2,104" />
		<path class="st1" d="M46.3,85.9L32.9,99.3c-1,1-2.7,1-3.7,0l-8.7-8.7c-1-1-1-2.7,0-3.7l13.4-13.4c1-1,2.7-1,3.7,0l8.7,8.7
		C47.4,83.2,47.3,84.9,46.3,85.9z" />
		<path class="st2" d="M78.5,105.3c-0.7,0.7-1.9,0.7-2.6,0L38.2,67.7c-1.3-1.3-3.6-1.4-4.9,0L14.7,86.3c-1.3,1.3-1.3,3.5,0,4.9
		l37.7,37.7c0.7,0.7,0.7,1.9,0,2.6c-0.7,0.7-1.9,0.7-2.6,0L12.1,93.8c-2.8-2.8-2.8-7.3,0-10.1L30.7,65c2.8-2.8,7.3-2.8,10.1,0
		l37.7,37.7C79.2,103.5,79.2,104.6,78.5,105.3z" />
		<path class="st3" d="M46.3,85.9L32.9,99.3c-1,1-2.7,1-3.7,0l-8.7-8.7c-1-1-1-2.7,0-3.7l13.4-13.4c1-1,2.7-1,3.7,0l8.7,8.7
		C47.4,83.2,47.3,84.9,46.3,85.9z" />
		<path class="st2" d="M47.6,87.2l-13.4,13.4c-1.7,1.7-4.6,1.7-6.3,0l-8.7-8.7c-1.7-1.7-1.7-4.6,0-6.3l13.4-13.4
		c1.7-1.7,4.6-1.7,6.3,0l8.7,8.7C49.4,82.6,49.4,85.4,47.6,87.2z M21.8,88.2c-0.3,0.3-0.3,0.8,0,1.1l8.7,8.7c0.3,0.3,0.8,0.3,1.1,0
		L45,84.6c0.3-0.3,0.3-0.8,0-1.1l-8.7-8.7c-0.3-0.3-0.8-0.3-1.1,0L21.8,88.2z M82.2,101.6l-33.5,33.5c-0.7,0.7-1.9,0.7-2.6,0
		c-0.7-0.7-0.7-1.9,0-2.6L79.6,99c0.7-0.7,1.9-0.7,2.6,0S82.9,100.9,82.2,101.6z M80.3,95.9c-1.7,1.7-4.6,1.7-6.3,0L58.9,80.9
		c-0.3-0.3-0.8-0.3-1.1,0l-1.9,1.9c-0.7,0.7-1.9,0.7-2.6,0c-0.7-0.7-0.7-1.9,0-2.6l1.9-1.9c1.7-1.7,4.6-1.7,6.3,0l15.1,15.1
		c0.3,0.3,0.8,0.3,1.1,0c0.3-0.3,0.3-0.8,0-1.1L57,71.5c-0.7-0.7-0.7-1.9,0-2.6s1.9-0.7,2.6,0l20.7,20.7C82,91.3,82,94.2,80.3,95.9z
		" />
		<path class="st2" d="M61.4,69.7l-3.7,3.7c-0.7,0.7-1.9,0.7-2.6,0l-7.6-7.6c-0.7-0.7-0.7-1.9,0-2.6l0.6-0.6L46.4,61
		c-0.7-0.7-0.7-1.9,0-2.6s1.9-0.7,2.6,0l1.7,1.7l0.5-0.5c0.7-0.7,1.9-0.7,2.6,0l7.5,7.5C62,67.8,62.1,69,61.4,69.7z M56.4,69.5
		l1.1-1.1l-4.9-4.9l-1.1,1.1L56.4,69.5z" />
		<g>
		<path class="st4" d="M57.6,114.1c-0.2,0.2-0.5,0.4-0.9,0.5c-1,0.2-2-0.4-2.2-1.3l-1.3-5.7l-1.3,1.9c-0.4,0.6-1.1,0.9-1.8,0.7
			c-0.7-0.2-1.3-0.7-1.4-1.4l-2.3-9.5c-0.2-1,0.4-2,1.3-2.2c1-0.2,2,0.4,2.2,1.3l1.3,5.7l1.3-1.9c0.4-0.6,1.1-0.9,1.8-0.7
			c0.7,0.2,1.3,0.7,1.4,1.4l2.2,9.5C58.2,113.1,58,113.7,57.6,114.1z" />
	</g>
</g>
	<g>
	<path class="st1" d="M29.9,146.1l24,24c1,1,1,2.5,0,3.5l-14.1,14.1c-1,1-2.5,1-3.5,0l-24-24c-1-1-1-2.5,0-3.5l14.1-14.1
		C27.4,145.1,28.9,145.1,29.9,146.1z M11.5,152.4l7.1-7.1l4.2,4.2l-7.1,7.1L11.5,152.4z" />
		<path class="st5" d="M37,153.1l17,17c1,1,1,2.5,0,3.5l-14.1,14.1c-1,1-2.5,1-3.5,0l-17-17c-1-1-1-2.5,0-3.5l14.1-14.1
		C34.4,152.1,36,152.1,37,153.1z" />
		<path class="st6" d="M50.4,170.1L50.4,170.1c1-1,1-2.5,0-3.5L37,153.1c-1-1-2.5-1-3.5,0l-1.8,1.8l15.2,15.2
		C47.9,171.1,49.4,171.1,50.4,170.1z" />
		<path class="st7" d="M55,174.7l-14.1,14.1c-1.6,1.6-4.1,1.6-5.7,0l-24-24c-1.6-1.6-1.6-4.1,0-5.7L25.3,145c1.6-1.6,4.1-1.6,5.7,0
		l24,24C56.6,170.6,56.6,173.1,55,174.7z M13.3,161.3c-0.4,0.4-0.4,1,0,1.4l24,24c0.4,0.4,1,0.4,1.4,0l14.1-14.1
		c0.4-0.4,0.4-1,0-1.4l-24-24c-0.4-0.4-1-0.4-1.4,0L13.3,161.3z" />
		<path class="st1" d="M39.1,183.5c-0.6,0.6-1.5,0.6-2.1,0l-8.8-8.8c-0.6-0.6-0.6-1.5,0-2.1c0.6-0.6,1.5-0.6,2.1,0l8.8,8.8
		C39.7,182,39.7,182.9,39.1,183.5z M25,169.4c-0.3,0.3-0.7,0.5-1.1,0.4c-0.4,0-0.8-0.1-1.1-0.4c-0.3-0.3-0.5-0.7-0.4-1.1
		c0-0.1,0-0.2,0-0.3c0-0.1,0-0.2,0.1-0.3s0.1-0.2,0.1-0.3c0.3-0.4,0.7-0.7,1.2-0.7c0.4,0,0.8,0.1,1.1,0.4c0.1,0.1,0.1,0.1,0.2,0.2
		c0.1,0.1,0.1,0.2,0.1,0.3c0,0.1,0.1,0.2,0.1,0.3c0,0.1,0,0.2,0,0.3C25.4,168.7,25.2,169.1,25,169.4z" />
		<path class="st7" d="M23.9,150.6c-0.6,0.6-1.5,0.6-2.1,0l-3.2-3.2l-4.9,4.9l0.4,0.4c0.6,0.6,0.6,1.5,0,2.1s-1.5,0.6-2.1,0l-1.4-1.4
		c-0.6-0.6-0.6-1.5,0-2.1l7.1-7.1c0.6-0.6,1.5-0.6,2.1,0l4.2,4.2C24.5,149.1,24.5,150,23.9,150.6z" />
</g>
	<g>
	<path class="st1" d="M117.2,186.9l-1.1,1.1l-35.4-35.4l25.8-25.8c1.9-1.9,5.1-1.9,7.1,0l24.7,24.7l0,0
		C137.2,161.8,124.5,179.6,117.2,186.9z" />
		<path class="st5" d="M103.2,148.4l16.9-4.1c0.6-0.1,0.9,0.6,0.4,0.9l-10,6.6l3.4,3.4c0.3,0.3,0.1,0.8-0.3,0.8l-15.4,2.4
		c-0.5,0.1-0.8-0.6-0.4-0.9l8.3-5.1l-3.3-3.3C102.8,148.9,102.9,148.5,103.2,148.4z" />
		<path class="st8" d="M131.7,166.8l-5.3-5.3c-2.5-2.5-2.5-6.6,0-9.2l2.8-2.8c0.6-0.6,1.5-0.6,2.1,0c0.6,0.6,0.6,1.5,0,2.1l-2.8,2.8
		c-1.4,1.4-1.4,3.6,0,4.9l5.3,5.3c0.6,0.6,0.6,1.5,0,2.1S132.2,167.3,131.7,166.8z" />
		<path class="st8" d="M115.1,189l-35.4-35.4c-0.6-0.6-0.6-1.5,0-2.1l25.8-25.8c2.5-2.5,6.6-2.5,9.2,0l24.7,24.7c0,0,0,0,0,0l2.8,2.8
		c0.6,0.6,0.6,1.5,0,2.1s-1.5,0.6-2.1,0l-0.8-0.8c-2.9,11-14.6,26.8-21.1,33.3l-1.1,1.1C116.6,189.6,115.6,189.6,115.1,189z
		 M82.9,152.6l33.2,33.2c7.6-7.6,19.2-24.3,20.7-33.8l-24.2-24.2c-1.4-1.4-3.6-1.4-4.9,0C107.6,127.9,82.9,152.6,82.9,152.6z" />
		<path class="st8" d="M115.1,189l-36.8-36.8c-0.6-0.6-0.6-1.5,0-2.1c0.6-0.6,1.5-0.6,2.1,0l36.8,36.8c0.6,0.6,0.6,1.5,0,2.1
		C116.6,189.6,115.6,189.6,115.1,189z" />
		<path class="st1" d="M88.3,156.3c-1.9-1.9-4.9-1.9-6.8,0s-1.9,4.9,0,6.8c0,0,0,0,0,0c1.9,1.9,4.9,1.9,6.8,0S90.2,158.1,88.3,156.3
		C88.3,156.3,88.3,156.3,88.3,156.3z M110.9,178.9c-1.9-1.9-4.9-1.9-6.8,0c-1.9,1.9-1.9,4.9,0,6.8c0,0,0,0,0,0
		c1.9,1.9,4.9,1.9,6.8,0C112.8,183.8,112.8,180.8,110.9,178.9C110.9,178.9,110.9,178.9,110.9,178.9z" />
		<path class="st8" d="M80.4,164.1c-2.5-2.5-2.4-6.5,0-8.9c2.4-2.4,6.5-2.4,8.9,0c2.4,2.4,2.4,6.5,0,8.9
		C86.9,166.6,82.9,166.6,80.4,164.1z M87.2,157.3c-1.3-1.3-3.4-1.3-4.7,0c-1.3,1.3-1.3,3.4,0,4.7c1.3,1.3,3.4,1.3,4.7,0
		C88.5,160.7,88.5,158.6,87.2,157.3z" />
		<g>
		<path class="st8" d="M103.1,186.7c-2.5-2.5-2.4-6.5,0-8.9s6.5-2.4,8.9,0c2.5,2.5,2.4,6.5,0,8.9
			C109.5,189.2,105.5,189.2,103.1,186.7z M109.9,180c-1.3-1.3-3.4-1.3-4.7,0c-1.3,1.3-1.3,3.4,0,4.7c1.3,1.3,3.4,1.3,4.7,0
			S111.2,181.3,109.9,180z" />
	</g>
		<g>
		<path class="st8" d="M103.1,186.7L73.4,157c-0.6-0.6-0.6-1.5,0-2.1c0.6-0.6,1.5-0.6,2.1,0l29.7,29.7c0.6,0.6,0.6,1.5,0,2.1
			C104.6,187.3,103.7,187.3,103.1,186.7z" />
	</g>
		<g>
		<path class="st8" d="M68.4,152.1c-0.1-0.1-0.1-0.1-0.2-0.2s-0.1-0.2-0.1-0.3s-0.1-0.2-0.1-0.3c0-0.1,0-0.2,0-0.3
			c0-0.1,0-0.2,0-0.3c0-0.1,0-0.2,0.1-0.3c0.1,0,0.1-0.1,0.2-0.2s0.1-0.2,0.2-0.2s0.1-0.1,0.2-0.2c0.1-0.1,0.2-0.1,0.3-0.1
			s0.2,0,0.3-0.1s0.2,0,0.3,0c0.1,0,0.2,0,0.3,0c0.1,0,0.2,0,0.3,0.1c0.1,0,0.2,0.1,0.3,0.1c0.2,0.1,0.3,0.2,0.4,0.4
			c0.1,0.1,0.1,0.2,0.1,0.3s0.1,0.2,0.1,0.3c0,0.1,0,0.2,0,0.3c0,0.1,0,0.2,0,0.3c0,0.1,0,0.2-0.1,0.3s-0.1,0.2-0.1,0.3
			c-0.1,0.1-0.1,0.2-0.2,0.2s-0.1,0.1-0.2,0.2c-0.1,0.1-0.2,0.1-0.3,0.1c-0.1,0-0.2,0.1-0.3,0.1c-0.1,0-0.2,0-0.3,0
			c-0.1,0-0.2,0-0.3,0s-0.2,0-0.3-0.1c-0.1,0-0.2-0.1-0.3-0.1C68.6,152.3,68.5,152.2,68.4,152.1z" />
	</g>
</g>
	<g>
	<path class="st1" d="M336.4,33.8l-13.6,13.6c-1.9,1.9-5.1,1.9-7.1,0l-13.8-13.8c-1.9-1.9-1.9-5.1,0-7.1L315.5,13
		c1.9-1.9,5.1-1.9,7.1,0l13.8,13.8C338.3,28.7,338.3,31.9,336.4,33.8z" />
		<path class="st2" d="M337.4,34.9l-13.6,13.6c-2.5,2.5-6.6,2.5-9.2,0l-13.8-13.8c-2.5-2.5-2.5-6.6,0-9.2l13.6-13.6
		c2.5-2.5,6.6-2.5,9.2,0l13.8,13.8C340,28.2,340,32.3,337.4,34.9z M303,27.6c-1.4,1.4-1.4,3.6,0,4.9l13.8,13.8
		c1.4,1.4,3.6,1.4,4.9,0l13.6-13.6c1.4-1.4,1.4-3.6,0-4.9L321.5,14c-1.4-1.4-3.6-1.4-4.9,0L303,27.6z" />
		<path class="st9" d="M325.4,36.4L325.4,36.4c-3.4,3.4-9,3.4-12.4,0l-0.1-0.1c-3.4-3.4-3.4-9,0-12.4l0,0c3.4-3.4,9-3.4,12.4,0
		l0.1,0.1C328.8,27.5,328.8,33,325.4,36.4z" />
		<path class="st2" d="M326.5,37.5c-4,4-10.5,4-14.5,0l-0.1-0.1c-4-4-4-10.5,0-14.5s10.5-4,14.5,0l0.1,0.1
		C330.5,27,330.5,33.5,326.5,37.5z M314,25c-2.8,2.8-2.8,7.4,0,10.3l0.1,0.1c2.8,2.8,7.4,2.8,10.3,0c2.8-2.8,2.8-7.4,0-10.3
		l-0.1-0.1C321.4,22.2,316.8,22.2,314,25z" />
		<path class="st2" d="M315.3,31.5c-0.7,0.7-0.7,1.8,0,2.5c0.7,0.7,1.8,0.7,2.5,0c0,0,0,0,0,0c0.7-0.7,0.7-1.8,0-2.5
		C317.2,30.8,316,30.8,315.3,31.5C315.3,31.5,315.3,31.5,315.3,31.5z M320.4,26.4c-0.7,0.7-0.7,1.8,0,2.5s1.8,0.7,2.5,0c0,0,0,0,0,0
		c0.7-0.7,0.7-1.8,0-2.5C322.3,25.7,321.1,25.7,320.4,26.4C320.4,26.4,320.4,26.4,320.4,26.4z" />
		<path class="st1"
			d="M341.7,43.3l3.8,3.8c2.6,2.6,2.6,6.8,0,9.4l0,0c-2.6,2.6-6.8,2.6-9.4,0l-3.8-3.8L341.7,43.3z" />
		<path class="st2" d="M346.6,57.6c-3.2,3.2-8.3,3.2-11.5,0l-3.1-3.1c-0.6-0.6-0.6-1.5,0-2.1c0.6-0.6,1.5-0.6,2.1,0l3.1,3.1
		c2,2,5.3,2,7.3,0c2-2,2-5.3,0-7.3l-3.1-3.1c-0.6-0.6-0.6-1.5,0-2.1c0.6-0.6,1.5-0.6,2.1,0l3.1,3.1
		C349.8,49.3,349.8,54.4,346.6,57.6z" />
		<path class="st2" d="M335.1,51.8c-0.6,0.6-1.5,0.6-2.1,0l-3.3-3.3c-0.6-0.6-0.6-1.5,0-2.1c0.6-0.6,1.5-0.6,2.1,0l3.3,3.3
		C335.7,50.3,335.7,51.2,335.1,51.8z M340.8,46.2c-0.6,0.6-1.5,0.6-2.1,0l-3.3-3.3c-0.6-0.6-0.6-1.5,0-2.1s1.5-0.6,2.1,0l3.3,3.3
		C341.4,44.6,341.4,45.6,340.8,46.2z" />
		<path class="st2" d="M344.1,43.1l-12,12c-0.6,0.6-1.5,0.6-2.1,0s-0.6-1.5,0-2.1l12-12c0.6-0.6,1.5-0.6,2.1,0S344.7,42.5,344.1,43.1
		z M349.6,60.6c-0.6,0.6-1.5,0.6-2.1,0l-3-3c-0.6-0.6-0.6-1.5,0-2.1c0.6-0.6,1.5-0.6,2.1,0l3,3C350.1,59,350.2,60,349.6,60.6z" />
		<g>
		<path class="st10" d="M339.8,50.8c-0.5,0.5-0.5,1.4,0,1.9c0.5,0.5,1.4,0.5,1.9,0c0,0,0,0,0,0c0.5-0.5,0.5-1.4,0-1.9
			C341.2,50.3,340.3,50.3,339.8,50.8C339.8,50.8,339.8,50.8,339.8,50.8z" />
	</g>
</g>
	<g>
	<path class="st11" d="M171,149l34.3,34.3l3.8-3.8c2.1-2.1,2.1-5.5,0-7.6l-13.6-13.6l-0.6-0.2c-2.3-0.8-3-3.7-1.3-5.5l-1.2-1.2
		C186.3,145.2,179.1,145.5,171,149" />
		<path class="st12" d="M182,146.6C181.9,146.6,181.9,146.6,182,146.6c-0.4-0.1-0.7-0.1-1-0.1c-3.1,0.1-6.4,1-9.9,2.4l0,0l10.9,10.9
		C185.6,156.3,185.6,150.3,182,146.6 M210.7,175.6c-3.6-2.7-8.8-2.4-12.2,0.9l6.8,6.8l3.8-3.8C210.2,178.4,210.7,177,210.7,175.6" />
		<path class="st2" d="M204.3,184.4L170,150c-0.4-0.4-0.5-0.8-0.4-1.3c0.1-0.5,0.4-0.9,0.9-1.1c9.8-4.2,17.1-3.3,23.1,2.8l0.1,0.1
		c0.6,0.6,0.6,1.5,0,2.1c-0.6,0.6-1.5,0.6-2.1,0l-0.1-0.1c-4.7-4.7-10.3-5.7-17.8-2.9l31.6,31.6l2.8-2.8c1.5-1.5,1.5-4,0-5.5
		l-12.1-12.1c-0.4-0.4-0.5-0.8-0.4-1.3l0.6-3.8c0.1-0.8,0.9-1.4,1.7-1.2c0.8,0.1,1.4,0.9,1.2,1.7l-0.5,3l11.6,11.6
		c2.7,2.7,2.7,7.1,0,9.8l-3.8,3.8C205.8,185,204.9,184.9,204.3,184.4z" />
		<path class="st1" d="M179.1,149.4c-2.1-2.1-5.5-2.1-7.6,0c-2.1,2.1-2.1,5.5,0,7.6c0,0,0,0,0,0c2.1,2.1,5.5,2.1,7.6,0
		C181.3,155,181.3,151.6,179.1,149.4C179.1,149.4,179.1,149.4,179.1,149.4z M198.9,164.9c-1.2-1.2-3.1-1.2-4.2,0s-1.2,3.1,0,4.2
		s3.1,1.2,4.2,0C200.1,168,200.1,166.1,198.9,164.9z" />
		<path class="st2" d="M170.4,158.1c-2.7-2.7-2.7-7.1,0-9.8c2.7-2.7,7.1-2.7,9.8,0c2.7,2.7,2.7,7.1,0,9.8
		C177.5,160.8,173.1,160.8,170.4,158.1z M178.1,150.5c-1.5-1.5-4-1.5-5.5,0s-1.5,4,0,5.5s4,1.5,5.5,0
		C179.6,154.5,179.6,152,178.1,150.5z" />
		<path class="st1" d="M209,179.3c-2.1-2.1-5.5-2.1-7.6,0c-2.1,2.1-2.1,5.5,0,7.6c0,0,0,0,0,0c2.1,2.1,5.5,2.1,7.6,0
		C211.1,184.8,211.1,181.4,209,179.3C209,179.3,209,179.3,209,179.3z" />
		<path class="st2" d="M200.3,188c-2.7-2.7-2.7-7.1,0-9.8c2.7-2.7,7.1-2.7,9.8,0c2.7,2.7,2.7,7.1,0,9.8
		C207.4,190.7,203,190.7,200.3,188z M207.9,180.3c-1.5-1.5-4-1.5-5.5,0s-1.5,4,0,5.5c1.5,1.5,4,1.5,5.5,0
		C209.4,184.3,209.4,181.9,207.9,180.3z" />
		<path class="st2" d="M200.3,188l-34.5-34.5c-0.6-0.6-0.6-1.5,0-2.1s1.5-0.6,2.1,0l34.5,34.5c0.6,0.6,0.6,1.5,0,2.1
		C201.8,188.6,200.9,188.6,200.3,188z M161.6,149.3c-0.3-0.3-0.5-0.7-0.4-1.1c0-0.4,0.1-0.8,0.4-1.1c0.3-0.3,0.7-0.5,1.1-0.4
		c0.8,0,1.5,0.7,1.5,1.5c0,0.4-0.1,0.8-0.4,1.1c-0.3,0.3-0.7,0.5-1.1,0.4C162.2,149.7,161.9,149.6,161.6,149.3z" />
</g>
	<g>
	<path class="st1"
		d="M107.9,26.1L95.6,13.7c-2.7-2.7-7-2.9-9.9-0.6l-9,7.1l24.7,24.7l7.1-8.9C110.9,33,110.6,28.7,107.9,26.1z" />
		<path class="st13"
			d="M107.9,26.1l-6.2-6.2L89,32.6l12.4,12.4l7.1-8.9C110.9,33,110.6,28.7,107.9,26.1z" />
		<path class="st14" d="M78.7,18.1l24.7,24.7l-12,12L66.7,30.1L78.7,18.1z" />
		<path class="st8" d="M91.1,30.4l12.4,12.4l-12,12L79.1,42.5L91.1,30.4z" />
		<path class="st14" d="M76.6,20.2L76.6,20.2c-1.9-1.9-5.1-1.9-7.1,0l-6.4,6.4l7.1,7.1l6.4-6.4C78.6,25.3,78.6,22.1,76.6,20.2z
		 M95,58.4l6.4-6.4c1.9-1.9,1.9-5.1,0-7.1l0,0c-1.9-1.9-5.1-1.9-7.1,0l-6.4,6.4" />
		<path class="st8" d="M69.2,34.7c-0.6-0.6-0.6-1.5,0-2.1l6.4-6.4c1.4-1.4,1.4-3.6,0-4.9c-1.4-1.4-3.6-1.4-4.9,0l-6.4,6.4
		c-0.6,0.6-1.5,0.6-2.1,0c-0.6-0.6-0.6-1.5,0-2.1l6.4-6.4c2.5-2.5,6.6-2.5,9.2,0s2.5,6.6,0,9.2l-6.4,6.4
		C70.7,35.3,69.8,35.3,69.2,34.7z M93.9,59.4c-0.6-0.6-0.6-1.5,0-2.1l6.4-6.4c1.4-1.4,1.4-3.6,0-4.9s-3.6-1.4-4.9,0L89,52.4
		c-0.6,0.6-1.5,0.6-2.1,0c-0.6-0.6-0.6-1.5,0-2.1l6.4-6.4c2.5-2.5,6.6-2.5,9.2,0c2.5,2.5,2.5,6.6,0,9.2l-6.4,6.4
		C95.5,60,94.5,60,93.9,59.4z" />
		<path class="st8" d="M101.8,43.8c0,0-0.1-0.1-0.1-0.1C95,34.6,87,26.6,78,19.9c-0.6-0.5-0.8-1.4-0.3-2.1c0.5-0.6,1.4-0.8,2.1-0.3
		c9.3,6.9,17.5,15.1,24.4,24.4c0.5,0.6,0.4,1.6-0.3,2.1C103.2,44.3,102.4,44.3,101.8,43.8z" />
		<path class="st8" d="M75.6,21.2c0,0-0.1-0.1-0.1-0.1c-0.5-0.6-0.4-1.6,0.2-2.1l9-7.1c3.6-2.8,8.7-2.5,12,0.7L109,25
		c3.3,3.3,3.5,8.4,0.7,12l-7.1,8.9c-0.5,0.6-1.4,0.7-2.1,0.2c-0.7-0.5-0.7-1.4-0.2-2.1l7.1-8.9c1.9-2.4,1.7-5.8-0.4-8L94.5,14.7
		c-2.2-2.2-5.6-2.4-8-0.5l-9,7.1C76.9,21.9,76.1,21.8,75.6,21.2z M92.9,56.3l-4.9,4.9l-2.8-2.8l4.9-4.9 M68.1,31.5l-4.9,4.9
		l-2.8-2.8l4.9-4.9" />
		<path class="st8" d="M86.9,62.3L84,59.4c-0.6-0.6-0.6-1.5,0-2.1l4.9-4.9c0.6-0.6,1.5-0.6,2.1,0c0.6,0.6,0.6,1.5,0,2.1l-3.9,3.9
		l0.7,0.7l3.9-3.9c0.6-0.6,1.5-0.6,2.1,0c0.6,0.6,0.6,1.5,0,2.1L89,62.3C88.4,62.9,87.5,62.9,86.9,62.3z M62.1,37.5l-2.8-2.8
		c-0.6-0.6-0.6-1.5,0-2.1l4.9-4.9c0.6-0.6,1.5-0.6,2.1,0c0.6,0.6,0.6,1.5,0,2.1l-3.9,3.9l0.7,0.7l3.9-3.9c0.6-0.6,1.5-0.6,2.1,0
		c0.6,0.6,0.6,1.5,0,2.1l-4.9,4.9C63.6,38.1,62.7,38.1,62.1,37.5z" />
		<path class="st8" d="M95,60.5L61.1,26.6c-0.6-0.6-0.6-1.5,0-2.1s1.5-0.6,2.1,0l33.9,33.9c0.6,0.6,0.6,1.5,0,2.1
		C96.5,61.1,95.6,61.1,95,60.5z" />
		<path class="st1" d="M84.2,43.3l-5.9-5.9c-0.6-0.6-0.6-1.5,0-2.1l3.5-3.5c2.2-2.2,5.8-2.2,8.1,0l0,0c2.2,2.2,2.2,5.8,0,8.1
		l-3.5,3.5C85.7,43.9,84.8,43.9,84.2,43.3z" />
		<path class="st8" d="M106.3,22.3l-1.1,1.1l-7.1-7.1l1.1-1.1l0,0c1.2-1.2,3.1-1.2,4.2,0l2.8,2.8C107.5,19.2,107.5,21.1,106.3,22.3
		L106.3,22.3z" />
		<path class="st1" d="M74.9,22c-1-1-2.6-1-3.5,0c-1,1-1,2.6,0,3.5c1,1,2.6,1,3.5,0C75.8,24.5,75.8,22.9,74.9,22z M99.6,46.7
		c-1-1-2.6-1-3.5,0s-1,2.6,0,3.5s2.6,1,3.5,0S100.6,47.7,99.6,46.7z" />
		<path class="st8" d="M89,64.4L59.4,34.8c-0.6-0.6-0.6-1.5,0-2.1c0.6-0.6,1.5-0.6,2.1,0l29.6,29.6c0.6,0.6,0.6,1.5,0,2.1
		C90.5,65,89.6,65,89,64.4z M96.4,67.6c-0.6-0.6-1.5-0.6-2.1,0c-0.6,0.6-0.6,1.5,0,2.1s1.5,0.6,2.1,0C97,69.1,97,68.2,96.4,67.6z" />
</g>
	<g>
	<path class="st1" d="M139.1,66.4l24,24c1,1,1,2.5,0,3.5l-14.1,14.1c-1,1-2.5,1-3.5,0l-24-24c-1-1-1-2.5,0-3.5l14.1-14.1
		C136.5,65.4,138.1,65.4,139.1,66.4z M120.7,72.7l7.1-7.1l4.2,4.2l-7.1,7.1L120.7,72.7z" />
		<path class="st5" d="M146.1,73.4l17,17c1,1,1,2.5,0,3.5l-14.1,14.1c-1,1-2.5,1-3.5,0l-17-17c-1-1-1-2.5,0-3.5l14.1-14.1
		C143.6,72.4,145.1,72.4,146.1,73.4z" />
		<path class="st6" d="M159.6,90.4L159.6,90.4c1-1,1-2.5,0-3.5l-13.4-13.4c-1-1-2.5-1-3.5,0l-1.8,1.8L156,90.4
		C157,91.4,158.6,91.4,159.6,90.4z" />
		<path class="st7" d="M164.2,95L150,109.1c-1.6,1.6-4.1,1.6-5.7,0l-24-24c-1.6-1.6-1.6-4.1,0-5.7l14.1-14.1c1.6-1.6,4.1-1.6,5.7,0
		l24,24C165.7,90.9,165.7,93.4,164.2,95z M122.4,81.6c-0.4,0.4-0.4,1,0,1.4l24,24c0.4,0.4,1,0.4,1.4,0L162,92.9c0.4-0.4,0.4-1,0-1.4
		l-24-24c-0.4-0.4-1-0.4-1.4,0L122.4,81.6z" />
		<path class="st1" d="M148.2,103.8c-0.6,0.6-1.5,0.6-2.1,0l-8.8-8.8c-0.6-0.6-0.6-1.5,0-2.1c0.6-0.6,1.5-0.6,2.1,0l8.8,8.8
		C148.8,102.3,148.8,103.2,148.2,103.8z M134.1,89.7c-0.3,0.3-0.7,0.5-1.1,0.4c-0.4,0-0.8-0.1-1.1-0.4c-0.3-0.3-0.5-0.7-0.4-1.1
		c0-0.1,0-0.2,0-0.3c0-0.1,0-0.2,0.1-0.3s0.1-0.2,0.1-0.3c0.3-0.4,0.7-0.7,1.2-0.7c0.4,0,0.8,0.1,1.1,0.4c0.1,0.1,0.1,0.1,0.2,0.2
		c0.1,0.1,0.1,0.2,0.1,0.3s0.1,0.2,0.1,0.3c0,0.1,0,0.2,0,0.3C134.6,89,134.4,89.4,134.1,89.7z" />
		<path class="st7" d="M133,71c-0.6,0.6-1.5,0.6-2.1,0l-3.2-3.2l-4.9,4.9l0.4,0.4c0.6,0.6,0.6,1.5,0,2.1c-0.6,0.6-1.5,0.6-2.1,0
		l-1.4-1.4c-0.6-0.6-0.6-1.5,0-2.1l7.1-7.1c0.6-0.6,1.5-0.6,2.1,0l4.2,4.2C133.6,69.4,133.6,70.4,133,71z" />
</g>
	<g>
	<path class="st0" d="M315,113.9l3,3l-1.9,1.9l7.6,7.6l3.7-3.7l-7.6-7.6l-1.8,1.8" />
		<path class="st1"
			d="M318.3,184.5l-37.7-37.7c-2.1-2.1-2.1-5.4,0-7.5l18.7-18.7c2-2,5.4-2,7.5,0l37.7,37.7" />
		<path class="st1" d="M313.6,140.2l-13.4,13.4c-1,1-2.7,1-3.7,0l-8.7-8.7c-1-1-1-2.7,0-3.7l13.4-13.4c1-1,2.7-1,3.7,0l8.7,8.7
		C314.6,137.5,314.6,139.2,313.6,140.2z" />
		<path class="st2" d="M345.7,159.6c-0.7,0.7-1.9,0.7-2.6,0L305.5,122c-1.3-1.3-3.6-1.4-4.9,0l-18.7,18.7c-1.3,1.3-1.3,3.5,0,4.9
		l37.7,37.7c0.7,0.7,0.7,1.9,0,2.6c-0.7,0.7-1.9,0.7-2.6,0l-37.7-37.7c-2.8-2.8-2.8-7.3,0-10.1l18.7-18.7c2.8-2.8,7.3-2.8,10.1,0
		l37.7,37.7C346.5,157.8,346.4,158.9,345.7,159.6z" />
		<path class="st3" d="M313.6,140.2l-13.4,13.4c-1,1-2.7,1-3.7,0l-8.7-8.7c-1-1-1-2.7,0-3.7l13.4-13.4c1-1,2.7-1,3.7,0l8.7,8.7
		C314.6,137.5,314.6,139.2,313.6,140.2z" />
		<path class="st2" d="M314.9,141.5l-13.4,13.4c-1.7,1.7-4.6,1.7-6.3,0l-8.7-8.7c-1.7-1.7-1.7-4.6,0-6.3l13.4-13.4
		c1.7-1.7,4.6-1.7,6.3,0l8.7,8.7C316.6,136.9,316.6,139.7,314.9,141.5z M289.1,142.5c-0.3,0.3-0.3,0.8,0,1.1l8.7,8.7
		c0.3,0.3,0.8,0.3,1.1,0l13.4-13.4c0.3-0.3,0.3-0.8,0-1.1l-8.7-8.7c-0.3-0.3-0.8-0.3-1.1,0L289.1,142.5z M349.5,155.9l-33.5,33.5
		c-0.7,0.7-1.9,0.7-2.6,0c-0.7-0.7-0.7-1.9,0-2.6l33.5-33.5c0.7-0.7,1.9-0.7,2.6,0C350.2,154,350.2,155.2,349.5,155.9z M347.5,150.2
		c-1.7,1.7-4.6,1.7-6.3,0l-15.1-15.1c-0.3-0.3-0.8-0.3-1.1,0l-1.9,1.9c-0.7,0.7-1.9,0.7-2.6,0c-0.7-0.7-0.7-1.9,0-2.6l1.9-1.9
		c1.7-1.7,4.6-1.7,6.3,0l15.1,15.1c0.3,0.3,0.8,0.3,1.1,0c0.3-0.3,0.3-0.8,0-1.1l-20.7-20.7c-0.7-0.7-0.7-1.9,0-2.6s1.9-0.7,2.6,0
		l20.7,20.7C349.2,145.6,349.2,148.5,347.5,150.2z" />
		<path class="st2" d="M328.6,124l-3.7,3.7c-0.7,0.7-1.9,0.7-2.6,0l-7.6-7.6c-0.7-0.7-0.7-1.9,0-2.6l0.6-0.6l-1.7-1.7
		c-0.7-0.7-0.7-1.9,0-2.6c0.7-0.7,1.9-0.7,2.6,0l1.7,1.7l0.5-0.5c0.7-0.7,1.9-0.7,2.6,0l7.5,7.5C329.3,122.1,329.3,123.3,328.6,124z
		 M323.6,123.8l1.1-1.1l-4.9-4.9l-1.1,1.1L323.6,123.8z" />
		<g>
		<path class="st4" d="M324.8,168.4c-0.2,0.2-0.5,0.4-0.9,0.5c-1,0.2-2-0.4-2.2-1.3l-1.3-5.7l-1.3,1.9c-0.4,0.6-1.1,0.9-1.8,0.7
			c-0.7-0.2-1.3-0.7-1.4-1.4l-2.3-9.5c-0.2-1,0.4-2,1.3-2.2c1-0.2,2,0.4,2.2,1.3l1.3,5.7l1.3-1.9c0.4-0.6,1.1-0.9,1.8-0.7
			c0.7,0.2,1.3,0.7,1.4,1.4l2.2,9.5C325.4,167.4,325.3,168,324.8,168.4z" />
	</g>
</g>
	<g>
	<path class="st15"
		d="M233.8,171.2l15.3,15.3l15.9-26.2c0.3-0.5,0.3-1.1-0.2-1.6l-3.3-3.3c-0.4-0.4-1-0.5-1.6-0.2L233.8,171.2z" />
		<path class="st1"
			d="M244.5,164.7l-6.2,3.8l13.5,13.5l0,0l3.8-6.2L244.5,164.7z M256.1,157.6l-6.2,3.8l9,9l3.8-6.2L256.1,157.6z" />
		<path class="st16"
			d="M263.6,157.4l1.3,1.3c0.4,0.4,0.5,1,0.2,1.6l-16,26.2l-3.5-3.5l18.2-24C264.1,158.4,264,157.8,263.6,157.4z" />
		<g>
		<path class="st2" d="M248.4,187.2l-15.3-15.3c-0.2-0.2-0.3-0.5-0.3-0.8c0-0.3,0.2-0.6,0.5-0.7l26.2-15.9c0.9-0.5,2-0.4,2.8,0.3
			l3.3,3.3c0.7,0.7,0.9,1.9,0.3,2.8L249.9,187c-0.2,0.3-0.4,0.4-0.7,0.5C248.9,187.5,248.6,187.4,248.4,187.2z M235.4,171.4
			l13.5,13.5l15.3-25.2c0.1-0.1,0.1-0.3,0-0.3l-3.3-3.3c-0.1-0.1-0.2-0.1-0.3,0L235.4,171.4z" />
			<path class="st2" d="M230.5,169.3c-0.4-0.4-0.4-1,0-1.4s1-0.4,1.4,0l20.4,20.4l0,0c0.4,0.4,0.4,1,0,1.4c-0.4,0.4-1,0.4-1.4,0
			L230.5,169.3L230.5,169.3z" />
	</g>
</g>
	<g>
	<path class="st17" d="M184,108.7L196.6,96c3.9-3.9,10.3-3.9,14.1,0l22.6,22.6c2.7,2.7,3.6,6.7,2.5,10.3l-0.4,1.2
		c-2.2,6.4-6.2,12.1-11.5,16.4l-2,1.7c-1.1,0.9-2.5-0.7-1.5-1.7l0,0" />
		<path class="st1" d="M226,144.4l0.1,0.1l0,0c1.2-1.2,2.4-2.6,3.5-3.9c0,0,0.1-0.1,0.1-0.1c0.2-0.2,0.4-0.5,0.5-0.7
		c0.1-0.1,0.1-0.1,0.1-0.2c0.2-0.2,0.3-0.5,0.5-0.7c0.1-0.1,0.1-0.2,0.2-0.2c0.1-0.2,0.3-0.5,0.5-0.7c0.1-0.1,0.1-0.1,0.1-0.2
		c0.3-0.5,0.6-1,0.9-1.4c0,0,0.1-0.1,0.1-0.2c0.1-0.2,0.2-0.4,0.3-0.6c0.1-0.2,0.2-0.3,0.3-0.5c0.1-0.2,0.2-0.3,0.2-0.5
		c0.1-0.2,0.2-0.4,0.3-0.6c0.1-0.1,0.2-0.3,0.2-0.5c0.1-0.2,0.2-0.4,0.3-0.6c0.1-0.1,0.1-0.3,0.2-0.5c0.1-0.2,0.2-0.5,0.3-0.7
		c0-0.1,0.1-0.2,0.1-0.4c0.1-0.4,0.2-0.7,0.4-1.1l0.4-1.2c1.2-3.6,0.2-7.6-2.5-10.3l-22.5-22.5c-3.9-3.9-10.3-3.9-14.1,0l-2.8,2.8
		l30.8,30.8C228.5,133.6,229.1,139.7,226,144.4z" />
		<path class="st18" d="M209.2,110.1l-3.5-3.5c-1-1-1-2.5,0-3.5l0.7-0.7c1-1,2.5-1,3.5,0l3.5,3.5c1,1,1,2.5,0,3.5l-0.7,0.7
		C211.7,111.1,210.2,111,209.2,110.1z M218,118.9l-3.5-3.5c-1-1-1-2.5,0-3.5l0.7-0.7c1-1,2.5-1,3.5,0l3.5,3.5c1,1,1,2.5,0,3.5
		l-0.7,0.7C220.6,119.9,219,119.9,218,118.9z M233.5,134.4c0.1-0.2,0.2-0.4,0.3-0.6c0.1-0.1,0.2-0.3,0.2-0.5
		c0.1-0.2,0.2-0.4,0.3-0.6c0.1-0.1,0.1-0.3,0.2-0.5c0.1-0.2,0.2-0.5,0.3-0.7c0-0.1,0.1-0.2,0.1-0.4c0.1-0.4,0.2-0.7,0.4-1.1l0.4-1.2
		c0.1-0.2,0.1-0.4,0.2-0.7l-8.2-8.2c-1-1-2.5-1-3.5,0l-0.8,0.8c-1,1-1,2.5,0,3.5L233.5,134.4L233.5,134.4z" />
		<path class="st2" d="M219.3,149.2c0,0-0.1-0.1-0.1-0.1c-1-1-0.9-2.6,0.1-3.6c0.6-0.6,1.5-0.6,2.1,0c0.2,0.2,0.4,0.5,0.4,0.8
		l1.1-0.9c5.1-4.1,8.8-9.6,11-15.8l0.4-1.2c1-3.1,0.2-6.4-2.1-8.7l-22.6-22.6c-3.3-3.3-8.7-3.3-12,0L185,109.7
		c-0.6,0.6-1.5,0.6-2.1,0c-0.6-0.6-0.6-1.5,0-2.1L195.5,95c4.5-4.5,11.8-4.5,16.3,0l22.6,22.6c3.1,3.1,4.2,7.6,2.8,11.8l-0.4,1.2
		c-2.3,6.7-6.4,12.6-11.9,17.1l-2,1.7C221.7,150.2,220.3,150.1,219.3,149.2z M226.7,148.6c-0.6-0.6-0.6-1.5,0-2.1l6.4-6.4
		c0.6-0.6,1.5-0.6,2.1,0c0.6,0.6,0.6,1.5,0,2.1l-6.4,6.4C228.3,149.2,227.3,149.2,226.7,148.6z" />
		<path class="st2" d="M210.8,139.1l-16.5-16.5c-0.6-0.6-0.6-1.5,0-2.1c0.6-0.6,1.5-0.6,2.1,0L213,137c0.6,0.6,0.6,1.5,0,2.1
		C212.4,139.7,211.4,139.7,210.8,139.1z M186.8,115l-5.4-5.4c-0.6-0.6-0.6-1.5,0-2.1c0.6-0.6,1.5-0.6,2.1,0l5.4,5.4
		c0.6,0.6,0.6,1.5,0,2.1C188.3,115.6,187.4,115.6,186.8,115z M236.2,117.3l-23.4-23.4c-0.6-0.6-0.6-1.5,0-2.1c0.6-0.6,1.5-0.6,2.1,0
		l23.4,23.4c0.6,0.6,0.6,1.5,0,2.1C237.7,117.9,236.8,117.9,236.2,117.3z M225.1,145.6c-0.6-0.6-0.6-1.4-0.1-2.1
		c2.7-3.1,1.9-9.3-1.6-12.8l-30.8-30.8c-0.6-0.6-0.6-1.5,0-2.1c0.6-0.6,1.5-0.6,2.1,0l30.8,30.8c4.6,4.6,5.4,12.6,1.7,16.9
		C226.7,146.1,225.8,146.2,225.1,145.6C225.1,145.6,225.1,145.6,225.1,145.6z M198.7,98.9l-2.2-2.2c-0.6-0.6-0.6-1.5,0-2.1
		s1.5-0.6,2.1,0l2.2,2.2c0.6,0.6,0.6,1.5,0,2.1C200.3,99.5,199.3,99.5,198.7,98.9z M203,97.5l-2.2-2.2c-0.6-0.6-0.6-1.5,0-2.1
		c0.6-0.6,1.5-0.6,2.1,0l2.2,2.2c0.6,0.6,0.6,1.5,0,2.1C204.5,98.1,203.6,98.1,203,97.5z" />
		<path class="st1" d="M219.2,138.5c-1.9-1.9-4.9-1.9-6.8,0c-1.9,1.9-1.9,4.9,0,6.8c0,0,0,0,0,0c1.9,1.9,4.9,1.9,6.8,0
		C221,143.4,221,140.4,219.2,138.5C219.2,138.5,219.2,138.5,219.2,138.5z" />
		<path class="st2" d="M211.3,146.4c-2.5-2.5-2.4-6.5,0-8.9c2.4-2.4,6.5-2.4,8.9,0c2.4,2.4,2.5,6.5,0,8.9
		C217.8,148.9,213.8,148.8,211.3,146.4z M218.1,139.6c-1.3-1.3-3.4-1.3-4.7,0c-1.3,1.3-1.3,3.4,0,4.7c1.3,1.3,3.4,1.3,4.7,0
		C219.4,143,219.4,140.9,218.1,139.6z" />
		<path class="st1" d="M188.2,114.3c-1.9,1.9-1.9,4.9,0,6.8c1.9,1.9,4.9,1.9,6.8,0c0.8-0.8,1.3-1.8,1.4-2.9l-5.3-5.3
		C190,113.1,189,113.5,188.2,114.3z" />
		<path class="st2" d="M187.2,122.2c-2.5-2.5-2.4-6.5,0-8.9c1-1,2.3-1.6,3.8-1.8c0.5,0,0.9,0.1,1.2,0.4l5.3,5.3
		c0.3,0.3,0.5,0.8,0.4,1.2c-0.1,1.4-0.8,2.8-1.8,3.8C193.6,124.7,189.6,124.6,187.2,122.2z M190.6,114.6c-0.5,0.1-0.9,0.4-1.3,0.8
		c-1.3,1.3-1.3,3.4,0,4.7c1.3,1.3,3.4,1.3,4.7,0c0.4-0.4,0.7-0.8,0.8-1.3L190.6,114.6z" />
		<g>
		<path class="st2" d="M217.7,98.1c-0.2-0.2-0.4-0.6-0.4-1l-0.2-5.2c0-0.8,0.6-1.5,1.4-1.6c0.8,0,1.5,0.6,1.6,1.4l0.2,5.2
			c0,0.8-0.6,1.5-1.4,1.6C218.4,98.5,218,98.3,217.7,98.1z" />
	</g>
		<g>
		<path class="st2" d="M219.3,147.6l-0.9-0.9c-0.6-0.6-0.6-1.5,0-2.1c0.6-0.6,1.5-0.6,2.1,0l0.9,0.9c0.6,0.6,0.6,1.5,0,2.1
			C220.8,148.2,219.9,148.2,219.3,147.6z" />
	</g>
</g>
	<g>
	<path class="st1" d="M194.9,72.9l-1.1,1.1l-35.4-35.4l25.8-25.8c1.9-1.9,5.1-1.9,7.1,0l24.7,24.7l0,0
		C214.9,47.8,202.2,65.6,194.9,72.9z" />
		<path class="st5" d="M181,34.4l16.9-4.1c0.6-0.1,0.9,0.6,0.4,0.9l-10,6.6l3.4,3.4c0.3,0.3,0.1,0.8-0.3,0.8L176,44.4
		c-0.5,0.1-0.8-0.6-0.4-0.9l8.3-5.1l-3.3-3.3C180.5,34.9,180.6,34.5,181,34.4z" />
		<path class="st8" d="M209.4,52.7l-5.3-5.3c-2.5-2.5-2.5-6.6,0-9.2l2.8-2.8c0.6-0.6,1.5-0.6,2.1,0s0.6,1.5,0,2.1l-2.8,2.8
		c-1.4,1.4-1.4,3.6,0,4.9l5.3,5.3c0.6,0.6,0.6,1.5,0,2.1C210.9,53.3,210,53.3,209.4,52.7z" />
		<path class="st8" d="M192.8,75l-35.4-35.4c-0.6-0.6-0.6-1.5,0-2.1l25.8-25.8c2.5-2.5,6.6-2.5,9.2,0l24.7,24.7c0,0,0,0,0,0l2.8,2.8
		c0.6,0.6,0.6,1.5,0,2.1c-0.6,0.6-1.5,0.6-2.1,0l-0.8-0.8c-2.9,11-14.6,26.8-21.1,33.3l-1.1,1.1C194.3,75.6,193.3,75.6,192.8,75z
		 M160.6,38.6l33.2,33.2c7.6-7.6,19.2-24.3,20.7-33.8l-24.2-24.2c-1.4-1.4-3.6-1.4-4.9,0C185.3,13.9,160.6,38.6,160.6,38.6z" />
		<path class="st8" d="M192.8,75L156,38.2c-0.6-0.6-0.6-1.5,0-2.1s1.5-0.6,2.1,0l36.8,36.8c0.6,0.6,0.6,1.5,0,2.1
		C194.3,75.6,193.3,75.6,192.8,75z" />
		<path class="st1" d="M166,42.2c-1.9-1.9-4.9-1.9-6.8,0c-1.9,1.9-1.9,4.9,0,6.8c0,0,0,0,0,0c1.9,1.9,4.9,1.9,6.8,0
		C167.9,47.2,167.9,44.1,166,42.2C166,42.2,166,42.2,166,42.2z M188.6,64.9c-1.9-1.9-4.9-1.9-6.8,0c-1.9,1.9-1.9,4.9,0,6.8
		c0,0,0,0,0,0c1.9,1.9,4.9,1.9,6.8,0C190.5,69.8,190.5,66.7,188.6,64.9C188.6,64.9,188.6,64.9,188.6,64.9z" />
		<path class="st8" d="M158.2,50.1c-2.5-2.5-2.4-6.5,0-8.9s6.5-2.4,8.9,0c2.4,2.4,2.4,6.5,0,8.9C164.6,52.5,160.6,52.6,158.2,50.1z
		 M164.9,43.3c-1.3-1.3-3.4-1.3-4.7,0c-1.3,1.3-1.3,3.4,0,4.7c1.3,1.3,3.4,1.3,4.7,0C166.2,46.7,166.3,44.6,164.9,43.3z" />
		<g>
		<path class="st8" d="M180.8,72.7c-2.5-2.5-2.4-6.5,0-8.9c2.4-2.4,6.5-2.4,8.9,0c2.5,2.5,2.4,6.5,0,8.9
			C187.3,75.2,183.3,75.2,180.8,72.7z M187.6,65.9c-1.3-1.3-3.4-1.3-4.7,0c-1.3,1.3-1.3,3.4,0,4.7s3.4,1.3,4.7,0
			C188.8,69.3,188.9,67.2,187.6,65.9z" />
	</g>
		<g>
		<path class="st8" d="M180.8,72.7L151.1,43c-0.6-0.6-0.6-1.5,0-2.1c0.6-0.6,1.5-0.6,2.1,0l29.7,29.7c0.6,0.6,0.6,1.5,0,2.1
			C182.3,73.3,181.4,73.3,180.8,72.7z" />
	</g>
		<g>
		<path class="st8" d="M146.1,38.1c-0.1-0.1-0.1-0.1-0.2-0.2c0-0.1-0.1-0.2-0.1-0.3c0-0.1-0.1-0.2-0.1-0.3c0-0.1,0-0.2,0-0.3
			c0-0.1,0-0.2,0-0.3c0-0.1,0-0.2,0.1-0.3c0.1,0,0.1-0.1,0.2-0.2c0.1-0.1,0.1-0.2,0.2-0.2s0.1-0.1,0.2-0.2c0.1-0.1,0.2-0.1,0.3-0.1
			s0.2,0,0.3-0.1s0.2,0,0.3,0c0.1,0,0.2,0,0.3,0c0.1,0,0.2,0,0.3,0.1s0.2,0.1,0.3,0.1c0.2,0.1,0.3,0.2,0.4,0.4
			c0.1,0.1,0.1,0.2,0.1,0.3c0,0.1,0.1,0.2,0.1,0.3c0,0.1,0,0.2,0,0.3c0,0.1,0,0.2,0,0.3c0,0.1,0,0.2-0.1,0.3c0,0.1-0.1,0.2-0.1,0.3
			c-0.1,0.1-0.1,0.2-0.2,0.2s-0.1,0.1-0.2,0.2c-0.1,0.1-0.2,0.1-0.3,0.1s-0.2,0.1-0.3,0.1c-0.1,0-0.2,0-0.3,0c-0.1,0-0.2,0-0.3,0
			c-0.1,0-0.2,0-0.3-0.1c-0.1,0-0.2-0.1-0.3-0.1C146.3,38.3,146.2,38.1,146.1,38.1z" />
	</g>
</g>
	<path class="st2"
		d="M30.2,31.2l3.1,3.1l0,0c0,0,0,0,0,0c-2,1.9-3.9,3.4-6.2,1.8L26.8,36l-0.6-0.6" />
	<path class="st2" d="M32.6,35L29.5,32c-0.4-0.4-0.4-1,0-1.4s1-0.4,1.4,0l3.1,3.1c0.4,0.4,0.4,1,0,1.4S33,35.4,32.6,35z M37.7,23.8
	l3.1,3.1l0,0c0,0,0,0,0,0c-2,1.9-3.9,3.4-6.2,1.8l-0.3-0.2l-0.6-0.6" />
	<path class="st2" d="M40,27.6L37,24.5c-0.4-0.4-0.4-1,0-1.4s1-0.4,1.4,0l3.1,3.1c0.4,0.4,0.4,1,0,1.4S40.5,28,40,27.6z M20.8,21.8
	l-3.1-3.1l0,0c0,0,0,0,0,0c-1.9,2-3.4,3.9-1.8,6.2l0.2,0.3l0.6,0.6" />
	<path class="st2" d="M20.1,22.5L17,19.4c-0.4-0.4-0.4-1,0-1.4s1-0.4,1.4,0l3.1,3.1c0.4,0.4,0.4,1,0,1.4S20.4,22.9,20.1,22.5z
	 M28.2,14.3l-3.1-3.1l0,0c0,0,0,0,0,0c-1.9,2-3.4,3.9-1.8,6.2l0.2,0.3l0.6,0.6" />
	<path class="st2"
		d="M27.5,15L24.4,12c-0.4-0.4-0.4-1,0-1.4s1-0.4,1.4,0l3.1,3.1c0.4,0.4,0.4,1,0,1.4C28.6,15.5,27.9,15.4,27.5,15z" />
	<g>
	<path class="st1" d="M20.3,36.7L15.7,32c-1.3-1.3-1.3-3.5,0-4.8l13.2-13.2c1.3-1.3,3.5-1.3,4.8,0l4.7,4.7c1.3,1.3,1.3,3.5,0,4.8
		L25.1,36.7C23.8,38,21.7,38,20.3,36.7z" />
</g>
	<g>
	<path class="st15" d="M33.6,18.5c-1.5-1.5-3.9-1.5-5.3,0c-1.5,1.5-1.5,3.9,0,5.3c0,0,0,0,0,0c1.5,1.5,3.9,1.5,5.3,0
		S35,19.9,33.6,18.5C33.6,18.5,33.6,18.5,33.6,18.5z" />
</g>
	<g>
	<path class="st19" d="M26,26c-1.5-1.5-3.9-1.5-5.3,0s-1.5,3.9,0,5.3c0,0,0,0,0,0c1.5,1.5,3.9,1.5,5.3,0C27.5,29.9,27.5,27.5,26,26
		C26,26,26,26,26,26z" />
</g>
	<g>
	<path class="st2" d="M19.6,37.4l-4.7-4.7c-1.7-1.7-1.7-4.5,0-6.2l13.2-13.2c1.7-1.7,4.5-1.7,6.2,0l4.7,4.7c1.7,1.7,1.7,4.5,0,6.2
		L25.9,37.4C24.1,39.1,21.4,39.1,19.6,37.4z M33,14.7c-0.9-0.9-2.4-0.9-3.4,0L16.4,27.9c-0.9,0.9-0.9,2.4,0,3.4l4.7,4.7
		c0.9,0.9,2.4,0.9,3.4,0l13.2-13.2c0.9-0.9,0.9-2.4,0-3.4L33,14.7z" />
</g>
	<g>
	<path class="st2" d="M10.3,41.7c-0.4-0.4-0.4-1,0-1.4l6.7-6.7c0.4-0.4,1-0.4,1.4,0c0.4,0.4,0.4,1,0,1.4l-6.7,6.7
		C11.4,42.1,10.7,42.1,10.3,41.7z" />
</g>
	<g>
	<path class="st20"
		d="M282.1,91.1l-24.8-24.8l-16.5,16.5c-1.5,1.5-1.5,4,0,5.5l19.3,19.3c1.5,1.5,4,1.5,5.5,0L282.1,91.1z" />
		<path class="st1" d="M256.4,84.9l13.2-3.2c0.4-0.1,0.7,0.5,0.3,0.7l-7.8,5.2l2.7,2.7c0.2,0.2,0.1,0.6-0.2,0.7l-12,1.9
		c-0.4,0.1-0.6-0.5-0.3-0.7l6.5-3.9l-2.6-2.6C256,85.4,256.1,85,256.4,84.9z" />
		<path class="st21" d="M279.4,88.4l-16,16c-0.3,0.3-0.8,0.3-1.1,0l-11.8-11.8c-0.8-0.8-2-0.8-2.8,0l0,0c-0.8,0.8-0.8,2,0,2.8
		l12.4,12.4c1.5,1.5,4,1.5,5.5,0l16.5-16.5L279.4,88.4z" />
		<path class="st1" d="M259.3,61.7l27.5,27.5l-3.3,3.3L256,65L259.3,61.7z M267.5,69.9l3.3-3.3l-4.1-4.1l-3.3,3.3 M282.7,85.1
		l3.3-3.3l-4.1-4.1l-3.3,3.3" />
		<path class="st7" d="M259.3,108.5L240,89.2c-2-2-2-5.2,0-7.2l13.8-13.8c0.5-0.5,1.2-0.5,1.7,0c0.5,0.5,0.5,1.2,0,1.7l-13.8,13.8
		c-1.1,1.1-1.1,2.8,0,3.9l19.3,19.3c1.1,1.1,2.8,1.1,3.9,0l16.5-16.5c0.5-0.5,1.2-0.5,1.7,0c0.5,0.5,0.5,1.2,0,1.7l-16.5,16.5
		C264.4,110.4,261.3,110.4,259.3,108.5z" />
		<path class="st1" d="M251,78.2c-0.5-0.5-0.5-1.2,0-1.7l8.3-8.3c0.5-0.5,1.2-0.5,1.7,0c0.5,0.5,0.5,1.2,0,1.7l-8.3,8.3
		C252.2,78.6,251.5,78.6,251,78.2z M246.9,82.3c-0.1-0.1-0.1-0.1-0.1-0.2c-0.1-0.1-0.1-0.1-0.1-0.2c0-0.1,0-0.1-0.1-0.2
		c0-0.1,0-0.1,0-0.2c0-0.1,0-0.2,0-0.2c0-0.1,0-0.1,0.1-0.2c0-0.1,0.1-0.1,0.1-0.2c0-0.1,0.1,0,0.1-0.1c0.1-0.1,0.1-0.1,0.2-0.1
		c0.1,0,0.1-0.1,0.2-0.1s0.2-0.1,0.2-0.1c0.1,0,0.1,0,0.2,0c0.1,0,0.2,0,0.2,0s0.1,0,0.2,0.1c0.1,0,0.1,0.1,0.2,0.1
		c0.3,0.2,0.5,0.6,0.5,1c0,0.1,0,0.2,0,0.2c0,0.1,0,0.1-0.1,0.2c0,0.1-0.1,0.1-0.1,0.2s-0.2,0.1-0.2,0.1c-0.2,0.2-0.5,0.4-0.8,0.3
		C247.4,82.7,247.1,82.5,246.9,82.3z" />
		<path class="st7" d="M282.7,93.3l-27.5-27.5c-0.5-0.5-0.5-1.2,0-1.7l3.3-3.3c0.5-0.5,1.2-0.5,1.7,0l27.5,27.5
		c0.5,0.5,0.5,1.2,0,1.7l-3.3,3.3C283.9,93.8,283.1,93.8,282.7,93.3z M257.6,65l25.9,25.9l1.7-1.7l-25.9-25.9L257.6,65z" />
		<path class="st7" d="M266.7,70.7c-0.5-0.5-0.5-1.2,0-1.7l2.5-2.5l-2.5-2.5l-0.3,0.3c-0.5,0.5-1.2,0.5-1.7,0c-0.5-0.5-0.5-1.2,0-1.7
		l1.1-1.1c0.5-0.5,1.2-0.5,1.7,0l4.1,4.1c0.5,0.5,0.5,1.2,0,1.7l-3.3,3.3C267.9,71.2,267.2,71.2,266.7,70.7z M281.8,85.9
		c-0.5-0.5-0.5-1.2,0-1.7l2.5-2.5l-2.5-2.5l-0.3,0.3c-0.5,0.5-1.2,0.5-1.7,0c-0.5-0.5-0.5-1.2,0-1.7l1.1-1.1c0.5-0.5,1.2-0.5,1.7,0
		l4.1,4.1c0.5,0.5,0.5,1.2,0,1.7l-3.3,3.3C283,86.3,282.3,86.3,281.8,85.9z" />
</g>
	<g>
	<path class="st11" d="M308.8,72.2l34.3,34.3l3.8-3.8c2.1-2.1,2.1-5.5,0-7.6l-13.6-13.6l-0.6-0.2c-2.3-0.8-3-3.7-1.3-5.5l-1.2-1.2
		C324,68.5,316.8,68.8,308.8,72.2" />
		<path class="st12" d="M319.7,69.9C319.7,69.8,319.7,69.8,319.7,69.9c-0.4-0.1-0.7-0.1-1-0.1c-3.1,0.1-6.4,1-9.9,2.4l0,0l10.9,10.9
		C323.3,79.5,323.3,73.5,319.7,69.9 M348.4,98.8c-3.6-2.7-8.8-2.4-12.2,0.9l6.8,6.8l3.8-3.8C347.9,101.6,348.4,100.2,348.4,98.8" />
		<path class="st2" d="M342,107.6l-34.3-34.3c-0.4-0.4-0.5-0.8-0.4-1.3c0.1-0.5,0.4-0.9,0.9-1.1c9.8-4.2,17.1-3.3,23.1,2.8l0.1,0.1
		c0.6,0.6,0.6,1.5,0,2.1c-0.6,0.6-1.5,0.6-2.1,0l-0.1-0.1c-4.7-4.7-10.3-5.7-17.8-2.9l31.6,31.6l2.8-2.8c1.5-1.5,1.5-4,0-5.5
		L333.7,84c-0.4-0.4-0.5-0.8-0.4-1.3l0.6-3.8c0.1-0.8,0.9-1.4,1.7-1.2c0.8,0.1,1.4,0.9,1.2,1.7l-0.5,3L348,94c2.7,2.7,2.7,7.1,0,9.8
		l-3.8,3.8C343.6,108.2,342.6,108.2,342,107.6z" />
		<path class="st1" d="M316.9,72.7c-2.1-2.1-5.5-2.1-7.6,0c-2.1,2.1-2.1,5.5,0,7.6c0,0,0,0,0,0c2.1,2.1,5.5,2.1,7.6,0
		C319,78.2,319,74.8,316.9,72.7C316.9,72.7,316.9,72.7,316.9,72.7z M336.7,88.2c-1.2-1.2-3.1-1.2-4.2,0c-1.2,1.2-1.2,3.1,0,4.2
		s3.1,1.2,4.2,0C337.8,91.2,337.8,89.3,336.7,88.2z" />
		<path class="st2" d="M308.2,81.4c-2.7-2.7-2.7-7.1,0-9.8s7.1-2.7,9.8,0s2.7,7.1,0,9.8C315.2,84.1,310.9,84.1,308.2,81.4z
		 M315.8,73.7c-1.5-1.5-4-1.5-5.5,0c-1.5,1.5-1.5,4,0,5.5c1.5,1.5,4,1.5,5.5,0C317.3,77.7,317.3,75.3,315.8,73.7z" />
		<path class="st1" d="M346.7,102.5c-2.1-2.1-5.5-2.1-7.6,0c-2.1,2.1-2.1,5.5,0,7.6c0,0,0,0,0,0c2.1,2.1,5.5,2.1,7.6,0
		S348.8,104.6,346.7,102.5C346.7,102.5,346.7,102.5,346.7,102.5z" />
		<path class="st2" d="M338,111.2c-2.7-2.7-2.7-7.1,0-9.8s7.1-2.7,9.8,0c2.7,2.7,2.7,7.1,0,9.8C345.1,113.9,340.7,113.9,338,111.2z
		 M345.7,103.6c-1.5-1.5-4-1.5-5.5,0c-1.5,1.5-1.5,4,0,5.5c1.5,1.5,4,1.5,5.5,0C347.2,107.6,347.2,105.1,345.7,103.6z" />
		<path class="st2" d="M338,111.2l-34.5-34.5c-0.6-0.6-0.6-1.5,0-2.1c0.6-0.6,1.5-0.6,2.1,0l34.5,34.5c0.6,0.6,0.6,1.5,0,2.1
		C339.5,111.8,338.6,111.8,338,111.2z M299.3,72.5c-0.3-0.3-0.5-0.7-0.4-1.1c0-0.4,0.1-0.8,0.4-1.1s0.7-0.5,1.1-0.4
		c0.8,0,1.5,0.7,1.5,1.5c0,0.4-0.1,0.8-0.4,1.1c-0.3,0.3-0.7,0.5-1.1,0.4C300,73,299.6,72.8,299.3,72.5z" />
</g>
	<g>
	<path class="st22" d="M277.7,28.4c0-3,2.4-5.4,5.4-5.4s5.4,2.4,5.4,5.4s-2.4,5.4-5.4,5.4 M264.6,15.2c0-3,2.4-5.4,5.4-5.4
		c3,0,5.4,2.4,5.4,5.4s-2.4,5.4-5.4,5.4" />
		<path class="st15" d="M275,44.3l-21-21c-0.2-0.2-0.2-0.6,0-0.9l6.8-6.8c0.2-0.2,0.6-0.2,0.9,0l21,21c0.2,0.2,0.2,0.6,0,0.9
		l-6.8,6.8C275.6,44.6,275.2,44.6,275,44.3z" />
		<path class="st1" d="M255.1,21.4l-1.1,1.1c-0.2,0.2-0.2,0.6,0,0.9l1.8,1.8L270,24l0,0l-3.8-3.8L255.1,21.4z M259.2,28.6l-0.2-0.2
		l4,4l14.2-1.1l0,0l-3.8-3.8L259.2,28.6z M281.6,38.7l1.1-1.1c0.2-0.2,0.2-0.6,0-0.9l-1.8-1.8L266.7,36l0,0l3.7,3.7L281.6,38.7z
		 M271.6,13.6c-0.9-0.9-2.4-0.9-3.3,0s-0.9,2.4,0,3.3c0.9,0.9,2.4,0.9,3.3,0C272.5,16,272.5,14.5,271.6,13.6z M284.8,26.7
		c-0.9-0.9-2.4-0.9-3.3,0s-0.9,2.4,0,3.3s2.4,0.9,3.3,0S285.7,27.6,284.8,26.7z" />
		<path class="st2" d="M274.3,45l-21-21c-0.6-0.6-0.6-1.6,0-2.2l6.8-6.8c0.6-0.6,1.6-0.6,2.2,0l21,21c0.6,0.6,0.6,1.6,0,2.2l-6.8,6.8
		C275.9,45.6,275,45.6,274.3,45z M254.9,22.9l20.6,20.6l6.3-6.3l-20.6-20.6L254.9,22.9z M250.3,34.9c-0.4-0.4-0.4-0.9,0-1.3l5-5
		c0.4-0.4,0.9-0.4,1.3,0c0.4,0.4,0.4,0.9,0,1.3l-5,5C251.2,35.3,250.7,35.3,250.3,34.9z M263.4,48.1c-0.4-0.4-0.4-0.9,0-1.3l5-5
		c0.4-0.4,0.9-0.4,1.3,0c0.4,0.4,0.4,0.9,0,1.3l-5,5C264.4,48.4,263.8,48.4,263.4,48.1z" />
</g>
</svg>
