<?xml version="1.0" encoding="utf-8"?><!-- Generator: Adobe Illustrator 24.3.0, SVG Export Plug-In . SVG Version: 6.00 Build 0)  -->
<svg version="1.1" id="Ebene_1" xmlns="http://www.w3.org/2000/svg" x="0px" y="0px"
	viewBox="0 0 1024 500" style="enable-background:new 0 0 1024 500;" xml:space="preserve">
<style type="text/css">
	.st0{fill:#E6E6E6;}
	.st1{fill:#DCDCDC;}
	.st2{fill:#FFFFFF;}
	.st3{fill:#808080;}
	.st4{fill:#E8E8E8;}
	.st5{fill:#99F5C8;}
	.st6{opacity:0.26;fill:#1D1D1B;enable-background:new    ;}
	.st7{fill:#C8C8C8;}
	.st8{fill:#B5B5B5;}
	.st9{fill:#878787;}
	.st10{fill:#666666;}
	.st11{fill:#D1D1D1;}
	.st12{opacity:0.2;fill:#808080;enable-background:new    ;}
	.st13{opacity:0.5;enable-background:new    ;}
	.st14{fill:#FFB300;}
	.st15{fill:#90A4AE;}
	.st16{fill:#546E7A;}
	.st17{fill:#00E676;}
	.st18{fill:#FFFFFF;fill-opacity:0.2;}
	.st19{fill:#3E2723;fill-opacity:0.2;}
	.st20{opacity:0.45;enable-background:new    ;}
	.st21{enable-background:new    ;}
</style>
	<g id="Ebene_1_1_">
	<rect y="-34.4" class="st0" width="1024" height="568.9" />
		<g>
		<path class="st1"
			d="M135.7,135.4l8.5,8.5l-5.4,5.4l21.6,21.6l10.5-10.5l-21.6-21.6l-5.1,5.1" />
			<path class="st2"
				d="M145.4,335.9L38.1,228.7c-6-6-6-15.4,0-21.3L91,154.1c5.7-5.7,15.4-5.7,21.3,0l107.2,107.2" />
			<path class="st2" d="M131.7,209.9L93.6,248c-2.8,2.8-7.7,2.8-10.5,0l-24.7-24.7c-2.8-2.8-2.8-7.7,0-10.5l38.1-38.1
			c2.8-2.8,7.7-2.8,10.5,0l24.7,24.7C134.8,202.2,134.5,207,131.7,209.9z" />
			<path class="st3" d="M223.3,265.1c-2,2-5.4,2-7.4,0l-107.2-107c-3.7-3.7-10.2-4-13.9,0l-53,52.9c-3.7,3.7-3.7,10,0,13.9L149,332.2
			c2,2,2,5.4,0,7.4s-5.4,2-7.4,0L34.4,232.4c-8-8-8-20.8,0-28.7l52.9-53.2c8-8,20.8-8,28.7,0l107.2,107.2
			C225.3,260,225.3,263.1,223.3,265.1z" />
			<path class="st4" d="M131.7,209.9L93.6,248c-2.8,2.8-7.7,2.8-10.5,0l-24.7-24.7c-2.8-2.8-2.8-7.7,0-10.5l38.1-38.1
			c2.8-2.8,7.7-2.8,10.5,0l24.7,24.7C134.8,202.2,134.5,207,131.7,209.9z" />
			<path class="st3" d="M135.4,213.6l-38.1,38.1c-4.8,4.8-13.1,4.8-17.9,0L54.6,227c-4.8-4.8-4.8-13.1,0-17.9L92.7,171
			c4.8-4.8,13.1-4.8,17.9,0l24.7,24.7C140.5,200.5,140.5,208.5,135.4,213.6z M62,216.4c-0.9,0.9-0.9,2.3,0,3.1l24.7,24.7
			c0.9,0.9,2.3,0.9,3.1,0l38.1-38.1c0.9-0.9,0.9-2.3,0-3.1l-24.7-24.7c-0.9-0.9-2.3-0.9-3.1,0L62,216.4z M233.8,254.6l-95.3,95.3
			c-2,2-5.4,2-7.4,0s-2-5.4,0-7.4l95.3-95.3c2-2,5.4-2,7.4,0S235.8,252.6,233.8,254.6z M228.4,238.3c-4.8,4.8-13.1,4.8-17.9,0
			l-43-42.7c-0.9-0.9-2.3-0.9-3.1,0L159,201c-2,2-5.4,2-7.4,0s-2-5.4,0-7.4l5.4-5.4c4.8-4.8,13.1-4.8,17.9,0l43,43
			c0.9,0.9,2.3,0.9,3.1,0c0.9-0.9,0.9-2.3,0-3.1l-58.9-59.2c-2-2-2-5.4,0-7.4s5.4-2,7.4,0l58.9,58.9
			C233.2,225.3,233.2,233.5,228.4,238.3z" />
			<path class="st3" d="M174.6,163.8l-10.5,10.5c-2,2-5.4,2-7.4,0l-21.6-21.6c-2-2-2-5.4,0-7.4l1.7-1.7L132,139c-2-2-2-5.4,0-7.4
			s5.4-2,7.4,0l4.8,4.8l1.4-1.4c2-2,5.4-2,7.4,0l21.3,21.3C176.4,158.4,176.6,161.8,174.6,163.8z M160.4,163.2l3.1-3.1l-13.9-13.9
			l-3.1,3.1L160.4,163.2z" />
			<g>
			<path class="st5" d="M163.8,290.1c-0.6,0.6-1.4,1.1-2.6,1.4c-2.8,0.6-5.7-1.1-6.3-3.7l-3.7-16.2l-3.7,5.4c-1.1,1.7-3.1,2.6-5.1,2
				s-3.7-2-4-4l-6.5-27c-0.6-2.8,1.1-5.7,3.7-6.3c2.8-0.6,5.7,1.1,6.3,3.7l3.7,16.2l3.7-5.4c1.1-1.7,3.1-2.6,5.1-2s3.7,2,4,4l6.3,27
				C165.5,287.3,165,289,163.8,290.1z" />
		</g>
	</g>
		<g>
		<path class="st2" d="M85,381.1l68.3,68.3c2.8,2.8,2.8,7.1,0,10l-40.1,40.1c-2.8,2.8-7.1,2.8-10,0L35,431.2c-2.8-2.8-2.8-7.1,0-10
			l40.1-40.1C77.9,378.3,82.2,378.3,85,381.1z M32.7,399l20.2-20.2l11.9,11.9L44.7,411L32.7,399z" />
			<path class="st5" d="M105.2,401l48.4,48.4c2.8,2.8,2.8,7.1,0,10l-40.1,40.1c-2.8,2.8-7.1,2.8-10,0l-48.4-48.4
			c-2.8-2.8-2.8-7.1,0-10L95.3,401C97.8,398.2,102.4,398.2,105.2,401z" />
			<path class="st6" d="M143.4,449.4L143.4,449.4c2.8-2.8,2.8-7.1,0-10L105.2,401c-2.8-2.8-7.1-2.8-10,0l-5.1,5.1l43.2,43.2
			C136.2,452.2,140.5,452.2,143.4,449.4z" />
			<path class="st3" d="M156.4,462.5l-40.1,40.1c-4.6,4.6-11.7,4.6-16.2,0l-68.3-68.3c-4.6-4.6-4.6-11.7,0-16.2L72,378
			c4.6-4.6,11.7-4.6,16.2,0l68.3,68.3C161,450.8,161,457.9,156.4,462.5z M37.8,424.4c-1.1,1.1-1.1,2.8,0,4l68.3,68.3
			c1.1,1.1,2.8,1.1,4,0l40.1-40.1c1.1-1.1,1.1-2.8,0-4l-68.3-68.3c-1.1-1.1-2.8-1.1-4,0L37.8,424.4z" />
			<path class="st2" d="M111.2,487.5c-1.7,1.7-4.3,1.7-6,0l-25-25c-1.7-1.7-1.7-4.3,0-6s4.3-1.7,6,0l25,25
			C112.9,483.2,112.9,485.8,111.2,487.5z M71.1,447.4c-0.9,0.9-2,1.4-3.1,1.1c-1.1,0-2.3-0.3-3.1-1.1c-0.9-0.9-1.4-2-1.1-3.1
			c0-0.3,0-0.6,0-0.9s0-0.6,0.3-0.9s0.3-0.6,0.3-0.9c0.9-1.1,2-2,3.4-2c1.1,0,2.3,0.3,3.1,1.1c0.3,0.3,0.3,0.3,0.6,0.6
			c0.3,0.3,0.3,0.6,0.3,0.9s0.3,0.6,0.3,0.9s0,0.6,0,0.9C72.2,445.4,71.7,446.6,71.1,447.4z" />
			<path class="st3" d="M68,393.9c-1.7,1.7-4.3,1.7-6,0l-9.1-9.1l-13.9,14l1.1,1.1c1.7,1.7,1.7,4.3,0,6s-4.3,1.7-6,0l-4-4
			c-1.7-1.7-1.7-4.3,0-6l20.2-20.2c1.7-1.7,4.3-1.7,6,0l11.9,11.9C69.7,389.7,69.7,392.2,68,393.9z" />
	</g>
		<g>
		<path class="st2" d="M333.4,497.2l-3.1,3.1L229.5,399.6l73.4-73.4c5.4-5.4,14.5-5.4,20.2,0l70.3,70.3l0,0
			C390.3,425.8,354.1,476.4,333.4,497.2z" />
			<path class="st5" d="M293.5,387.7l48.1-11.7c1.7-0.3,2.6,1.7,1.1,2.6l-28.4,18.8l9.7,9.7c0.9,0.9,0.3,2.3-0.9,2.3l-43.8,6.8
			c-1.4,0.3-2.3-1.7-1.1-2.6l23.6-14.5l-9.4-9.4C292.4,389.1,292.7,388,293.5,387.7z" />
			<path class="st3" d="M374.6,440l-15.1-15.1c-7.1-7.1-7.1-18.8,0-26.2l8-8c1.7-1.7,4.3-1.7,6,0s1.7,4.3,0,6l-8,8
			c-4,4-4,10.2,0,13.9l15.1,15.1c1.7,1.7,1.7,4.3,0,6S376,441.4,374.6,440z" />
			<path class="st3" d="M327.4,503.2L226.7,402.5c-1.7-1.7-1.7-4.3,0-6l73.4-73.4c7.1-7.1,18.8-7.1,26.2,0l70.3,70.3l0,0l8,8
			c1.7,1.7,1.7,4.3,0,6s-4.3,1.7-6,0l-2.3-2.3c-8.2,31.3-41.5,76.2-60,94.7l-3.1,3.1C331.7,504.9,328.8,504.9,327.4,503.2z
			 M235.8,399.6l94.4,94.4c21.6-21.6,54.6-69.1,58.9-96.1l-68.8-68.8c-4-4-10.2-4-13.9,0C306.1,329.4,235.8,399.6,235.8,399.6z" />
			<path class="st3" d="M327.4,503.2L222.7,398.5c-1.7-1.7-1.7-4.3,0-6s4.3-1.7,6,0l104.7,104.7c1.7,1.7,1.7,4.3,0,6
			C331.7,504.9,328.8,504.9,327.4,503.2z" />
			<path class="st2" d="M251.2,410.1c-5.4-5.4-13.9-5.4-19.3,0s-5.4,13.9,0,19.3l0,0c5.4,5.4,13.9,5.4,19.3,0
			S256.6,415.3,251.2,410.1L251.2,410.1z M315.4,474.4c-5.4-5.4-13.9-5.4-19.3,0s-5.4,13.9,0,19.3l0,0c5.4,5.4,13.9,5.4,19.3,0
			S320.9,479.8,315.4,474.4L315.4,474.4z" />
			<path class="st3" d="M228.7,432.3c-7.1-7.1-6.8-18.5,0-25.3s18.5-6.8,25.3,0c6.8,6.8,6.8,18.5,0,25.3
			C247.2,439.4,235.8,439.4,228.7,432.3z M248,413c-3.7-3.7-9.7-3.7-13.4,0s-3.7,9.7,0,13.4s9.7,3.7,13.4,0
			C251.7,422.7,251.7,416.7,248,413z" />
			<g>
			<path class="st3" d="M293.3,496.6c-7.1-7.1-6.8-18.5,0-25.3s18.5-6.8,25.3,0c7.1,7.1,6.8,18.5,0,25.3
				C311.5,503.7,300.1,503.7,293.3,496.6z M312.6,477.6c-3.7-3.7-9.7-3.7-13.4,0c-3.7,3.7-3.7,9.7,0,13.4s9.7,3.7,13.4,0
				C316.3,487.2,316.3,481.3,312.6,477.6z" />
		</g>
			<g>
			<path class="st3" d="M293.3,496.6l-84.5-84.5c-1.7-1.7-1.7-4.3,0-6s4.3-1.7,6,0l84.5,84.5c1.7,1.7,1.7,4.3,0,6
				C297.5,498.3,295,498.3,293.3,496.6z" />
		</g>
			<g>
			<path class="st3" d="M194.6,398.2c-0.3-0.3-0.3-0.3-0.6-0.6c-0.3-0.3-0.3-0.6-0.3-0.9s-0.3-0.6-0.3-0.9s0-0.6,0-0.9s0-0.6,0-0.9
				s0-0.6,0.3-0.9c0.3,0,0.3-0.3,0.6-0.6s0.3-0.6,0.6-0.6s0.3-0.3,0.6-0.6c0.3-0.3,0.6-0.3,0.9-0.3c0.3,0,0.6,0,0.9-0.3
				c0.3-0.3,0.6,0,0.9,0c0.3,0,0.6,0,0.9,0c0.3,0,0.6,0,0.9,0.3c0.3,0,0.6,0.3,0.9,0.3c0.6,0.3,0.9,0.6,1.1,1.1
				c0.3,0.3,0.3,0.6,0.3,0.9s0.3,0.6,0.3,0.9s0,0.6,0,0.9s0,0.6,0,0.9s0,0.6-0.3,0.9s-0.3,0.6-0.3,0.9c-0.3,0.3-0.3,0.6-0.6,0.6
				s-0.3,0.3-0.6,0.6c-0.3,0.3-0.6,0.3-0.9,0.3c-0.3,0-0.6,0.3-0.9,0.3s-0.6,0-0.9,0c-0.3,0-0.6,0-0.9,0c-0.3,0-0.6,0-0.9-0.3
				c-0.3,0-0.6-0.3-0.9-0.3C195.1,398.8,194.8,398.5,194.6,398.2z" />
		</g>
	</g>
		<g>
		<path class="st2" d="M956.9,61.7l-38.7,38.7c-5.4,5.4-14.5,5.4-20.2,0l-39.3-39.3c-5.4-5.4-5.4-14.5,0-20.2l38.7-38.4
			c5.4-5.4,14.5-5.4,20.2,0l39.3,39.3C962.3,47.2,962.3,56.3,956.9,61.7z" />
			<path class="st3" d="M959.7,64.8L921,103.5c-7.1,7.1-18.8,7.1-26.2,0l-39.3-39.3c-7.1-7.1-7.1-18.8,0-26.2l38.7-38.7
			c7.1-7.1,18.8-7.1,26.2,0l39.3,39.3C967.1,45.8,967.1,57.4,959.7,64.8z M861.9,44.1c-4,4-4,10.2,0,13.9l39.3,39.3
			c4,4,10.2,4,13.9,0l38.7-38.7c4-4,4-10.2,0-13.9L914.5,5.4c-4-4-10.2-4-13.9,0L861.9,44.1z" />
			<path class="st2" d="M925.6,69.1L925.6,69.1c-9.7,9.7-25.6,9.7-35.3,0l-0.3-0.3c-9.7-9.7-9.7-25.6,0-35.3l0,0
			c9.7-9.7,25.6-9.7,35.3,0l0.3,0.3C935.3,43.8,935.3,59.4,925.6,69.1z" />
			<path class="st3" d="M928.7,72.2c-11.4,11.4-29.9,11.4-41.2,0l-0.3-0.3c-11.4-11.4-11.4-29.9,0-41.2c11.4-11.4,29.9-11.4,41.2,0
			l0.3,0.3C940.1,42.4,940.1,60.8,928.7,72.2z M893.2,36.7c-8,8-8,21,0,29.3l0.3,0.3c8,8,21,8,29.3,0c8-8,8-21,0-29.3l-0.3-0.3
			C914.2,28.7,901.1,28.7,893.2,36.7z" />
			<path class="st3" d="M896.9,55.2c-2,2-2,5.1,0,7.1c2,2,5.1,2,7.1,0l0,0c2-2,2-5.1,0-7.1C902.3,53.2,898.8,53.2,896.9,55.2
			L896.9,55.2z M911.4,40.6c-2,2-2,5.1,0,7.1s5.1,2,7.1,0l0,0c2-2,2-5.1,0-7.1C916.8,38.7,913.4,38.7,911.4,40.6L911.4,40.6z" />
			<path class="st2"
				d="M971.9,88.7l10.8,10.8c7.4,7.4,7.4,19.3,0,26.7l0,0c-7.4,7.4-19.3,7.4-26.7,0l-10.8-10.8L971.9,88.7z" />
			<path class="st3" d="M985.9,129.4c-9.1,9.1-23.6,9.1-32.7,0l-8.8-8.8c-1.7-1.7-1.7-4.3,0-6s4.3-1.7,6,0l8.8,8.8
			c5.7,5.7,15.1,5.7,20.8,0s5.7-15.1,0-20.8l-8.8-8.8c-1.7-1.7-1.7-4.3,0-6s4.3-1.7,6,0l8.8,8.8C995,105.8,995,120.3,985.9,129.4z" />
			<path class="st3" d="M953.2,112.9c-1.7,1.7-4.3,1.7-6,0l-9.4-9.4c-1.7-1.7-1.7-4.3,0-6s4.3-1.7,6,0l9.4,9.4
			C954.9,108.6,954.9,111.2,953.2,112.9z M969.4,97c-1.7,1.7-4.3,1.7-6,0l-9.4-9.4c-1.7-1.7-1.7-4.3,0-6s4.3-1.7,6,0l9.4,9.4
			C971.1,92.4,971.1,95.3,969.4,97z" />
			<path class="st3" d="M978.8,88.2l-34.1,34.1c-1.7,1.7-4.3,1.7-6,0s-1.7-4.3,0-6l34.1-34.1c1.7-1.7,4.3-1.7,6,0
			C980.5,83.9,980.5,86.4,978.8,88.2z M994.4,137.9c-1.7,1.7-4.3,1.7-6,0l-8.5-8.5c-1.7-1.7-1.7-4.3,0-6s4.3-1.7,6,0l8.5,8.5
			C995.8,133.4,996.1,136.2,994.4,137.9z" />
			<g>
			<path class="st5" d="M966.5,110.1c-1.4,1.4-1.4,4,0,5.4s4,1.4,5.4,0l0,0c1.4-1.4,1.4-4,0-5.4C970.5,108.6,968,108.6,966.5,110.1
				L966.5,110.1z" />
		</g>
	</g>
		<g>
		<path class="st7" d="M486.4,389.4L584,487l10.8-10.8c6-6,6-15.6,0-21.6l-38.7-38.7l-1.7-0.6c-6.5-2.3-8.5-10.5-3.7-15.6l-3.4-3.4
			C529.9,378.6,509.4,379.4,486.4,389.4" />
			<path class="st8" d="M517.7,382.6C517.4,382.6,517.4,382.6,517.7,382.6c-1.1-0.3-2-0.3-2.8-0.3c-8.8,0.3-18.2,2.8-28.2,6.8l0,0
			l31,31C527.9,410.1,527.9,393.1,517.7,382.6 M599.3,465c-10.2-7.7-25-6.8-34.7,2.6l19.3,19.3l10.8-10.8
			C597.9,473,599.3,469,599.3,465" />
			<path class="st3" d="M581.1,490.1l-97.6-97.8c-1.1-1.1-1.4-2.3-1.1-3.7c0.3-1.4,1.1-2.6,2.6-3.1c27.9-11.9,48.6-9.4,65.7,8
			l0.3,0.3c1.7,1.7,1.7,4.3,0,6s-4.3,1.7-6,0l-0.3-0.3c-13.4-13.4-29.3-16.2-50.6-8.2L584,481l8-8c4.3-4.3,4.3-11.4,0-15.6
			L557.6,423c-1.1-1.1-1.4-2.3-1.1-3.7l1.7-10.8c0.3-2.3,2.6-4,4.8-3.4c2.3,0.3,4,2.6,3.4,4.8l-1.4,8.5l33,33
			c7.7,7.7,7.7,20.2,0,27.9l-10.8,10.8C585.4,491.8,582.8,491.5,581.1,490.1z" />
			<path class="st2" d="M509.4,390.5c-6-6-15.6-6-21.6,0s-6,15.6,0,21.6l0,0c6,6,15.6,6,21.6,0C515.7,406.4,515.7,396.8,509.4,390.5
			L509.4,390.5z M565.8,434.6c-3.4-3.4-8.8-3.4-11.9,0c-3.1,3.4-3.4,8.8,0,11.9s8.8,3.4,11.9,0C569.2,443.4,569.2,438,565.8,434.6z" />
			<path class="st3" d="M484.7,415.3c-7.7-7.7-7.7-20.2,0-27.9s20.2-7.7,27.9,0s7.7,20.2,0,27.9C504.9,422.9,492.4,422.9,484.7,415.3
			z M506.6,393.6c-4.3-4.3-11.4-4.3-15.6,0c-4.3,4.3-4.3,11.4,0,15.6c4.3,4.3,11.4,4.3,15.6,0C510.9,405,510.9,397.9,506.6,393.6z" />
			<path class="st2" d="M594.5,475.6c-6-6-15.6-6-21.6,0s-6,15.6,0,21.6l0,0c6,6,15.6,6,21.6,0S600.5,481.5,594.5,475.6L594.5,475.6z
			" />
			<path class="st3" d="M569.7,500.3c-7.7-7.7-7.7-20.2,0-27.9s20.2-7.7,27.9,0s7.7,20.2,0,27.9C589.9,508,577.4,508,569.7,500.3z
			 M591.4,478.4c-4.3-4.3-11.4-4.3-15.6,0s-4.3,11.4,0,15.6s11.4,4.3,15.6,0S595.6,483,591.4,478.4z" />
			<path class="st3" d="M569.7,500.3l-98.1-98.1c-1.7-1.7-1.7-4.3,0-6s4.3-1.7,6,0l98.1,98.1c1.7,1.7,1.7,4.3,0,6
			S571.4,502,569.7,500.3z M459.7,390.2c-0.9-0.9-1.4-2-1.1-3.1c0-1.1,0.3-2.3,1.1-3.1c0.9-0.9,2-1.4,3.1-1.1c2.3,0,4.3,2,4.3,4.3
			c0,1.1-0.3,2.3-1.1,3.1c-0.9,0.9-2,1.4-3.1,1.1C461.4,391.4,460.5,391.1,459.7,390.2z" />
	</g>
		<g>
		<path class="st2" d="M306.9,39.8l-35-35.3c-7.7-7.7-19.9-8.2-28.2-1.7L218.2,23l70.3,70.3L308.6,68
			C315.4,59.4,314.6,47.2,306.9,39.8z" />
			<path class="st2"
				d="M306.9,39.8l-17.6-17.6l-36.1,36.1l35.3,35.3l20.2-25.3C315.4,59.4,314.6,47.2,306.9,39.8z" />
			<path class="st9" d="M223.9,17l70.3,70.3L260,121.4l-70.3-70.3L223.9,17z" />
			<path class="st10" d="M259.1,52l35.3,35.3l-34.1,34.1l-35.3-35L259.1,52z" />
			<path class="st9" d="M217.9,23L217.9,23c-5.4-5.4-14.5-5.4-20.2,0l-18.2,18.2l20.2,20.2l18.2-18.2C223.6,37.5,223.6,28.4,217.9,23
			z M270.2,131.7l18.2-18.2c5.4-5.4,5.4-14.5,0-20.2l0,0c-5.4-5.4-14.5-5.4-20.2,0L250,111.5" />
			<path class="st3" d="M196.8,64.3c-1.7-1.7-1.7-4.3,0-6L215,40.1c4-4,4-10.2,0-13.9c-4-4-10.2-4-13.9,0l-18.2,18.2
			c-1.7,1.7-4.3,1.7-6,0s-1.7-4.3,0-6l18.2-18.2c7.1-7.1,18.8-7.1,26.2,0s7.1,18.8,0,26.2l-18.2,18.2C201.1,66,198.5,66,196.8,64.3z
			 M267.1,134.5c-1.7-1.7-1.7-4.3,0-6l18.2-18.2c4-4,4-10.2,0-13.9c-4-3.7-10.2-4-13.9,0l-18.2,18.2c-1.7,1.7-4.3,1.7-6,0
			s-1.7-4.3,0-6l18.2-18.2c7.1-7.1,18.8-7.1,26.2,0c7.1,7.1,7.1,18.8,0,26.2l-18.2,18.2C271.6,136.2,268.8,136.2,267.1,134.5z" />
			<path class="st3" d="M289.6,90.1l-0.3-0.3c-19.1-25.9-41.8-48.6-67.4-67.7c-1.7-1.4-2.3-4-0.9-6c1.4-1.7,4-2.3,6-0.9
			c26.5,19.6,49.8,43,69.4,69.4c1.4,1.7,1.1,4.6-0.9,6C293.5,91.6,291.3,91.6,289.6,90.1z" />
			<path class="st3" d="M215,25.9l-0.3-0.3c-1.4-1.7-1.1-4.6,0.6-6l25.6-20.2c10.2-8,24.7-7.1,34.1,2l35,35.3c9.4,9.4,10,23.9,2,34.1
			l-20.2,25.3c-1.4,1.7-4,2-6,0.6s-2-4-0.6-6l20.2-25.3c5.4-6.8,4.8-16.5-1.1-22.8L268.8,7.4C262.5,1.1,252.9,0.6,246,6l-25.6,20.2
			C218.7,27.8,216.5,27.6,215,25.9z M264.2,125.7l-13.9,13.9l-8-8l13.9-13.9 M193.7,55.2l-13.9,13.9l-8-8l13.9-13.9" />
			<path class="st3" d="M247.2,142.8l-8.2-8.2c-1.7-1.7-1.7-4.3,0-6l13.9-13.9c1.7-1.7,4.3-1.7,6,0s1.7,4.3,0,6l-11.1,11.1l2,2
			l11.1-11.1c1.7-1.7,4.3-1.7,6,0s1.7,4.3,0,6l-13.7,14.2C251.4,144.5,248.9,144.5,247.2,142.8z M176.6,72.2l-8-8
			c-1.7-1.7-1.7-4.3,0-6l13.9-13.9c1.7-1.7,4.3-1.7,6,0s1.7,4.3,0,6l-11.1,11.1l2,2l11.1-11.1c1.7-1.7,4.3-1.7,6,0s1.7,4.3,0,6
			l-13.9,13.9C180.9,73.9,178.3,73.9,176.6,72.2z" />
			<path class="st3" d="M270.2,137.6l-96.4-96.4c-1.7-1.7-1.7-4.3,0-6s4.3-1.7,6,0l96.4,96.4c1.7,1.7,1.7,4.3,0,6
			C274.5,139.4,271.9,139.4,270.2,137.6z" />
			<path class="st2" d="M239.5,88.7l-16.8-16.8c-1.7-1.7-1.7-4.3,0-6l10-10c6.3-6.3,16.5-6.3,23,0l0,0c6.3,6.3,6.3,16.5,0,23l-10,10
			C243.8,90.4,241.2,90.4,239.5,88.7z" />
			<path class="st3" d="M302.4,29l-3.1,3.1L279,11.9l3.1-3.1l0,0c3.4-3.4,8.8-3.4,11.9,0l8,8C305.8,20.2,305.8,25.6,302.4,29
			L302.4,29z" />
			<path class="st2" d="M213,28.1c-2.8-2.8-7.4-2.8-10,0c-2.8,2.8-2.8,7.4,0,10c2.8,2.8,7.4,2.8,10,0C215.6,35.2,215.6,30.7,213,28.1
			z M283.3,98.4c-2.8-2.8-7.4-2.8-10,0s-2.8,7.4,0,10s7.4,2.8,10,0C285.9,105.5,286.2,101.2,283.3,98.4z" />
			<path class="st3" d="M253.2,148.7L169,64.5c-1.7-1.7-1.7-4.3,0-6s4.3-1.7,6,0l84.2,84.2c1.7,1.7,1.7,4.3,0,6
			C257.4,150.4,254.9,150.4,253.2,148.7z M274.2,157.8c-1.7-1.7-4.3-1.7-6,0s-1.7,4.3,0,6s4.3,1.7,6,0
			C275.9,162.1,275.9,159.5,274.2,157.8z" />
	</g>
		<g>
		<path class="st2" d="M395.7,154.4l68.3,68.3c2.8,2.8,2.8,7.1,0,10l-40.1,40.1c-2.8,2.8-7.1,2.8-10,0l-68.3-68.3
			c-2.8-2.8-2.8-7.1,0-10l40.1-40.1C388.3,151.6,392.8,151.6,395.7,154.4z M343.3,172.3l20.2-20.2l11.9,11.9l-20.2,20.2L343.3,172.3
			z" />
			<path class="st5" d="M415.6,174.3l48.4,48.4c2.8,2.8,2.8,7.1,0,10l-40.1,40.1c-2.8,2.8-7.1,2.8-10,0l-48.4-48.4
			c-2.8-2.8-2.8-7.1,0-10l40.1-40.1C408.5,171.5,412.7,171.5,415.6,174.3z" />
			<path class="st6" d="M454,222.7L454,222.7c2.8-2.8,2.8-7.1,0-10l-38.1-38.1c-2.8-2.8-7.1-2.8-10,0l-5.1,5.1l43,43
			C446.6,225.5,451.1,225.5,454,222.7z" />
			<path class="st3" d="M467.1,235.8l-40.4,40.1c-4.6,4.6-11.7,4.6-16.2,0l-68.3-68.3c-4.6-4.6-4.6-11.7,0-16.2l40.1-40.1
			c4.6-4.6,11.7-4.6,16.2,0l68.3,68.3C471.3,224.1,471.3,231.2,467.1,235.8z M348.2,197.7c-1.1,1.1-1.1,2.8,0,4l68.3,68.3
			c1.1,1.1,2.8,1.1,4,0l40.4-40.1c1.1-1.1,1.1-2.8,0-4l-68.3-68.3c-1.1-1.1-2.8-1.1-4,0L348.2,197.7z" />
			<path class="st2" d="M421.5,260.8c-1.7,1.7-4.3,1.7-6,0l-25-25c-1.7-1.7-1.7-4.3,0-6s4.3-1.7,6,0l25,25
			C423.3,256.5,423.3,259.1,421.5,260.8z M381.4,220.7c-0.9,0.9-2,1.4-3.1,1.1c-1.1,0-2.3-0.3-3.1-1.1c-0.9-0.9-1.4-2-1.1-3.1
			c0-0.3,0-0.6,0-0.9c0-0.3,0-0.6,0.3-0.9c0.3-0.3,0.3-0.6,0.3-0.9c0.9-1.1,2-2,3.4-2c1.1,0,2.3,0.3,3.1,1.1
			c0.3,0.3,0.3,0.3,0.6,0.6c0.3,0.3,0.3,0.6,0.3,0.9c0,0.3,0.3,0.6,0.3,0.9c0,0.3,0,0.6,0,0.9C382.9,218.7,382.3,219.8,381.4,220.7z
			" />
			<path class="st3" d="M378.3,167.5c-1.7,1.7-4.3,1.7-6,0l-9.1-9.1l-13.9,13.9l1.1,1.1c1.7,1.7,1.7,4.3,0,6s-4.3,1.7-6,0l-4-4
			c-1.7-1.7-1.7-4.3,0-6l20.2-20.2c1.7-1.7,4.3-1.7,6,0l11.9,11.9C380,163,380,165.8,378.3,167.5z" />
	</g>
		<g>
		<path class="st1" d="M896,289.5l8.5,8.5l-5.4,5.4l21.6,21.6l10.5-10.5L909.7,293l-5.1,5.1" />
			<path class="st2"
				d="M905.4,490.4L798.2,383.1c-6-6-6-15.4,0-21.3l53.2-53.2c5.7-5.7,15.4-5.7,21.3,0l107.2,107.2" />
			<path class="st2" d="M892,364.3l-38.1,38.1c-2.8,2.8-7.7,2.8-10.5,0l-24.7-24.7c-2.8-2.8-2.8-7.7,0-10.5l38.1-38.1
			c2.8-2.8,7.7-2.8,10.5,0l24.7,24.7C894.9,356.7,894.9,361.5,892,364.3z" />
			<path class="st3" d="M983.3,419.5c-2,2-5.4,2-7.4,0l-107-107c-3.7-3.7-10.2-4-13.9,0l-53.2,53.2c-3.7,3.7-3.7,10,0,13.9L909,486.8
			c2,2,2,5.4,0,7.4s-5.4,2-7.4,0L794.5,387.1c-8-8-8-20.8,0-28.7l53.2-53.2c8-8,20.8-8,28.7,0l107.2,107.2
			C985.6,414.4,985.3,417.5,983.3,419.5z" />
			<path class="st4" d="M892,364.3l-38.1,38.1c-2.8,2.8-7.7,2.8-10.5,0l-24.7-24.7c-2.8-2.8-2.8-7.7,0-10.5l38.1-38.1
			c2.8-2.8,7.7-2.8,10.5,0l24.7,24.7C894.9,356.7,894.9,361.5,892,364.3z" />
			<path class="st3" d="M895.7,368l-38.1,38.1c-4.8,4.8-13.1,4.8-17.9,0L815,381.4c-4.8-4.8-4.8-13.1,0-17.9l38.1-38.1
			c4.8-4.8,13.1-4.8,17.9,0l24.7,24.7C900.6,355,900.6,362.9,895.7,368z M822.3,370.9c-0.9,0.9-0.9,2.3,0,3.1l24.7,24.7
			c0.9,0.9,2.3,0.9,3.1,0l38.1-38.1c0.9-0.9,0.9-2.3,0-3.1l-24.7-24.7c-0.9-0.9-2.3-0.9-3.1,0L822.3,370.9z M994.1,409l-95.3,95.3
			c-2,2-5.4,2-7.4,0s-2-5.4,0-7.4l95.3-95.3c2-2,5.4-2,7.4,0C996.1,403.6,996.1,407,994.1,409z M988.4,392.8
			c-4.8,4.8-13.1,4.8-17.9,0l-43-43c-0.9-0.9-2.3-0.9-3.1,0l-5.4,5.4c-2,2-5.4,2-7.4,0s-2-5.4,0-7.4l5.4-5.4
			c4.8-4.8,13.1-4.8,17.9,0l43,43c0.9,0.9,2.3,0.9,3.1,0c0.9-0.9,0.9-2.3,0-3.1l-58.9-58.9c-2-2-2-5.4,0-7.4s5.4-2,7.4,0l58.9,58.9
			C993.3,379.7,993.3,388,988.4,392.8z" />
			<path class="st3" d="M934.7,318.3l-10.5,10.5c-2,2-5.4,2-7.4,0l-21.6-21.6c-2-2-2-5.4,0-7.4l1.7-1.7l-4.8-4.8c-2-2-2-5.4,0-7.4
			s5.4-2,7.4,0l4.8,4.8l1.4-1.4c2-2,5.4-2,7.4,0l21.3,21.3C936.7,312.9,936.7,316.3,934.7,318.3z M920.5,317.7l3.1-3.1l-13.9-13.9
			l-3.1,3.1L920.5,317.7z" />
			<g>
			<path class="st5" d="M923.9,444.6c-0.6,0.6-1.4,1.1-2.6,1.4c-2.8,0.6-5.7-1.1-6.3-3.7l-3.7-16.2l-3.7,5.4c-1.1,1.7-3.1,2.6-5.1,2
				s-3.7-2-4-4l-6.5-27c-0.6-2.8,1.1-5.7,3.7-6.3c2.8-0.6,5.7,1.1,6.3,3.7l3.7,16.2l3.7-5.4c1.1-1.7,3.1-2.6,5.1-2s3.7,2,4,4l6.3,27
				C925.6,441.7,925.3,443.4,923.9,444.6z" />
		</g>
	</g>
		<g>
		<path class="st11"
			d="M665,452.5l43.5,43.5l45.2-74.5c0.9-1.4,0.9-3.1-0.6-4.6l-9.4-9.4c-1.1-1.1-2.8-1.4-4.6-0.6L665,452.5z" />
			<path class="st2" d="M695.5,434l-17.6,10.8l38.4,38.4l0,0l10.8-17.6L695.5,434z M728.5,413.8l-17.6,10.8l25.6,25.6l10.8-17.6
			L728.5,413.8z" />
			<path class="st12" d="M749.8,413.3l3.7,3.7c1.1,1.1,1.4,2.8,0.6,4.6L708.6,496l-10-10l51.8-68.3
			C751.2,416.1,750.9,414.4,749.8,413.3z" />
			<g>
			<path class="st3" d="M706.6,498L663,454.5c-0.6-0.6-0.9-1.4-0.9-2.3s0.6-1.7,1.4-2L738,405c2.6-1.4,5.7-1.1,8,0.9l9.4,9.4
				c2,2,2.6,5.4,0.9,8l-45.5,74.2c-0.6,0.9-1.1,1.1-2,1.4C708,498.9,707.1,498.6,706.6,498z M669.6,453.1l38.4,38.4l43.5-71.7
				c0.3-0.3,0.3-0.9,0-0.9l-9.4-9.4c-0.3-0.3-0.6-0.3-0.9,0L669.6,453.1z" />
				<path class="st3" d="M655.6,447.1c-1.1-1.1-1.1-2.8,0-4s2.8-1.1,4,0l58,58l0,0c1.1,1.1,1.1,2.8,0,4s-2.8,1.1-4,0L655.6,447.1
				L655.6,447.1z" />
		</g>
	</g>
		<g>
		<path class="st2" d="M523.4,274.7l35.8-36.1c11.1-11.1,29.3-11.1,40.1,0l64.3,64.3c7.7,7.7,10.2,19.1,7.1,29.3l-1.1,3.4
			c-6.3,18.2-17.6,34.4-32.7,46.6l-5.7,4.8c-3.1,2.6-7.1-2-4.3-4.8l0,0" />
			<path class="st2" d="M642.8,376.3l0.3,0.3l0,0c3.4-3.4,6.8-7.4,10-11.1l0.3-0.3c0.6-0.6,1.1-1.4,1.4-2c0.3-0.3,0.3-0.3,0.3-0.6
			c0.6-0.6,0.9-1.4,1.4-2c0.3-0.3,0.3-0.6,0.6-0.6c0.3-0.6,0.9-1.4,1.4-2c0.3-0.3,0.3-0.3,0.3-0.6c0.9-1.4,1.7-2.8,2.6-4
			c0,0,0.3-0.3,0.3-0.6c0.3-0.6,0.6-1.1,0.9-1.7c0.3-0.6,0.6-0.9,0.9-1.4s0.6-0.9,0.6-1.4c0.3-0.6,0.6-1.1,0.9-1.7
			c0.3-0.3,0.6-0.9,0.6-1.4c0.3-0.6,0.6-1.1,0.9-1.7c0.3-0.3,0.3-0.9,0.6-1.4c0.3-0.6,0.6-1.4,0.9-2c0-0.3,0.3-0.6,0.3-1.1
			c0.3-1.1,0.6-2,1.1-3.1l1.1-3.4c3.4-10.2,0.6-21.6-7.1-29.3l-64-64c-11.1-11.1-29.3-11.1-40.1,0l-8,8l87.6,87.6
			C650,345.6,651.7,362.9,642.8,376.3z" />
			<path class="st2" d="M595.1,278.7l-10-10c-2.8-2.8-2.8-7.1,0-10l2-2c2.8-2.8,7.1-2.8,10,0l10,10c2.8,2.8,2.8,7.1,0,10l-2,2
			C602.2,281.6,597.9,281.3,595.1,278.7z M620.1,303.8l-10-10c-2.8-2.8-2.8-7.1,0-10l2-2c2.8-2.8,7.1-2.8,10,0l10,10
			c2.8,2.8,2.8,7.1,0,10l-2,2C627.5,306.6,622.9,306.6,620.1,303.8z M664.2,347.8c0.3-0.6,0.6-1.1,0.9-1.7c0.3-0.3,0.6-0.9,0.6-1.4
			c0.3-0.6,0.6-1.1,0.9-1.7c0.3-0.3,0.3-0.9,0.6-1.4c0.3-0.6,0.6-1.4,0.9-2c0-0.3,0.3-0.6,0.3-1.1c0.3-1.1,0.6-2,1.1-3.1l1.1-3.4
			c0.3-0.6,0.3-1.1,0.6-2l-23.3-23.3c-2.8-2.8-7.1-2.8-10,0l-2.3,2.3c-2.8,2.8-2.8,7.1,0,10L664.2,347.8L664.2,347.8z" />
			<path class="st3" d="M623.8,389.9l-0.3-0.3c-2.8-2.8-2.6-7.4,0.3-10.2c1.7-1.7,4.3-1.7,6,0c0.6,0.6,1.1,1.4,1.1,2.3l3.1-2.6
			c14.5-11.7,25-27.3,31.3-44.9l1.1-3.4c2.8-8.8,0.6-18.2-6-24.7l-64.3-64.3c-9.4-9.4-24.7-9.4-34.1,0l-35.8,35.8
			c-1.7,1.7-4.3,1.7-6,0s-1.7-4.3,0-6l35.8-35.8c12.8-12.8,33.6-12.8,46.4,0l64.3,64.3c8.8,8.8,11.9,21.6,8,33.6l-1.1,3.4
			c-6.5,19.1-18.2,35.8-33.8,48.6l-5.7,4.8C630.6,392.8,626.6,392.5,623.8,389.9z M644.8,388.2c-1.7-1.7-1.7-4.3,0-6L663,364
			c1.7-1.7,4.3-1.7,6,0s1.7,4.3,0,6l-18.2,18.2C649.4,389.9,646.5,389.9,644.8,388.2z" />
			<path class="st3" d="M599.6,361.2l-46.9-46.9c-1.7-1.7-1.7-4.3,0-6s4.3-1.7,6,0l47.2,46.9c1.7,1.7,1.7,4.3,0,6
			C604.2,362.9,601.3,362.9,599.6,361.2z M531.3,292.7L516,277.3c-1.7-1.7-1.7-4.3,0-6s4.3-1.7,6,0l15.4,15.4c1.7,1.7,1.7,4.3,0,6
			C535.6,294.4,533,294.4,531.3,292.7z M671.9,299.2l-66.6-66.6c-1.7-1.7-1.7-4.3,0-6s4.3-1.7,6,0l66.6,66.6c1.7,1.7,1.7,4.3,0,6
			S673.6,300.9,671.9,299.2z M640.3,379.7c-1.7-1.7-1.7-4-0.3-6c7.7-8.8,5.4-26.5-4.6-36.4l-87.6-87.6c-1.7-1.7-1.7-4.3,0-6
			s4.3-1.7,6,0l87.6,87.6c13.1,13.1,15.4,35.8,4.8,48.1C644.8,381.1,642.3,381.4,640.3,379.7L640.3,379.7z M565.2,246.9l-6.3-6.3
			c-1.7-1.7-1.7-4.3,0-6s4.3-1.7,6,0l6.3,6.3c1.7,1.7,1.7,4.3,0,6C569.7,248.6,566.9,248.6,565.2,246.9z M577.4,242.9l-6.3-6.3
			c-1.7-1.7-1.7-4.3,0-6s4.3-1.7,6,0l6.3,6.3c1.7,1.7,1.7,4.3,0,6C581.7,244.6,579.1,244.6,577.4,242.9z" />
			<path class="st2" d="M623.5,359.5c-5.4-5.4-13.9-5.4-19.3,0c-5.4,5.4-5.4,13.9,0,19.3l0,0c5.4,5.4,13.9,5.4,19.3,0
			C628.6,373.4,628.6,364.9,623.5,359.5L623.5,359.5z" />
			<path class="st3" d="M601,382c-7.1-7.1-6.8-18.5,0-25.3s18.5-6.8,25.3,0s7.1,18.5,0,25.3C619.5,389.1,608.1,388.8,601,382z
			 M620.4,362.6c-3.7-3.7-9.7-3.7-13.4,0s-3.7,9.7,0,13.4c3.7,3.7,9.7,3.7,13.4,0C624.1,372.3,624.1,366.3,620.4,362.6z" />
			<path class="st2" d="M535.3,290.7c-5.4,5.4-5.4,13.9,0,19.3s13.9,5.4,19.3,0c2.3-2.3,3.7-5.1,4-8.2l-15.1-15.1
			C540.4,287.3,537.6,288.4,535.3,290.7z" />
			<path class="st3" d="M532.5,313.1c-7.1-7.1-6.8-18.5,0-25.3c2.8-2.8,6.5-4.6,10.8-5.1c1.4,0,2.6,0.3,3.4,1.1l15.1,15.1
			c0.9,0.9,1.4,2.3,1.1,3.4c-0.3,4-2.3,8-5.1,10.8C550.7,320.3,539.3,320,532.5,313.1z M542.2,291.5c-1.4,0.3-2.6,1.1-3.7,2.3
			c-3.7,3.7-3.7,9.7,0,13.4c3.7,3.7,9.7,3.7,13.4,0c1.1-1.1,2-2.3,2.3-3.7L542.2,291.5z" />
			<g>
			<path class="st3" d="M619.2,244.6c-0.6-0.6-1.1-1.7-1.1-2.8l-0.6-14.8c0-2.3,1.7-4.3,4-4.6c2.3,0,4.3,1.7,4.6,4l0.6,14.8
				c0,2.3-1.7,4.3-4,4.6C621.2,245.7,620.1,245.2,619.2,244.6z" />
		</g>
			<g>
			<path class="st3" d="M623.8,385.4l-2.6-2.6c-1.7-1.7-1.7-4.3,0-6s4.3-1.7,6,0l2.6,2.6c1.7,1.7,1.7,4.3,0,6
				S625.5,387.1,623.8,385.4z" />
		</g>
	</g>
		<g>
		<path class="st2" d="M554.4,172.9l-3.1,3.1L450.6,75.4L523.9,2c5.4-5.4,14.5-5.4,20.2,0l70.3,70.3l0,0
			C611.3,101.5,575.1,152.2,554.4,172.9z" />
			<path class="st5" d="M514.8,63.4l48.1-11.7c1.7-0.3,2.6,1.7,1.1,2.6l-28.4,18.8l9.7,9.7c0.9,0.9,0.3,2.3-0.9,2.3l-43.8,6.8
			c-1.4,0.3-2.3-1.7-1.1-2.6l23.6-14.5l-9.4-9.4C513.4,64.8,513.7,63.7,514.8,63.4z" />
			<path class="st3" d="M595.6,115.5l-15.1-15.1c-7.1-7.1-7.1-18.8,0-26.2l8-8c1.7-1.7,4.3-1.7,6,0s1.7,4.3,0,6l-8,8
			c-4,4-4,10.2,0,13.9l15.1,15.1c1.7,1.7,1.7,4.3,0,6C599.9,117.2,597.3,117.2,595.6,115.5z" />
			<path class="st3" d="M548.4,178.9L447.7,78.2c-1.7-1.7-1.7-4.3,0-6l73.4-73.4c7.1-7.1,18.8-7.1,26.2,0l70.3,70.3l0,0l8,8
			c1.7,1.7,1.7,4.3,0,6s-4.3,1.7-6,0l-2.3-2.3c-8.2,31.3-41.5,76.2-60,94.7l-3.1,3.1C552.7,180.6,549.8,180.6,548.4,178.9z
			 M456.8,75.4l94.4,94.4c21.6-21.6,54.6-69.1,58.9-96.1L541.3,4.8c-4-4-10.2-4-13.9,0C527.1,5.1,456.8,75.4,456.8,75.4z" />
			<path class="st3" d="M548.4,178.9L443.7,74.2c-1.7-1.7-1.7-4.3,0-6s4.3-1.7,6,0l104.7,104.7c1.7,1.7,1.7,4.3,0,6
			C552.7,180.6,549.8,180.6,548.4,178.9z" />
			<path class="st2" d="M472.2,85.6c-5.4-5.4-13.9-5.4-19.3,0s-5.4,13.9,0,19.3l0,0c5.4,5.4,13.9,5.4,19.3,0
			C477.6,99.8,477.6,91,472.2,85.6L472.2,85.6z M536.5,150.2c-5.4-5.4-13.9-5.4-19.3,0c-5.4,5.4-5.4,13.9,0,19.3l0,0
			c5.4,5.4,13.9,5.4,19.3,0C541.9,164.1,541.9,155.3,536.5,150.2L536.5,150.2z" />
			<path class="st3" d="M450,108.1c-7.1-7.1-6.8-18.5,0-25.3c6.8-6.8,18.5-6.8,25.3,0s6.8,18.5,0,25.3
			C468.2,114.9,456.8,115.2,450,108.1z M469,88.7c-3.7-3.7-9.7-3.7-13.4,0s-3.7,9.7,0,13.4c3.7,3.7,9.7,3.7,13.4,0
			C472.7,98.4,473,92.4,469,88.7z" />
			<g>
			<path class="st3" d="M514.3,172.3c-7.1-7.1-6.8-18.5,0-25.3s18.5-6.8,25.3,0c7.1,7.1,6.8,18.5,0,25.3
				C532.8,179.5,521.4,179.5,514.3,172.3z M533.6,153c-3.7-3.7-9.7-3.7-13.4,0s-3.7,9.7,0,13.4s9.7,3.7,13.4,0
				C537,162.7,537.3,156.7,533.6,153z" />
		</g>
			<g>
			<path class="st3" d="M514.3,172.3l-84.5-84.5c-1.7-1.7-1.7-4.3,0-6s4.3-1.7,6,0l84.5,84.5c1.7,1.7,1.7,4.3,0,6
				C518.5,174.1,516,174.1,514.3,172.3z" />
		</g>
			<g>
			<path class="st3" d="M415.6,73.9c-0.3-0.3-0.3-0.3-0.6-0.6c0-0.3-0.3-0.6-0.3-0.9s-0.3-0.6-0.3-0.9s0-0.6,0-0.9s0-0.6,0-0.9
				s0-0.6,0.3-0.9c0.3,0,0.3-0.3,0.6-0.6c0.3-0.3,0.3-0.6,0.6-0.6c0.3,0,0.3-0.3,0.6-0.6c0.3-0.3,0.6-0.3,0.9-0.3s0.6,0,0.9-0.3
				s0.6,0,0.9,0s0.6,0,0.9,0s0.6,0,0.9,0.3s0.6,0.3,0.9,0.3c0.6,0.3,0.9,0.6,1.1,1.1c0.3,0.3,0.3,0.6,0.3,0.9s0.3,0.6,0.3,0.9
				s0,0.6,0,0.9s0,0.6,0,0.9s0,0.6-0.3,0.9c0,0.3-0.3,0.6-0.3,0.9c-0.3,0.3-0.3,0.6-0.6,0.6c-0.3,0-0.3,0.3-0.6,0.6
				c-0.3,0.3-0.6,0.3-0.9,0.3s-0.6,0.3-0.9,0.3s-0.6,0-0.9,0s-0.6,0-0.9,0s-0.6,0-0.9-0.3c-0.3,0-0.6-0.3-0.9-0.3
				C416.1,74.5,415.9,73.9,415.6,73.9z" />
		</g>
	</g>
		<path class="st3"
			d="M85.9,54.3l8.8,8.8l0,0l0,0c-5.7,5.4-11.1,9.7-17.6,5.1L76.2,68l-1.7-1.7" />
		<path class="st3" d="M92.7,65.1l-8.8-8.5c-1.1-1.1-1.1-2.8,0-4s2.8-1.1,4,0l8.8,8.8c1.1,1.1,1.1,2.8,0,4
		C95.6,66.5,93.9,66.2,92.7,65.1z M107.2,33.3l8.8,8.8l0,0l0,0c-5.7,5.4-11.1,9.7-17.6,5.1l-0.9-0.6l-1.7-1.7" />
		<path class="st3" d="M113.8,44.1l-8.5-8.8c-1.1-1.1-1.1-2.8,0-4c1.1-1.1,2.8-1.1,4,0l8.8,8.8c1.1,1.1,1.1,2.8,0,4
		C116.9,45.2,115.2,45.2,113.8,44.1z M59.2,27.6l-8.8-8.8l0,0l0,0c-5.4,5.7-9.7,11.1-5.1,17.6l0.6,0.9l1.7,1.7" />
		<path class="st3" d="M57.2,29.6l-8.8-8.8c-1.1-1.1-1.1-2.8,0-4c1.1-1.1,2.8-1.1,4,0l8.8,8.8c1.1,1.1,1.1,2.8,0,4S58,30.7,57.2,29.6
		z M80.2,6.2l-8.8-8.8l0,0l0,0C66,3.1,61.7,8.5,66.3,15l0.6,0.9l1.7,1.7" />
		<path class="st3" d="M78.2,8.2l-8.8-8.5c-1.1-1.1-1.1-2.8,0-4c1.1-1.1,2.8-1.1,4,0l8.8,8.8c1.1,1.1,1.1,2.8,0,4
		C81.4,9.6,79.4,9.4,78.2,8.2z" />
		<g>
		<path class="st2" d="M57.7,69.9l-13-13.3c-3.7-3.7-3.7-10,0-13.7L82.2,5.4c3.7-3.7,10-3.7,13.7,0l13.4,13.4c3.7,3.7,3.7,10,0,13.7
			L71.4,69.9C67.7,73.6,61.7,73.6,57.7,69.9z" />
	</g>
		<g>
		<path class="st11" d="M95.6,18.2c-4.3-4.3-11.1-4.3-15.1,0c-4.3,4.3-4.3,11.1,0,15.1l0,0c4.3,4.3,11.1,4.3,15.1,0
			S99.6,22.2,95.6,18.2L95.6,18.2z" />
	</g>
		<g>
		<path class="st2" d="M74,39.5c-4.3-4.3-11.1-4.3-15.1,0s-4.3,11.1,0,15.1l0,0c4.3,4.3,11.1,4.3,15.1,0
			C78.2,50.6,78.2,43.8,74,39.5L74,39.5z" />
	</g>
		<g>
		<path class="st3" d="M55.8,71.9L42.4,58.6c-4.8-4.8-4.8-12.8,0-17.6L79.9,3.4c4.8-4.8,12.8-4.8,17.6,0l13.4,13.4
			c4.8,4.8,4.8,12.8,0,17.6L73.7,71.9C68.6,76.8,60.9,76.8,55.8,71.9z M93.9,7.4c-2.6-2.6-6.8-2.6-9.7,0L46.6,44.9
			c-2.6,2.6-2.6,6.8,0,9.7L60,68c2.6,2.6,6.8,2.6,9.7,0l37.5-37.5c2.6-2.6,2.6-6.8,0-9.7L93.9,7.4z" />
	</g>
		<g>
		<path class="st3" d="M29.3,84.2c-1.1-1.1-1.1-2.8,0-4l19.1-19.1c1.1-1.1,2.8-1.1,4,0s1.1,2.8,0,4L33.3,84.2
			C32.4,85.3,30.4,85.3,29.3,84.2z" />
	</g>
		<g>
		<path class="st5" d="M802.4,224.7l-70.5-70.5L685,201.1c-4.3,4.3-4.3,11.4,0,15.6l54.9,54.9c4.3,4.3,11.4,4.3,15.6,0L802.4,224.7z
			" />
			<path class="st2" d="M731,207.9l33.3-8.2c1.1-0.3,1.7,1.1,0.9,1.7l-19.6,13.1l6.8,6.8c0.6,0.6,0.3,1.4-0.6,1.7l-30.2,4.8
			c-1.1,0.3-1.4-1.1-0.6-1.7l16.2-9.7l-6.5-6.5C729.9,209,730.2,208.2,731,207.9z" />
			<path class="st6" d="M794.7,217l-45.5,45.5c-0.9,0.9-2.3,0.9-3.1,0L712.5,229c-2.3-2.3-5.7-2.3-8,0l0,0c-2.3,2.3-2.3,5.7,0,8
			l35.3,35.3c4.3,4.3,11.4,4.3,15.6,0l46.9-46.9L794.7,217z" />
			<path class="st2" d="M737.6,141.1l78.2,78.2l-9.4,9.4l-78.2-78.2L737.6,141.1z M760.9,164.4l9.4-9.4l-11.7-11.7l-9.4,9.4
			 M804.1,207.6l9.4-9.4l-11.7-11.7l-9.4,9.4" />
			<path class="st3" d="M737.6,274.2l-54.9-54.9c-5.7-5.7-5.7-14.8,0-20.5l39.3-39.3c1.4-1.4,3.4-1.4,4.8,0s1.4,3.4,0,4.8l-39.3,39.3
			c-3.1,3.1-3.1,8,0,11.1l54.9,54.9c3.1,3.1,8,3.1,11.1,0l46.9-46.9c1.4-1.4,3.4-1.4,4.8,0c1.4,1.4,1.4,3.4,0,4.8l-46.9,46.9
			C752.1,279.6,743.3,279.6,737.6,274.2z" />
			<path class="st2" d="M714,188c-1.4-1.4-1.4-3.4,0-4.8l23.6-23.6c1.4-1.4,3.4-1.4,4.8,0c1.4,1.4,1.4,3.4,0,4.8L718.8,188
			C717.4,189.1,715.4,189.1,714,188z M702.3,199.7c-0.3-0.3-0.3-0.3-0.3-0.6c-0.3-0.3-0.3-0.3-0.3-0.6s0-0.3-0.3-0.6
			c0-0.3,0-0.3,0-0.6s0-0.6,0-0.6c0-0.3,0-0.3,0.3-0.6c0-0.3,0.3-0.3,0.3-0.6s0.3,0,0.3-0.3c0.3-0.3,0.3-0.3,0.6-0.3
			s0.3-0.3,0.6-0.3s0.6-0.3,0.6-0.3c0.3,0,0.3,0,0.6,0s0.6,0,0.6,0s0.3,0,0.6,0.3c0.3,0,0.3,0.3,0.6,0.3c0.9,0.6,1.4,1.7,1.4,2.8
			c0,0.3,0,0.6,0,0.6c0,0.3,0,0.3-0.3,0.6c0,0.3-0.3,0.3-0.3,0.6s-0.6,0.3-0.6,0.3c-0.6,0.6-1.4,1.1-2.3,0.9
			C703.7,200.8,702.9,200.2,702.3,199.7z" />
			<path class="st3" d="M804.1,230.9l-78.2-78.2c-1.4-1.4-1.4-3.4,0-4.8l9.4-9.4c1.4-1.4,3.4-1.4,4.8,0l78.2,78.2
			c1.4,1.4,1.4,3.4,0,4.8l-9.4,9.4C807.5,232.4,805.3,232.4,804.1,230.9z M732.7,150.4l73.7,73.7l4.8-4.8l-73.7-73.7L732.7,150.4z" />
			<path class="st3" d="M758.6,166.7c-1.4-1.4-1.4-3.4,0-4.8l7.1-7.1l-7.1-7.1l-0.9,0.9c-1.4,1.4-3.4,1.4-4.8,0
			c-1.4-1.4-1.4-3.4,0-4.8l3.1-3.1c1.4-1.4,3.4-1.4,4.8,0l11.7,11.7c1.4,1.4,1.4,3.4,0,4.8l-9.4,9.4
			C762,168.1,760,168.1,758.6,166.7z M801.6,209.9c-1.4-1.4-1.4-3.4,0-4.8l7.1-7.1l-7.1-7.1l-0.9,0.9c-1.4,1.4-3.4,1.4-4.8,0
			c-1.4-1.4-1.4-3.4,0-4.8l3.1-3.1c1.4-1.4,3.4-1.4,4.8,0l11.7,11.7c1.4,1.4,1.4,3.4,0,4.8l-9.4,9.4C805,211,803,211,801.6,209.9z" />
	</g>
		<g>
		<path class="st7" d="M878.4,170.9l97.6,97.6l10.8-10.8c6-6,6-15.6,0-21.6l-38.7-38.7l-1.7-0.6c-6.5-2.3-8.5-10.5-3.7-15.6
			l-3.4-3.4C921.6,160.4,901.1,161.3,878.4,170.9" />
			<path class="st8" d="M909.4,164.4C909.4,164.1,909.4,164.1,909.4,164.4c-1.1-0.3-2-0.3-2.8-0.3c-8.8,0.3-18.2,2.8-28.2,6.8l0,0
			l31,31C919.6,191.7,919.6,174.6,909.4,164.4 M991,246.6c-10.2-7.7-25-6.8-34.7,2.6l19.3,19.3l10.8-10.8
			C989.6,254.6,991,250.6,991,246.6" />
			<path class="st3" d="M972.8,271.6L875.2,174c-1.1-1.1-1.4-2.3-1.1-3.7c0.3-1.4,1.1-2.6,2.6-3.1c27.9-11.9,48.6-9.4,65.7,8l0.3,0.3
			c1.7,1.7,1.7,4.3,0,6s-4.3,1.7-6,0l-0.3-0.3c-13.4-13.4-29.3-16.2-50.6-8.2l89.9,89.9l8-8c4.3-4.3,4.3-11.4,0-15.6l-34.4-34.7
			c-1.1-1.1-1.4-2.3-1.1-3.7l1.7-10.8c0.3-2.3,2.6-4,4.8-3.4c2.3,0.3,4,2.6,3.4,4.8l-1.4,8.5l33.3,33c7.7,7.7,7.7,20.2,0,27.9
			l-10.8,10.8C977.4,273.3,974.5,273.3,972.8,271.6z" />
			<path class="st2" d="M901.4,172.3c-6-6-15.6-6-21.6,0s-6,15.6,0,21.6l0,0c6,6,15.6,6,21.6,0C907.4,188,907.4,178.3,901.4,172.3
			L901.4,172.3z M957.7,216.4c-3.4-3.4-8.8-3.4-11.9,0c-3.4,3.4-3.4,8.8,0,11.9c3.4,3.1,8.8,3.4,11.9,0
			C960.9,225,960.9,219.6,957.7,216.4z" />
			<path class="st3" d="M876.7,197.1c-7.7-7.7-7.7-20.2,0-27.9s20.2-7.7,27.9,0s7.7,20.2,0,27.9C896.6,204.8,884.3,204.8,876.7,197.1
			z M898.3,175.2c-4.3-4.3-11.4-4.3-15.6,0c-4.3,4.3-4.3,11.4,0,15.6c4.3,4.3,11.4,4.3,15.6,0C902.5,186.6,902.5,179.7,898.3,175.2z
			" />
			<path class="st2" d="M986.2,257.1c-6-6-15.6-6-21.6,0s-6,15.6,0,21.6l0,0c6,6,15.6,6,21.6,0C992.1,272.8,992.1,263.1,986.2,257.1
			L986.2,257.1z" />
			<path class="st3" d="M961.4,281.9c-7.7-7.7-7.7-20.2,0-27.9c7.7-7.7,20.2-7.7,27.9,0c7.7,7.7,7.7,20.2,0,27.9
			C981.6,289.5,969.1,289.5,961.4,281.9z M983.3,260.2c-4.3-4.3-11.4-4.3-15.6,0c-4.2,4.3-4.3,11.4,0,15.6c4.3,4.3,11.4,4.3,15.6,0
			C987.6,271.6,987.6,264.5,983.3,260.2z" />
			<path class="st3" d="M961.4,281.9l-98.1-98.1c-1.7-1.7-1.7-4.3,0-6s4.3-1.7,6,0l98.1,98.1c1.7,1.7,1.7,4.3,0,6
			S963.1,283.6,961.4,281.9z M851.3,171.8c-0.9-0.9-1.4-2-1.1-3.1c0-1.1,0.3-2.3,1.1-3.1c0.9-0.9,2-1.4,3.1-1.1c2.3,0,4.3,2,4.3,4.3
			c0,1.1-0.3,2.3-1.1,3.1c-0.9,0.9-2,1.4-3.1,1.1C853.3,173.2,852.2,172.6,851.3,171.8z" />
	</g>
		<g>
		<path class="st3" d="M789.9,46.3c0-8.5,6.8-15.4,15.4-15.4c8.5,0,15.4,6.8,15.4,15.4s-6.8,15.4-15.4,15.4 M752.6,8.8
			c0-8.5,6.8-15.4,15.4-15.4s15.4,6.8,15.4,15.4s-6.8,15.4-15.4,15.4" />
			<path class="st11" d="M782.2,91.6l-59.7-59.7c-0.6-0.6-0.6-1.7,0-2.6L741.8,10c0.6-0.6,1.7-0.6,2.6,0l59.7,59.7
			c0.6,0.6,0.6,1.7,0,2.6l-19.3,19.3C783.9,92.4,782.8,92.4,782.2,91.6z" />
			<path class="st2" d="M725.6,26.4l-3.1,3.1c-0.6,0.6-0.6,1.7,0,2.6l5.1,5.1l40.4-3.4l0,0L757.2,23L725.6,26.4z M737.3,46.9
			l-0.6-0.6l11.4,11.4l40.4-3.1l0,0l-10.8-10.8L737.3,46.9z M801,75.6l3.1-3.1c0.6-0.6,0.6-1.7,0-2.6l-5.1-5.1L758.6,68l0,0
			l10.5,10.5L801,75.6z M772.6,4.2c-2.6-2.6-6.8-2.6-9.4,0s-2.6,6.8,0,9.4s6.8,2.6,9.4,0C775.1,11.1,775.1,6.8,772.6,4.2z
			 M810.1,41.5c-2.6-2.6-6.8-2.6-9.4,0c-2.6,2.6-2.6,6.8,0,9.4c2.6,2.6,6.8,2.6,9.4,0C812.7,48.3,812.7,44.1,810.1,41.5z" />
			<path class="st3" d="M780.2,93.6l-59.7-59.7c-1.7-1.7-1.7-4.6,0-6.3l19.3-19.3c1.7-1.7,4.6-1.7,6.3,0L805.8,68
			c1.7,1.7,1.7,4.6,0,6.3l-19.3,19.3C784.8,95.3,782.2,95.3,780.2,93.6z M725,30.7l58.6,58.6l17.9-17.9L743,12.8L725,30.7z
			 M712,64.8c-1.1-1.1-1.1-2.6,0-3.7l14.2-14.2c1.1-1.1,2.6-1.1,3.7,0c1.1,1.1,1.1,2.6,0,3.7l-14.2,14.2C714.5,66,713.1,66,712,64.8
			z M749.2,102.4c-1.1-1.1-1.1-2.6,0-3.7l14.2-14.2c1.1-1.1,2.6-1.1,3.7,0c1.1,1.1,1.1,2.6,0,3.7l-14.2,14.2
			C752.1,103.2,750.4,103.2,749.2,102.4z" />
	</g>
		<rect y="-34.4" class="st13" width="1024" height="568.9" />
</g>
	<g id="Ebene_2_1_">
	<g>
		<g>
			<g>
				<path class="st14"
					d="M195.1,301.8l-4-35.1l-6.1,0.6l4,35.1L195.1,301.8z M216.9,299.2l-4-35.1l-6.1,0.6l4,35.1L216.9,299.2z" />
				<path class="st15" d="M228.3,347c-1.9,2.3-3.4,3.8-3.6,4c-5.5,4.4-9.9,5.7-13.5,4c-6.3-3.2-5.9-15-5.7-16.3l4.4,0.2
					c-0.2,3.4,0.4,10.6,3.4,12c1.7,0.8,4.6-0.2,8.5-3.4l0,0c0,0,12.3-12.3,9.7-22c-3-11.6,10.6-28.3,15-34l0.6-0.6l3.6,2.7l-0.6,0.8
					c-13.7,16.9-15.2,25.6-14.2,30C238,333,232.3,342.1,228.3,347z" />
				<path class="st15"
					d="M181.6,301.3l1.7,14.4l13.3,8.9l18-1.9l11-11.6l-1.7-14.4L181.6,301.3z" />
				<g>
					<path class="st16" d="M214.3,322.7l-18,1.9l3.8,15.8l14.2-1.7V322.7L214.3,322.7z M227.2,284.6l1.5,13.1l-51.5,5.9l-1.5-13.1
						L227.2,284.6z" />
				</g>
			</g>
			<g>
				<g>
					<path class="st17" d="M267.6,140.1c-37,0-67,30-67,67c0,50.5,56.4,76.9,63.2,148.9c0.2,2.1,1.9,3.6,4,3.6s3.8-1.5,4-3.6
						c6.8-72,63.2-98.4,63.2-148.9C334.5,169.9,304.5,140.1,267.6,140.1z" />
					<path class="st18" d="M267.6,141.6c36.8,0,66.5,29.6,67,66.1c0-0.2,0-0.4,0-0.6c0-37-30-67-67-67s-67,29.8-67,67
						c0,0.2,0,0.4,0,0.6C201,171.2,230.8,141.6,267.6,141.6L267.6,141.6z" />
					<path class="st19" d="M271.6,354.4c-0.2,2.1-1.9,3.6-4,3.6s-3.8-1.5-4-3.6c-6.5-71.8-62.5-98.2-63-148.1c0,0.4,0,0.6,0,1.1
						c0,50.5,56.4,76.9,63.2,148.9c0.2,2.1,1.9,3.6,4,3.6s3.8-1.5,4-3.6c6.8-72,63.2-98.4,63.2-148.9c0-0.4,0-0.6,0-1.1
						C334.1,256.1,278.1,282.5,271.6,354.4L271.6,354.4z" />
				</g>
				<path class="st20"
					d="M252.2,174.4V215h11v33.2l25.8-44.4h-14.8l14.8-29.6C289.1,174.4,252.2,174.4,252.2,174.4z" />
			</g>
		</g>
		<g class="st21">
			<path class="st2"
				d="M483.6,243h-45.4v39.6h52.2v6.9H430v-97.1h60.1v6.9h-51.9v36.7h45.4V243z" />
			<path class="st2"
				d="M536.9,277.5l0.5,2.1l0.6-2.1l30.5-85.1h9l-36.1,97.1h-7.9l-36.1-97.1h8.9L536.9,277.5z" />
			<path class="st2" d="M602.7,192.5l35.8,85.7l35.9-85.7h10.9v97.1h-8.2v-42.3l0.7-43.3l-36.1,85.6h-6.3l-36-85.3l0.7,42.7v42.5
				h-8.2v-97.1H602.7z" />
			<path class="st2" d="M753.7,289.5c-0.8-2.3-1.3-5.6-1.5-10.1c-2.8,3.6-6.4,6.5-10.7,8.4c-4.3,2-8.9,3-13.8,3
				c-6.9,0-12.5-1.9-16.8-5.8c-4.3-3.9-6.4-8.8-6.4-14.7c0-7,2.9-12.6,8.8-16.7c5.8-4.1,14-6.1,24.4-6.1h14.5v-8.2
				c0-5.2-1.6-9.2-4.8-12.2c-3.2-3-7.8-4.4-13.9-4.4c-5.6,0-10.2,1.4-13.8,4.3c-3.6,2.8-5.5,6.3-5.5,10.3l-8-0.1
				c0-5.7,2.7-10.7,8-14.9c5.3-4.2,11.9-6.3,19.7-6.3c8,0,14.4,2,19,6c4.6,4,7,9.6,7.2,16.8v34.1c0,7,0.7,12.2,2.2,15.7v0.8H753.7z
				 M728.6,283.8c5.3,0,10.1-1.3,14.3-3.9c4.2-2.6,7.3-6,9.2-10.3v-15.9h-14.3c-8,0.1-14.2,1.5-18.7,4.4c-4.5,2.8-6.7,6.7-6.7,11.6
				c0,4,1.5,7.4,4.5,10.1S723.8,283.8,728.6,283.8z" />
			<path class="st2" d="M839.3,254.2c0,11.2-2.5,20.2-7.5,26.8c-5,6.6-11.6,9.9-20,9.9c-9.9,0-17.4-3.5-22.7-10.4v36.8h-7.9v-99.9
				h7.4l0.4,10.2c5.2-7.7,12.7-11.5,22.6-11.5c8.6,0,15.4,3.3,20.3,9.8c4.9,6.5,7.4,15.6,7.4,27.2V254.2z M831.3,252.8
				c0-9.2-1.9-16.5-5.7-21.8c-3.8-5.3-9-8-15.8-8c-4.9,0-9.1,1.2-12.6,3.5c-3.5,2.4-6.2,5.8-8.1,10.3v34.6c1.9,4.1,4.6,7.3,8.2,9.5
				c3.6,2.2,7.8,3.3,12.6,3.3c6.7,0,11.9-2.7,15.7-8C829.4,270.7,831.3,263,831.3,252.8z" />
		</g>
	</g>
</g>
</svg>
