<?xml version="1.0" encoding="UTF-8"?>
<svg id="Ebene_2" data-name="Ebene 2" xmlns="http://www.w3.org/2000/svg" viewBox="0 0 512 512">
    <defs>
        <style>
            .cls-1 {
            fill: #00e676;
            }

            .cls-1, .cls-2, .cls-3, .cls-4, .cls-5, .cls-6, .cls-7, .cls-8 {
            stroke-width: 0px;
            }

            .cls-2 {
            fill: rgba(255, 255, 255, .2);
            }

            .cls-3 {
            fill: #ffb300;
            }

            .cls-4 {
            fill: #000;
            isolation: isolate;
            opacity: .45;
            }

            .cls-5 {
            fill: #fff;
            }

            .cls-6 {
            fill: #90a4ae;
            }

            .cls-7 {
            fill: #546e7a;
            }

            .cls-8 {
            fill: rgba(62, 39, 35, .2);
            }
        </style>
    </defs>
    <g id="Layer_1" data-name="Layer 1">
        <g>
            <rect class="cls-5" width="512" height="512" />
            <g>
                <g>
                    <path class="cls-3"
                        d="M159.42,338.98l-6.43-56.15-9.81,1.01,6.43,56.15,9.81-1.01ZM194.26,334.92l-6.43-56.15-9.81,1.01,6.43,56.15,9.81-1.01Z" />
                    <path class="cls-6"
                        d="M212.53,411.37c-3.04,3.72-5.41,6.09-5.75,6.43-8.79,7.1-15.9,9.13-21.65,6.43-10.15-5.07-9.47-24.02-9.13-26.05l7.1.34c-.34,5.41.68,16.91,5.41,19.28,2.71,1.35,7.44-.34,13.53-5.41h0s19.62-19.62,15.56-35.18c-4.74-18.6,16.91-45.33,24.02-54.46l1.01-1.01,5.75,4.4-1.01,1.35c-21.99,27.06-24.35,40.93-22.66,48.03,3.38,13.53-5.75,28.08-12.18,35.85Z" />
                    <path class="cls-6"
                        d="M137.78,338.3l2.71,23,21.31,14.21,28.75-3.04,17.59-18.6-2.71-23-67.65,7.44Z" />
                    <path class="cls-7"
                        d="M190.21,372.47l-28.75,3.04,6.09,25.37,22.66-2.71v-25.71h0ZM210.84,311.58l2.37,20.97-82.53,9.47-2.37-20.97,82.53-9.47Z" />
                </g>
                <g>
                    <g>
                        <path class="cls-1"
                            d="M275.45,80.22c-59.19,0-107.23,48.03-107.23,107.23,0,80.84,90.31,123.12,101.14,238.47.34,3.38,3.04,5.75,6.43,5.75s6.09-2.37,6.43-5.75c10.82-115.34,101.14-157.63,101.14-238.47-.68-59.53-48.71-107.23-107.9-107.23Z" />
                        <path class="cls-2"
                            d="M275.45,82.58c58.86,0,106.55,47.36,107.23,105.87v-1.01c0-59.19-48.03-107.23-107.23-107.23s-107.23,47.69-107.23,107.23v1.01c.68-58.52,48.37-105.87,107.23-105.87h0Z" />
                        <path class="cls-8"
                            d="M281.87,423.21c-.34,3.38-3.04,5.75-6.43,5.75s-6.09-2.37-6.43-5.75c-10.49-115.01-100.12-157.29-100.8-237.12v1.69c0,80.84,90.31,123.12,101.14,238.47.34,3.38,3.04,5.75,6.43,5.75s6.09-2.37,6.43-5.75c10.82-115.34,101.14-157.63,101.14-238.47v-1.69c-1.35,79.83-90.99,122.11-101.48,237.12h0Z" />
                    </g>
                    <path class="cls-4"
                        d="M250.75,135.01v64.94h17.59v53.11l41.27-71.03h-23.68l23.68-47.36c.34.34-58.86.34-58.86.34Z" />
                </g>
            </g>
        </g>
    </g>
</svg>