<?xml version="1.0" encoding="utf-8"?><!-- Generator: Adobe Illustrator 23.0.1, SVG Export Plug-In . SVG Version: 6.00 Build 0)  -->
<svg version="1.1" id="Ebene_1" xmlns="http://www.w3.org/2000/svg" x="0px" y="0px"
	viewBox="0 0 233.8 368.4" style="enable-background:new 0 0 233.8 368.4;" xml:space="preserve">
<style type="text/css">
	.st0{fill:#FFFFFF;}
	.st1{fill:#B5B5B5;}
	.st2{fill:#808080;}
</style>
	<g>
	<g>
		<g>
			<path class="st0" d="M109.8,0h13.6c33.9,1.9,67.1,18.5,87.7,45.8c13.5,17.2,21,38.6,22.7,60.3v8.1c-0.8,42.1-27.7,76.6-51,109.4
				c-26.2,37-50.4,77.3-57.1,122.9c-1.8,7.7,0.4,18.5-8.9,22c-2.2-1.7-4.7-3.1-6.2-5.4c-2.7-25.5-9.1-50.7-20-73.9
				c-12.3-27.1-29.5-51.6-47-75.6C33,199,23,184.2,14.7,168.3c-13-23.8-17.9-51.9-12.5-78.6C6.6,68.6,17.6,49.1,32.8,34
				C53.3,14,81.1,1.8,109.8,0z" />
		</g>
	</g>
</g>
	<g>
	<polygon class="st1"
		points="143.2,109.4 123.5,143.2 123.5,181.3 166.9,106.9 144.7,106.9 	" />
		<path class="st1"
			d="M122.2,101.9h16.7h5.7l22.3-44.6c0,0-10.2,0-22.4,0l-1.1,2.2L122.2,101.9z" />
		<path class="st2" d="M138.9,57.3c-9.7,0-19.8,0-26.4,0c-2.5,0-5.1,0-7.6,0c-8.2,0-16.1,0-21.4,0c-4.1,0-6.6,0-6.6,0v68.2h18.6v55.8
		l43.4-74.4h-24.8L138.9,57.3z" />
</g>
</svg>
