<?xml version="1.0" encoding="utf-8"?><!-- Generator: Adobe Illustrator 24.3.0, SVG Export Plug-In . SVG Version: 6.00 Build 0)  -->
<svg version="1.1" id="Ebene_1" xmlns="http://www.w3.org/2000/svg" x="0px" y="0px"
	viewBox="0 0 233.8 368.4" style="enable-background:new 0 0 233.8 368.4;" xml:space="preserve">
<style type="text/css">
	.st0{fill:#FFFFFF;}
	.st1{fill:#808080;}
	.st2{fill:#B5B5B5;}
</style>
	<g>
	<path class="st0" d="M117,367.4c-0.4-0.3-0.8-0.6-1.2-0.9c-1.6-1.2-3.1-2.3-4.2-3.7c-2.9-26.9-9.6-51.7-20.1-74
		c-12.4-27.3-30.1-52.4-47.1-75.8c-8.7-12-19.8-27.9-28.8-45.2C2.3,143.6-2.1,115.9,3.2,89.9c4.3-20.4,15-40,30.3-55.2
		C53.6,15.1,81.5,2.8,109.9,1l13.5,0c34.4,1.9,66.9,18.9,86.9,45.4c12.8,16.3,20.8,37.5,22.5,59.8l0,8
		c-0.7,38.8-23.7,70.9-45.9,101.9c-1.7,2.3-3.3,4.6-5,6.9c-24.4,34.5-50.3,76.1-57.3,123.3c-0.5,2-0.7,4.3-0.9,6.5
		C123.3,359,122.8,364.9,117,367.4z" />
		<path class="st1" d="M123.3,2c34.1,1.9,66.3,18.8,86.2,45c12.6,16.1,20.5,37.1,22.3,59.1l0,8c-0.7,38.5-23.6,70.5-45.7,101.3
		c-1.7,2.3-3.3,4.6-5,6.9c-24.5,34.6-50.5,76.3-57.4,123.7c-0.5,2.1-0.7,4.4-0.9,6.7c-0.5,5.9-1,11-5.8,13.4
		c-0.2-0.2-0.5-0.4-0.7-0.5c-1.5-1.1-2.9-2-3.8-3.3c-2.9-26.9-9.7-51.8-20.1-74C80,261,62.3,235.8,45.2,212.4
		c-8.7-11.9-19.8-27.8-28.8-45.1C3.3,143.3-1,115.9,4.2,90.1c4.2-20.2,14.9-39.6,30-54.7C54.2,16,81.7,3.8,109.9,2H123.3 M123.4,0
		h-13.6c-28.7,1.8-56.5,14-77,34C17.6,49.1,6.6,68.6,2.2,89.7c-5.4,26.7-0.5,54.8,12.5,78.6C23,184.2,33,199,43.6,213.6
		c17.5,24,34.7,48.5,47,75.6c10.9,23.2,17.3,48.4,20,73.9c1.5,2.3,4,3.7,6.2,5.4c9.3-3.5,7.1-14.3,8.9-22
		c6.7-45.6,30.9-85.9,57.1-122.9c23.3-32.8,50.2-67.3,51-109.4v-8.1c-1.7-21.7-9.2-43.1-22.7-60.3C190.5,18.5,157.3,1.9,123.4,0
		L123.4,0z" />
</g>
	<polygon class="st2" points="143.2,109.4 123.5,143.2 123.5,181.3 166.9,106.9 144.7,106.9 " />
	<path class="st2" d="M122.2,101.9h16.7h5.7l22.3-44.6c0,0-10.2,0-22.4,0l-1.1,2.2L122.2,101.9z" />
	<path class="st1" d="M138.9,57.3c-9.7,0-19.8,0-26.4,0c-2.5,0-5.1,0-7.6,0c-8.2,0-16.1,0-21.4,0c-4.1,0-6.6,0-6.6,0v68.2h18.6v55.8
	l43.4-74.4h-24.8L138.9,57.3z" />
</svg>
