<?xml version="1.0" encoding="utf-8"?><!-- Generator: Adobe Illustrator 23.0.1, SVG Export Plug-In . SVG Version: 6.00 Build 0)  -->
<svg version="1.1" id="Ebene_1" xmlns="http://www.w3.org/2000/svg" x="0px" y="0px"
    viewBox="0 0 233.8 368.4" style="enable-background:new 0 0 233.8 368.4;" xml:space="preserve">
<style type="text/css">
	.st0{fill:#FFFFFF;}
	.st1{display:none;}
	.st2{display:inline;fill:#802C27;}
	.st3{fill:#808080;}
	.st4{display:none;fill:#802C27;}
</style>
    <g>
	<g>
		<g>
			<path class="st0" d="M109.8,0h13.6c33.9,1.9,67.1,18.5,87.7,45.8c13.5,17.2,21,38.6,22.7,60.3v8.1c-0.8,42.1-27.7,76.6-51,109.4
				c-26.2,37-50.4,77.3-57.1,122.9c-1.8,7.7,0.4,18.5-8.9,22c-2.2-1.7-4.7-3.1-6.2-5.4c-2.7-25.5-9.1-50.7-20-73.9
				c-12.3-27.1-29.5-51.6-47-75.6C33,199,23,184.2,14.7,168.3c-13-23.8-17.9-51.9-12.5-78.6c4.4-21.1,15.4-40.6,30.6-55.7
				C53.3,14,81.1,1.8,109.8,0z" />
		</g>
	</g>
        <g class="st1">
		<path class="st2" d="M107.2,74.1c18.9-4.8,40.4,5.5,47.7,23.7c6.1,14.5,1.9,32.5-9.9,42.9c-12.6,11.5-32.4,14-47.5,6
			c-13.9-6.8-23-22.6-21.3-38.1C77.6,92,91.1,77.7,107.2,74.1z" />
	</g>
</g>
    <path class="st3" d="M90.9,57.3v68.2h18.6v55.8l43.4-74.4h-24.8l24.8-49.6H90.9z" />
    <path class="st4" d="M159,85.3L159,85.3l-20.8-20.9l-5.9,5.9l11.8,11.8c-5.3,2-9,7.1-9,13.1c0,7.7,6.3,14,14,14c2,0,3.9-0.4,5.6-1.2
	v40.4c0,3.1-2.5,5.6-5.6,5.6s-5.6-2.5-5.6-5.6v-25.2c0-6.2-5-11.2-11.2-11.2h-5.6V72.8c0-6.2-5-11.2-11.2-11.2H81.8
	c-6.2,0-11.2,5-11.2,11.2v89.7h56.1v-42.1h8.4v28c0,7.7,6.3,14,14,14s14-6.3,14-14V95.2C163.1,91.3,161.6,87.8,159,85.3
	 M149.1,100.8c-3.1,0-5.6-2.5-5.6-5.6c0-3.1,2.5-5.6,5.6-5.6s5.6,2.5,5.6,5.6C154.7,98.3,152.2,100.8,149.1,100.8 M93.1,145.6v-25.2
	H81.8l22.4-42.1v28h11.2L93.1,145.6z" />
</svg>
