<?xml version="1.0" encoding="UTF-8" standalone="no"?><!-- Created with Inkscape (http://www.inkscape.org/) -->

<svg xmlns:dc="http://purl.org/dc/elements/1.1/" xmlns:cc="http://creativecommons.org/ns#"
    xmlns:rdf="http://www.w3.org/1999/02/22-rdf-syntax-ns#" xmlns="http://www.w3.org/2000/svg"
    xmlns:sodipodi="http://sodipodi.sourceforge.net/DTD/sodipodi-0.dtd"
    xmlns:inkscape="http://www.inkscape.org/namespaces/inkscape" width="363.80554mm"
    height="72.554214mm" viewBox="0 0 1289.0747 257.0819" id="svg4985" version="1.1"
    inkscape:version="0.92.3 (2405546, 2018-03-11)" sodipodi:docname="logo_text_small2.svg"
    inkscape:export-filename="/home/nih/Desktop/cp/logos/powered_by/logo_text_white_small.png"
    inkscape:export-xdpi="42.009968" inkscape:export-ydpi="42.009968">
  <defs id="defs4987">
    <inkscape:perspective sodipodi:type="inkscape:persp3d" inkscape:vp_x="0 : 152.57443 : 1"
        inkscape:vp_y="0 : 1000.0001 : 0" inkscape:vp_z="305.14877 : 152.57443 : 1"
        inkscape:persp3d-origin="152.57439 : 101.71629 : 1" id="perspective4145" />
  </defs>
  <sodipodi:namedview id="base" pagecolor="#ffffff" bordercolor="#666666" borderopacity="1.0"
      inkscape:pageopacity="0.0" inkscape:pageshadow="2" inkscape:zoom="1" inkscape:cx="572.73795"
      inkscape:cy="173.48708" inkscape:document-units="px" inkscape:current-layer="layer4"
      showgrid="false" fit-margin-top="0" fit-margin-left="0" fit-margin-right="0"
      fit-margin-bottom="0" inkscape:window-width="1857" inkscape:window-height="1052"
      inkscape:window-x="63" inkscape:window-y="0" inkscape:window-maximized="1" />
  <metadata id="metadata4990">
    <rdf:RDF>
      <cc:Work rdf:about="">
        <dc:format>image/svg+xml</dc:format>
        <dc:type rdf:resource="http://purl.org/dc/dcmitype/StillImage" />
        <dc:title></dc:title>
      </cc:Work>
    </rdf:RDF>
  </metadata>
  <g inkscape:groupmode="layer" id="layer4" inkscape:label="Layer 2"
      transform="translate(-220.97188,-392.31605)">
    <g aria-label="chargeprice" transform="matrix(0.93750004,0,0,0.93750004,231.60533,392.30136)"
        style="font-style:normal;font-weight:normal;font-size:25px;line-height:125%;font-family:sans-serif;letter-spacing:0px;word-spacing:0px;fill:#000000;fill-opacity:1;stroke:none;stroke-width:1px;stroke-linecap:butt;stroke-linejoin:miter;stroke-opacity:1"
        id="flowRoot825">
      <path
          d="m 350.50175,132.92433 q 15.168,0 25.152,4.8 10.176,4.8 10.176,12.288 0,3.264 -2.112,5.952 -2.112,2.496 -5.376,2.496 -2.496,0 -4.032,-0.768 -1.344,-0.768 -3.84,-2.496 -1.152,-1.152 -3.648,-2.688 -2.304,-1.152 -6.528,-1.92 -4.224,-0.768 -7.68,-0.768 -9.984,0 -17.664,4.608 -7.68,4.608 -11.904,12.864 -4.224,8.064 -4.224,18.048 0,10.176 4.032,18.24 4.224,8.064 11.712,12.672 7.488,4.608 17.088,4.608 9.984,0 16.128,-3.072 1.344,-0.768 3.648,-2.496 1.92,-1.536 3.264,-2.304 1.536,-0.768 3.648,-0.768 3.84,0 5.952,2.496 2.304,2.304 2.304,6.144 0,4.032 -5.184,8.064 -4.992,3.84 -13.632,6.336 -8.448,2.496 -18.24,2.496 -14.592,0 -25.728,-6.72 -11.136,-6.912 -17.28,-18.816 -5.952,-12.096 -5.952,-26.88 0,-14.784 6.336,-26.688 6.336,-12.096 17.664,-18.816 11.328,-6.912 25.92,-6.912 z"
          style="font-style:normal;font-variant:normal;font-weight:500;font-stretch:normal;font-size:192px;font-family:Quicksand;-inkscape-font-specification:'Quicksand Medium'"
          id="path824" />
      <path
          d="m 455.46275,133.50033 q 33.792,0 33.792,41.856 v 51.264 q 0,3.84 -2.688,6.528 -2.496,2.688 -6.528,2.688 -3.84,0 -6.528,-2.688 -2.496,-2.688 -2.496,-6.528 v -51.264 q 0,-24.96 -21.12,-24.96 -11.328,0 -18.816,7.296 -7.488,7.104 -7.488,17.664 v 51.264 q 0,3.84 -2.688,6.528 -2.496,2.688 -6.528,2.688 -4.032,0 -6.528,-2.496 -2.496,-2.688 -2.496,-6.72 v -123.648 q 0,-3.840001 2.496,-6.528001 2.688,-2.688 6.528,-2.688 4.032,0 6.528,2.688 2.688,2.688 2.688,6.528001 v 48.576 q 4.8,-7.488 13.44,-12.672 8.64,-5.376 18.432,-5.376 z"
          style="font-style:normal;font-variant:normal;font-weight:500;font-stretch:normal;font-size:192px;font-family:Quicksand;-inkscape-font-specification:'Quicksand Medium'"
          id="path826" />
      <path
          d="m 597.95075,133.88433 q 4.032,0 6.528,2.688 2.688,2.496 2.688,6.72 v 83.328 q 0,3.84 -2.688,6.528 -2.496,2.688 -6.528,2.688 -4.032,0 -6.528,-2.496 -2.496,-2.688 -2.496,-6.72 v -4.992 q -4.992,6.72 -13.632,11.52 -8.64,4.608 -18.624,4.608 -13.056,0 -23.808,-6.72 -10.56,-6.72 -16.704,-18.624 -5.952,-12.096 -5.952,-27.072 0,-14.976 5.952,-26.88 6.144,-12.096 16.704,-18.816 10.56,-6.72 23.232,-6.72 10.176,0 18.816,4.224 8.832,4.224 14.016,10.752 v -4.608 q 0,-4.032 2.496,-6.72 2.496,-2.688 6.528,-2.688 z m -39.168,86.976 q 9.024,0 15.936,-4.608 7.104,-4.608 10.944,-12.672 4.032,-8.064 4.032,-18.24 0,-9.984 -4.032,-18.048 -3.84,-8.064 -10.944,-12.672 -6.912,-4.8 -15.936,-4.8 -9.024,0 -16.128,4.608 -6.912,4.608 -10.944,12.672 -3.84,8.064 -3.84,18.24 0,10.176 3.84,18.24 4.032,8.064 10.944,12.672 7.104,4.608 16.128,4.608 z"
          style="font-style:normal;font-variant:normal;font-weight:500;font-stretch:normal;font-size:192px;font-family:Quicksand;-inkscape-font-specification:'Quicksand Medium'"
          id="path828" />
      <path
          d="m 684.21275,132.92433 q 4.992,0 8.64,2.688 3.648,2.496 3.648,6.336 0,4.608 -2.496,7.104 -2.304,2.304 -5.76,2.304 -1.728,0 -5.184,-1.152 -4.032,-1.344 -6.336,-1.344 -5.952,0 -11.712,4.224 -5.568,4.032 -9.216,11.328 -3.456,7.104 -3.456,15.936 v 46.272 q 0,3.84 -2.688,6.528 -2.496,2.688 -6.528,2.688 -4.032,0 -6.528,-2.496 -2.496,-2.688 -2.496,-6.72 v -82.176 q 0,-3.84 2.496,-6.528 2.688,-2.688 6.528,-2.688 4.032,0 6.528,2.688 2.688,2.688 2.688,6.528 v 9.792 q 4.224,-9.408 12.672,-15.168 8.448,-5.952 19.2,-6.144 z"
          style="font-style:normal;font-variant:normal;font-weight:500;font-stretch:normal;font-size:192px;font-family:Quicksand;-inkscape-font-specification:'Quicksand Medium'"
          id="path830" />
      <path
          d="m 794.32175,133.88433 q 4.032,0 6.528,2.688 2.688,2.496 2.688,6.72 v 84.48 q 0,15.552 -6.72,25.92 -6.528,10.56 -17.856,15.552 -11.328,4.992 -25.536,4.992 -7.68,0 -18.048,-2.688 -10.176,-2.688 -13.056,-5.568 -5.952,-3.072 -5.952,-7.68 0,-1.152 0.768,-3.072 2.112,-4.8 7.104,-4.8 2.496,0 5.376,1.152 15.36,5.952 24,5.952 15.36,0 23.424,-7.488 8.256,-7.296 8.256,-20.16 v -10.368 q -4.032,7.488 -13.632,12.864 -9.408,5.376 -19.968,5.376 -13.248,0 -24.192,-6.72 -10.944,-6.72 -17.28,-18.624 -6.144,-12.096 -6.144,-27.072 0,-14.976 6.144,-26.88 6.336,-12.096 17.088,-18.816 10.944,-6.72 24,-6.72 10.56,0 19.584,4.8 9.216,4.8 14.4,11.712 v -6.144 q 0,-4.032 2.496,-6.72 2.496,-2.688 6.528,-2.688 z m -40.512,86.976 q 9.408,0 16.704,-4.416 7.296,-4.608 11.328,-12.672 4.224,-8.256 4.224,-18.432 0,-10.176 -4.224,-18.24 -4.032,-8.064 -11.328,-12.672 -7.296,-4.608 -16.704,-4.608 -9.216,0 -16.512,4.608 -7.296,4.608 -11.52,12.864 -4.032,8.064 -4.032,18.048 0,9.984 4.032,18.24 4.224,8.064 11.52,12.672 7.296,4.608 16.512,4.608 z"
          style="font-style:normal;font-variant:normal;font-weight:500;font-stretch:normal;font-size:192px;font-family:Quicksand;-inkscape-font-specification:'Quicksand Medium'"
          id="path832" />
      <path
          d="m 915.17075,181.69233 q -0.192,3.456 -2.88,5.952 -2.688,2.304 -6.336,2.304 h -67.584 q 1.344,14.016 10.56,22.464 9.408,8.448 22.848,8.448 9.216,0 14.976,-2.688 5.76,-2.688 10.176,-6.912 2.88,-1.728 5.568,-1.728 3.264,0 5.376,2.304 2.304,2.304 2.304,5.376 0,4.032 -3.84,7.296 -5.568,5.568 -14.784,9.408 -9.216,3.84 -18.816,3.84 -15.552,0 -27.456,-6.528 -11.712,-6.528 -18.24,-18.24 -6.336,-11.712 -6.336,-26.496 0,-16.128 6.528,-28.224 6.72,-12.288 17.472,-18.816 10.944,-6.528 23.424,-6.528 12.288,0 23.04,6.336 10.752,6.336 17.28,17.472 6.528,11.136 6.72,24.96 z m -47.04,-31.872 q -10.752,0 -18.624,6.144 -7.872,5.952 -10.368,18.624 h 56.64 v -1.536 q -0.96,-10.176 -9.216,-16.704 -8.064,-6.528 -18.432,-6.528 z"
          style="font-style:normal;font-variant:normal;font-weight:500;font-stretch:normal;font-size:192px;font-family:Quicksand;-inkscape-font-specification:'Quicksand Medium'"
          id="path834" />
      <path
          d="m 986.84675,133.50033 q 13.056,0 23.61605,6.72 10.5599,6.528 16.512,18.432 6.144,11.904 6.144,26.88 0,14.976 -6.144,26.88 -5.9521,11.712 -16.512,18.432 -10.56005,6.72 -23.23205,6.72 -9.984,0 -18.624,-4.416 -8.64,-4.416 -14.016,-10.752 v 42.624 q 0,3.84 -2.688,6.528 -2.496,2.688 -6.528,2.688 -3.84,0 -6.528,-2.688 -2.496,-2.496 -2.496,-6.528 v -120.768 q 0,-4.032 2.496,-6.72 2.496,-2.688 6.528,-2.688 4.032,0 6.528,2.688 2.688,2.688 2.688,6.72 v 5.568 q 4.608,-6.72 13.44,-11.52 8.832,-4.8 18.816,-4.8 z m -2.112,87.168 q 8.832,0 15.93595,-4.608 7.1041,-4.608 10.944,-12.48 4.032,-8.064 4.032,-18.048 0,-9.984 -4.032,-17.856 -3.8399,-8.064 -10.944,-12.672 -7.10395,-4.608 -15.93595,-4.608 -9.024,0 -16.128,4.608 -7.104,4.416 -11.136,12.48 -3.84,8.064 -3.84,18.048 0,9.984 3.84,18.048 4.032,8.064 11.136,12.672 7.104,4.416 16.128,4.416 z"
          style="font-style:normal;font-variant:normal;font-weight:500;font-stretch:normal;font-size:192px;font-family:Quicksand;-inkscape-font-specification:'Quicksand Medium'"
          id="path836" />
      <path
          d="m 1104.2128,132.92433 q 4.9919,0 8.64,2.688 3.648,2.496 3.648,6.336 0,4.608 -2.496,7.104 -2.304,2.304 -5.76,2.304 -1.728,0 -5.184,-1.152 -4.032,-1.344 -6.336,-1.344 -5.952,0 -11.712,4.224 -5.568,4.032 -9.216,11.328 -3.456,7.104 -3.456,15.936 v 46.272 q 0,3.84 -2.688,6.528 -2.496,2.688 -6.528,2.688 -4.032,0 -6.528,-2.496 -2.496,-2.688 -2.496,-6.72 v -82.176 q 0,-3.84 2.496,-6.528 2.688,-2.688 6.528,-2.688 4.032,0 6.528,2.688 2.688,2.688 2.688,6.528 v 9.792 q 4.224,-9.408 12.672,-15.168 8.448,-5.952 19.2,-6.144 z"
          style="font-style:normal;font-variant:normal;font-weight:500;font-stretch:normal;font-size:192px;font-family:Quicksand;-inkscape-font-specification:'Quicksand Medium'"
          id="path838" />
      <path
          d="m 1150.5058,226.62033 q 0,3.84 -2.688,6.528 -2.496,2.688 -6.528,2.688 -3.84,0 -6.5281,-2.688 -2.4959,-2.688 -2.4959,-6.528 v -83.136 q 0,-3.84 2.4959,-6.528 2.6881,-2.688 6.5281,-2.688 4.032,0 6.528,2.688 2.688,2.688 2.688,6.528 z m -9.216,-105.024 q -5.568,0 -8.064,-1.92 -2.304,-2.112 -2.304,-6.528 v -3.072 q 0,-4.608 2.496,-6.528 2.688,-1.92 8.064,-1.92 5.3759,0 7.68,2.112 2.496,1.92 2.496,6.336 v 3.072 q 0,4.608 -2.496,6.528 -2.496,1.92 -7.872,1.92 z"
          style="font-style:normal;font-variant:normal;font-weight:500;font-stretch:normal;font-size:192px;font-family:Quicksand;-inkscape-font-specification:'Quicksand Medium'"
          id="path840" />
      <path
          d="m 1220.5018,132.92433 q 15.168,0 25.152,4.8 10.1759,4.8 10.1759,12.288 0,3.264 -2.1119,5.952 -2.112,2.496 -5.376,2.496 -2.496,0 -4.0321,-0.768 -1.3439,-0.768 -3.8399,-2.496 -1.152,-1.152 -3.648,-2.688 -2.304,-1.152 -6.528,-1.92 -4.224,-0.768 -7.68,-0.768 -9.984,0 -17.664,4.608 -7.68,4.608 -11.904,12.864 -4.224,8.064 -4.224,18.048 0,10.176 4.032,18.24 4.224,8.064 11.712,12.672 7.488,4.608 17.088,4.608 9.984,0 16.128,-3.072 1.344,-0.768 3.648,-2.496 1.92,-1.536 3.264,-2.304 1.536,-0.768 3.648,-0.768 3.84,0 5.952,2.496 2.304,2.304 2.304,6.144 0,4.032 -5.184,8.064 -4.992,3.84 -13.632,6.336 -8.448,2.496 -18.24,2.496 -14.592,0 -25.728,-6.72 -11.136,-6.912 -17.28,-18.816 -5.952,-12.096 -5.952,-26.88 0,-14.784 6.336,-26.688 6.336,-12.096 17.664,-18.816 11.328,-6.912 25.92,-6.912 z"
          style="font-style:normal;font-variant:normal;font-weight:500;font-stretch:normal;font-size:192px;font-family:Quicksand;-inkscape-font-specification:'Quicksand Medium'"
          id="path842" />
      <path
          d="m 1363.6708,181.69233 q -0.192,3.456 -2.88,5.952 -2.688,2.304 -6.3361,2.304 h -67.5839 q 1.344,14.016 10.56,22.464 9.4079,8.448 22.848,8.448 9.216,0 14.976,-2.688 5.76,-2.688 10.176,-6.912 2.88,-1.728 5.568,-1.728 3.264,0 5.376,2.304 2.304,2.304 2.304,5.376 0,4.032 -3.8401,7.296 -5.5679,5.568 -14.7839,9.408 -9.2161,3.84 -18.816,3.84 -15.552,0 -27.456,-6.528 -11.712,-6.528 -18.24,-18.24 -6.336,-11.712 -6.336,-26.496 0,-16.128 6.528,-28.224 6.72,-12.288 17.472,-18.816 10.944,-6.528 23.424,-6.528 12.288,0 23.04,6.336 10.752,6.336 17.28,17.472 6.528,11.136 6.72,24.96 z m -47.04,-31.872 q -10.752,0 -18.624,6.144 -7.872,5.952 -10.368,18.624 h 56.64 v -1.536 q -0.96,-10.176 -9.216,-16.704 -8.064,-6.528 -18.432,-6.528 z"
          style="font-style:normal;font-variant:normal;font-weight:500;font-stretch:normal;font-size:192px;font-family:Quicksand;-inkscape-font-specification:'Quicksand Medium'"
          id="path844" />
    </g>
    <g aria-label="POWERED BY" transform="matrix(0.93750004,0,0,0.93750004,231.12524,266.21949)"
        style="font-style:normal;font-weight:normal;font-size:25px;line-height:125%;font-family:sans-serif;letter-spacing:0px;word-spacing:0px;fill:#000000;fill-opacity:1;stroke:none;stroke-width:1px;stroke-linecap:butt;stroke-linejoin:miter;stroke-opacity:1"
        id="flowRoot825-6">
      <path
          d="m 331.92042,135.56966 q 5.44,0 10.34666,3.30667 4.90667,3.2 7.89334,8.74667 2.98666,5.44 2.98666,11.94666 0,6.4 -2.98666,11.94667 -2.98667,5.54666 -7.89334,8.85333 -4.90666,3.2 -10.34666,3.2 h -18.56 v 20.16 q 0,2.88 -1.70667,4.69333 -1.70667,1.81334 -4.48,1.81334 -2.66667,0 -4.37333,-1.81334 -1.70667,-1.92 -1.70667,-4.69333 v -61.65333 q 0,-2.77333 1.81333,-4.58667 1.92,-1.92 4.69334,-1.92 z m 0,35.84 q 2.02666,0 3.94666,-1.70667 2.02667,-1.70666 3.2,-4.37333 1.28,-2.77333 1.28,-5.76 0,-2.98667 -1.28,-5.65333 -1.17333,-2.77333 -3.2,-4.37333 -1.92,-1.70667 -3.94666,-1.70667 h -18.56 v 23.57333 z"
          style="font-style:normal;font-variant:normal;font-weight:bold;font-stretch:normal;font-size:106.66666412px;font-family:Quicksand;-inkscape-font-specification:'Quicksand Bold'"
          id="path883" />
      <path
          d="m 434.16208,172.90299 q 0,10.56 -4.69333,19.41334 -4.69333,8.74666 -13.01333,13.86666 -8.21334,5.12 -18.56,5.12 -10.34667,0 -18.66667,-5.12 -8.21333,-5.12 -12.90667,-13.86666 -4.58666,-8.85334 -4.58666,-19.41334 0,-10.56 4.58666,-19.30666 4.69334,-8.85333 12.90667,-13.97333 8.32,-5.12 18.66667,-5.12 10.34666,0 18.56,5.12 8.32,5.12 13.01333,13.97333 4.69333,8.74666 4.69333,19.30666 z m -13.86666,0 q 0,-7.14666 -2.88,-12.90666 -2.88,-5.86667 -8,-9.28 -5.12,-3.41333 -11.52,-3.41333 -6.50667,0 -11.62667,3.41333 -5.01333,3.30666 -7.89333,9.17333 -2.77334,5.86667 -2.77334,13.01333 0,7.14667 2.77334,13.01334 2.88,5.86666 7.89333,9.28 5.12,3.30666 11.62667,3.30666 6.4,0 11.52,-3.41333 5.12,-3.41333 8,-9.17333 2.88,-5.86667 2.88,-13.01334 z"
          style="font-style:normal;font-variant:normal;font-weight:bold;font-stretch:normal;font-size:106.66666412px;font-family:Quicksand;-inkscape-font-specification:'Quicksand Bold'"
          id="path885" />
      <path
          d="m 529.83207,135.24966 q 2.56,0 4.69333,2.02667 2.24,1.92 2.24,4.90667 0,0.96 -0.32,2.13333 l -21.01333,61.86666 q -0.64,1.81334 -2.24,2.88 -1.6,1.06667 -3.52,1.17334 -1.92,0 -3.62667,-1.06667 -1.70666,-1.06667 -2.66666,-3.09333 l -15.14667,-34.45334 -15.25333,34.45334 q -0.96,2.02666 -2.66667,3.09333 -1.70666,1.06667 -3.62666,1.06667 -1.92,-0.10667 -3.52,-1.17334 -1.6,-1.06666 -2.24,-2.88 l -21.01334,-61.86666 q -0.32,-1.17333 -0.32,-2.13333 0,-2.98667 2.13334,-4.90667 2.24,-2.02667 4.90666,-2.02667 2.13334,0 3.84,1.17334 1.70667,1.06666 2.34667,2.98666 l 15.89333,48.21333 13.86667,-33.28 q 0.85333,-1.91999 2.45333,-2.98666 1.6,-1.17333 3.62667,-1.06667 2.02667,-0.10666 3.52,1.06667 1.6,1.06667 2.45333,2.98666 l 13.12,32.96 15.78667,-47.89333 q 0.64,-1.92 2.34666,-2.98666 1.81334,-1.17334 3.94667,-1.17334 z"
          style="font-style:normal;font-variant:normal;font-weight:bold;font-stretch:normal;font-size:106.66666412px;font-family:Quicksand;-inkscape-font-specification:'Quicksand Bold'"
          id="path887" />
      <path
          d="m 588.75041,197.96966 q 2.77333,0 4.58666,1.92 1.92,1.81333 1.92,4.26667 0,2.66666 -1.92,4.37333 -1.81333,1.70667 -4.58666,1.70667 h -35.73334 q -2.77333,0 -4.69333,-1.81334 -1.81333,-1.92 -1.81333,-4.69333 v -61.65333 q 0,-2.77333 1.81333,-4.58667 1.92,-1.92 4.69333,-1.92 h 35.73334 q 2.77333,0 4.58666,1.81334 1.92,1.70666 1.92,4.48 0,2.66666 -1.81333,4.37333 -1.81333,1.6 -4.69333,1.6 h -28.90667 v 18.13333 h 24.10667 q 2.77333,0 4.58666,1.81333 1.92,1.70667 1.92,4.48 0,2.66667 -1.81333,4.37334 -1.81333,1.6 -4.69333,1.6 h -24.10667 v 19.73333 z"
          style="font-style:normal;font-variant:normal;font-weight:bold;font-stretch:normal;font-size:106.66666412px;font-family:Quicksand;-inkscape-font-specification:'Quicksand Bold'"
          id="path889" />
      <path
          d="m 666.11206,199.78299 q 1.38667,0.85334 2.13333,2.24 0.85334,1.38667 0.85334,2.88 0,1.92 -1.28,3.52 -1.6,1.92 -4.90667,1.92 -2.56,0 -4.69333,-1.17333 -7.68,-4.37333 -7.68,-17.81333 0,-3.84 -2.56,-6.08 -2.45333,-2.24 -7.14667,-2.24 H 620.8854 v 20.69333 q 0,2.88 -1.6,4.69333 -1.49334,1.81334 -4.05334,1.81334 -3.09333,0 -5.44,-1.81334 -2.24,-1.92 -2.24,-4.69333 v -61.65333 q 0,-2.77333 1.81334,-4.58667 1.92,-1.92 4.69333,-1.92 h 30.72 q 5.54667,0 10.45333,2.98667 4.90667,2.98667 7.78667,8.21333 2.98666,5.22667 2.98666,11.73333 0,5.33334 -2.88,10.45334 -2.88,5.01333 -7.46666,8 6.72,4.69333 7.36,12.58666 0.32,1.70667 0.32,3.30667 0.42666,3.30667 0.85333,4.8 0.42667,1.38667 1.92,2.13333 z M 644.2454,172.04966 q 1.92,0 3.73333,-1.81333 1.81333,-1.81334 2.98667,-4.8 1.17333,-3.09334 1.17333,-6.61334 0,-2.98666 -1.17333,-5.43999 -1.17334,-2.56 -2.98667,-4.05334 -1.81333,-1.49333 -3.73333,-1.49333 h -23.36 v 24.21333 z"
          style="font-style:normal;font-variant:normal;font-weight:bold;font-stretch:normal;font-size:106.66666412px;font-family:Quicksand;-inkscape-font-specification:'Quicksand Bold'"
          id="path891" />
      <path
          d="m 723.12541,197.96966 q 2.77333,0 4.58666,1.92 1.92,1.81333 1.92,4.26667 0,2.66666 -1.92,4.37333 -1.81333,1.70667 -4.58666,1.70667 h -35.73334 q -2.77333,0 -4.69333,-1.81334 -1.81333,-1.92 -1.81333,-4.69333 v -61.65333 q 0,-2.77333 1.81333,-4.58667 1.92,-1.92 4.69333,-1.92 h 35.73334 q 2.77333,0 4.58666,1.81334 1.92,1.70666 1.92,4.48 0,2.66666 -1.81333,4.37333 -1.81333,1.6 -4.69333,1.6 h -28.90667 v 18.13333 h 24.10667 q 2.77333,0 4.58666,1.81333 1.92,1.70667 1.92,4.48 0,2.66667 -1.81333,4.37334 -1.81333,1.6 -4.69333,1.6 h -24.10667 v 19.73333 z"
          style="font-style:normal;font-variant:normal;font-weight:bold;font-stretch:normal;font-size:106.66666412px;font-family:Quicksand;-inkscape-font-specification:'Quicksand Bold'"
          id="path893" />
      <path
          d="m 773.92706,135.56966 q 10.02667,0 17.17333,5.01334 7.25334,4.90666 10.98667,13.43999 3.84,8.42667 3.84,18.88 0,10.45334 -3.84,18.98667 -3.73333,8.42667 -10.98667,13.44 -7.14666,4.90667 -17.17333,4.90667 h -25.49333 q -2.77333,0 -4.69333,-1.81334 -1.81334,-1.92 -1.81334,-4.69333 v -61.65333 q 0,-2.77333 1.81334,-4.58667 1.92,-1.92 4.69333,-1.92 z m -1.06666,62.4 q 9.6,0 14.4,-7.04 4.79999,-7.14667 4.79999,-18.02667 0,-10.88 -4.90666,-17.92 -4.8,-7.14666 -14.29333,-7.14666 h -17.6 v 50.13333 z"
          style="font-style:normal;font-variant:normal;font-weight:bold;font-stretch:normal;font-size:106.66666412px;font-family:Quicksand;-inkscape-font-specification:'Quicksand Bold'"
          id="path895" />
      <path
          d="m 892.76875,168.84966 q 5.65333,2.24 9.17333,6.82667 3.62667,4.58666 3.62667,11.84 0,12.69333 -7.25333,17.70666 -7.25334,5.01334 -17.28,5.01334 h -26.56 q -2.77334,0 -4.69334,-1.81334 -1.81333,-1.92 -1.81333,-4.69333 v -61.65333 q 0,-2.77333 1.81333,-4.58667 1.92,-1.92 4.69334,-1.92 h 26.88 q 20.26666,0 20.26666,18.98667 0,4.8 -2.34666,8.53333 -2.24,3.62667 -6.50667,5.76 z m -5.01333,-11.94667 q 0,-4.37333 -2.24,-6.50666 -2.13334,-2.24 -6.08,-2.24 h -17.6 v 16.64 h 17.92 q 3.2,0 5.54666,-2.13334 2.45334,-2.13333 2.45334,-5.76 z m -6.72,41.06667 q 5.01333,0 7.78666,-2.66667 2.88,-2.66666 2.88,-7.78666 0,-6.29334 -3.30666,-8.21334 -3.30667,-1.92 -8.10667,-1.92 h -18.45333 v 20.58667 z"
          style="font-style:normal;font-variant:normal;font-weight:bold;font-stretch:normal;font-size:106.66666412px;font-family:Quicksand;-inkscape-font-specification:'Quicksand Bold'"
          id="path897" />
      <path
          d="m 969.23371,141.863 q 0,2.13333 -1.17334,3.94666 l -22.29333,31.89333 v 26.02667 q 0,2.77333 -1.81333,4.69333 -1.81333,1.81334 -4.37333,1.81334 -2.66667,0 -4.58667,-1.81334 -1.81333,-1.92 -1.81333,-4.69333 v -27.52 l -22.18667,-29.44 q -1.92,-2.56 -1.92,-5.01333 0,-2.77333 2.13333,-4.58667 2.24,-1.92 4.69334,-1.92 2.98666,0 5.22666,2.98667 l 18.77334,25.92 17.59999,-25.70667 q 2.24,-3.2 5.33334,-3.2 2.56,0 4.48,1.92 1.92,1.92 1.92,4.69334 z"
          style="font-style:normal;font-variant:normal;font-weight:bold;font-stretch:normal;font-size:106.66666412px;font-family:Quicksand;-inkscape-font-specification:'Quicksand Bold'"
          id="path899" />
    </g>
  </g>
  <g inkscape:groupmode="layer" id="layer2" inkscape:label="Layer 3"
      transform="translate(-27.815468,21.198496)" />
  <g inkscape:label="Layer 1" inkscape:groupmode="layer" id="layer1"
      transform="translate(-220.97188,-392.31605)">
    <path inkscape:connector-curvature="0" style="fill:#000016;fill-opacity:1"
        d="m 467.91504,565.96351 -11.49602,-6.03301 10.02002,-5.23601 c 3.41201,-1.785 3.41501,-4.70701 0.01,-6.49601 l -10.76202,-5.64801 10.75602,-5.62101 c 3.41201,-1.78501 3.41501,-4.70701 0.01,-6.49602 L 380.3709,485.25335 c -3.40901,-1.789 -8.99702,-1.809 -12.41802,-0.041 L 223.53563,559.8065 c -3.422,1.766 -3.418,4.65001 0.01,6.41001 l 11.01802,5.66202 -11.02302,5.69301 c -3.422,1.766 -3.418,4.65001 0.01,6.41001 l 11.75602,6.04101 -10.28901,5.31401 c -3.42201,1.76801 -3.41801,4.65201 0.01,6.41201 l 88.01014,45.22309 c 3.42601,1.76001 9.02002,1.74001 12.43002,-0.043 l 142.46424,-74.46914 c 3.40901,-1.78301 3.41201,-4.70701 0,-6.49602 z m -93.03415,-58.62311 -21.59604,24.90005 c -1.08,1.246 -0.764,2.883 0.703,3.637 l 17.18203,8.82802 c 1.467,0.754 1.469,1.99201 0,2.74801 l -53.92109,27.85005 c -1.467,0.758 -1.781,0.357 -0.699,-0.889 l 21.59404,-24.90005 c 1.082,-1.246 0.766,-2.885 -0.70101,-3.63901 l -17.18202,-8.82801 c -1.46701,-0.75401 -1.46901,-1.99001 0,-2.74801 l 53.92209,-27.85005 c 1.465,-0.75601 1.78,-0.35501 0.699,0.891 z"
        id="path11" />
  </g>
</svg>
