<?xml version="1.0" encoding="utf-8"?><!-- Generator: Adobe Illustrator 24.3.0, SVG Export Plug-In . SVG Version: 6.00 Build 0)  -->
<svg version="1.1" id="Ebene_5" xmlns="http://www.w3.org/2000/svg"
    xmlns:xlink="http://www.w3.org/1999/xlink" x="0px" y="0px" viewBox="0 0 24 24"
    style="enable-background:new 0 0 24 24;" xml:space="preserve">
<style type="text/css">
	.st0{display:none;fill:none;}
	.st1{fill:none;stroke:#000000;stroke-width:2;stroke-miterlimit:10;}
</style>
    <path class="st0" d="M12,12h24v24H12V12z" />
    <path class="st1"
        d="M6.2,13.8C4.1,10.6,4.6,6.3,7.3,3.5h12c1.5,1.6,2.4,3.7,2.4,5.9c0,4.6-3.8,8.3-8.4,8.3c-1.1,0-2.1-0.2-3.1-0.6" />
    <circle cx="13.3" cy="9.3" r="1.7" />
    <circle cx="8.3" cy="9.3" r="1.7" />
    <circle cx="10.8" cy="13.5" r="1.7" />
    <circle cx="15.8" cy="13.5" r="1.7" />
    <circle cx="18.3" cy="9.3" r="1.7" />
    <circle cx="15.8" cy="5.6" r="1" />
    <circle cx="10.8" cy="5.6" r="1" />
    <g id="T">
	<path id="path35" d="M5.4,22.3l1-5.5c0.9,0,1.3,0.1,1.3,0.5c0.4-0.1,0.7-0.4,0.9-0.7C7.8,16.3,7,16,6.1,16l-0.8,0.8l0,0L4.7,16
		c-0.8,0-1.7,0.3-2.5,0.6c0.2,0.3,0.6,0.6,0.9,0.7c0.1-0.4,0.3-0.5,1.3-0.5L5.4,22.3" />
        <path id="path37" d="M5.5,15.7L5.5,15.7c1.1,0,2.3,0.2,3.3,0.7c0.1-0.1,0.1-0.3,0.2-0.4c-2.2-0.9-4.8-0.9-7,0
		c0.1,0.1,0.1,0.3,0.2,0.4C3.2,15.9,4.3,15.7,5.5,15.7" />
</g>
</svg>
