<?xml version="1.0" encoding="utf-8"?><!-- Generator: Adobe Illustrator 24.3.0, SVG Export Plug-In . SVG Version: 6.00 Build 0)  -->
<svg version="1.1" id="Ebene_5" xmlns="http://www.w3.org/2000/svg" x="0px" y="0px"
	viewBox="0 0 24 24" style="enable-background:new 0 0 24 24;" xml:space="preserve">
<style type="text/css">
	.st0{fill:none;stroke:#000000;stroke-width:2;stroke-miterlimit:10;}
	.st1{fill:none;stroke:#000000;stroke-width:1.7;stroke-miterlimit:10;}
	.st2{fill:none;stroke:#000000;stroke-width:0.5;stroke-miterlimit:10;}
</style>
	<circle cx="9" cy="18.7" r="1.4" />
	<circle cx="15" cy="18.7" r="1.4" />
	<path class="st0" d="M8.9,16.1h6.2c1.5,0,2.7,1.2,2.7,2.7l0,0c0,1.5-1.2,2.7-2.7,2.7H8.9c-1.5,0-2.7-1.2-2.7-2.7l0,0
	C6.2,17.3,7.4,16.1,8.9,16.1z" />
	<g>
	<circle cx="14.7" cy="6.4" r="1.3" />
		<circle cx="15.3" cy="10.5" r="0.8" />
		<circle cx="8.7" cy="10.5" r="0.8" />
		<circle cx="9.3" cy="6.4" r="1.3" />
		<circle cx="12" cy="13.1" r="1.3" />
		<circle class="st1" cx="12" cy="9.1" r="6.3" />
		<rect x="11" y="15.4" width="2" height="1.3" />
		<line class="st2" x1="10.9" y1="1.3" x2="13.1" y2="1.3" />
		<polygon points="13.1,0.9 13.1,2.4 14.5,3.1 13.8,1 	" />
		<polygon points="10.9,0.9 10.9,2.4 9.5,3.1 10.2,1 	" />
</g>
</svg>
