<svg id="Ebene_5" data-name="Ebene 5" xmlns="http://www.w3.org/2000/svg" viewBox="0 0 24 24">
    <defs>
        <style>.cls-1,.cls-2{fill:none;}.cls-2{stroke:#000;stroke-miterlimit:10;stroke-width:2px;}
        </style>
    </defs>
    <title>connector_supercharger</title>
    <path class="cls-1" d="M12,12H36V36H12Z" />
    <path class="cls-2"
        d="M13.45,17.08a8.24,8.24,0,0,1-3.11.6,8.34,8.34,0,0,1-6-14.18H16.3a8.35,8.35,0,0,1,1.07,10.33" />
    <circle cx="10.34" cy="9.34" r="1.67" />
    <circle cx="15.35" cy="9.34" r="1.67" />
    <circle cx="12.84" cy="13.51" r="1.67" />
    <circle cx="7.84" cy="13.51" r="1.67" />
    <circle cx="5.34" cy="9.34" r="1.67" />
    <circle cx="7.84" cy="5.59" r="1" />
    <circle cx="12.84" cy="5.59" r="1.04" />
    <g id="T">
        <path id="path35"
            d="M18.18,22.23l1-5.48c.93,0,1.22.1,1.27.52a2.15,2.15,0,0,0,.93-.7,6.91,6.91,0,0,0-2.46-.6l-.71.88h0L17.46,16a7,7,0,0,0-2.46.6,2.22,2.22,0,0,0,.94.7c0-.42.33-.52,1.26-.52l1,5.48" />
        <path id="path37"
            d="M18.18,15.72a7.9,7.9,0,0,1,3.28.66,2.65,2.65,0,0,0,.2-.4,9.24,9.24,0,0,0-7,0,2.61,2.61,0,0,0,.19.4,7.94,7.94,0,0,1,3.29-.66h0" />
    </g>
</svg>